<?xml version="1.0" encoding="utf-8"?>
<!-- Generator: Adobe Illustrator 23.0.0, SVG Export Plug-In . SVG Version: 6.00 Build 0)  -->
<svg version="1.1" id="Layer_1" xmlns="http://www.w3.org/2000/svg" xmlns:xlink="http://www.w3.org/1999/xlink" x="0px" y="0px"
	 viewBox="0 0 150 150" style="enable-background:new 0 0 150 150;" xml:space="preserve">
<style type="text/css">
	.st0{fill:#E9EAED;}
	.st1{fill:#A8B6C0;}
	.st2{fill:#FFFFFF;}
</style>
<rect class="st0" width="150" height="150"/>
<rect x="5.85" y="20.05" class="st1" width="104.15" height="69.7"/>
<rect x="110.6" y="20.3" class="st2" width="34.4" height="34.7"/>
<rect x="5.6" y="90.3" class="st2" width="34.4" height="34.7"/>
<rect x="40.6" y="90.3" class="st2" width="34.4" height="34.7"/>
<rect x="75.6" y="90.3" class="st2" width="34.4" height="34.7"/>
<rect x="110.6" y="90.3" class="st2" width="34.4" height="34.7"/>
<rect x="110.6" y="55.3" class="st2" width="34.4" height="34.7"/>
<path class="st2" d="M62.69,58.27c-0.01,0.06-0.06,0.11-0.13,0.11l-0.5-0.05c-1.32-0.14-2.65-0.2-3.98-0.2l-0.05,0
	c-1.33,0-2.66,0.07-3.98,0.21l-0.47,0.05c-0.06,0.01-0.12-0.04-0.13-0.1l-0.5-5.74c-0.01-0.09,0.09-0.15,0.17-0.11l2.8,1.41
	c0.05,0.02,0.11,0.01,0.14-0.03l1.89-2.34c0.05-0.06,0.13-0.06,0.18,0l1.89,2.34c0.03,0.04,0.09,0.05,0.14,0.03l2.8-1.4
	c0.08-0.04,0.17,0.02,0.17,0.11L62.69,58.27z M54.65,54.66l0.2,2.11c0,0.05,0.06,0.09,0.11,0.09c1.03-0.08,2.06-0.12,3.09-0.12
	c0.01,0,0.01,0,0.02,0c1.03,0,2.07,0.04,3.1,0.12c0.06,0,0.11-0.03,0.11-0.09l0.18-2.11c0.01-0.07-0.08-0.13-0.15-0.09l-1.63,0.75
	c-0.04,0.02-0.1,0.01-0.13-0.03l-1.42-1.61c-0.04-0.05-0.12-0.05-0.16,0l-1.42,1.61c-0.03,0.03-0.08,0.05-0.13,0.03l-1.62-0.74
	C54.73,54.53,54.64,54.59,54.65,54.66z"/>
</svg>
