<?xml version="1.0" encoding="utf-8"?>
<!-- Generator: Adobe Illustrator 23.0.0, SVG Export Plug-In . SVG Version: 6.00 Build 0)  -->
<svg version="1.1" id="Layer_1" xmlns="http://www.w3.org/2000/svg" xmlns:xlink="http://www.w3.org/1999/xlink" x="0px" y="0px"
	 viewBox="0 0 250 250" style="enable-background:new 0 0 250 250;" xml:space="preserve">
<style type="text/css">
	.st0{fill:#E9EAED;}
	.st1{opacity:0.43;fill:#FFFFFF;}
	.st2{fill:#FFFFFF;}
</style>
<rect class="st0" width="250" height="250"/>
<path class="st1" d="M60.76,71.77H15.28c-1.87,0-3.4-1.53-3.4-3.4V16.33c0-1.87,1.53-3.4,3.4-3.4h45.47c1.87,0,3.4,1.53,3.4,3.4
	v52.03C64.16,70.24,62.63,71.77,60.76,71.77z"/>
<path class="st1" d="M118.68,71.77H73.21c-1.87,0-3.4-1.53-3.4-3.4V16.33c0-1.87,1.53-3.4,3.4-3.4h45.47c1.87,0,3.4,1.53,3.4,3.4
	v52.03C122.08,70.24,120.55,71.77,118.68,71.77z"/>
<path class="st1" d="M60.76,137.1H15.28c-1.87,0-3.4-1.53-3.4-3.4V81.67c0-1.87,1.53-3.4,3.4-3.4h45.47c1.87,0,3.4,1.53,3.4,3.4
	v52.03C64.16,135.57,62.63,137.1,60.76,137.1z"/>
<path class="st1" d="M118.68,137.1H73.21c-1.87,0-3.4-1.53-3.4-3.4V81.67c0-1.87,1.53-3.4,3.4-3.4h45.47c1.87,0,3.4,1.53,3.4,3.4
	v52.03C122.08,135.57,120.55,137.1,118.68,137.1z"/>
<path class="st1" d="M60.76,202.44H15.28c-1.87,0-3.4-1.53-3.4-3.4v-52.03c0-1.87,1.53-3.4,3.4-3.4h45.47c1.87,0,3.4,1.53,3.4,3.4
	v52.03C64.16,200.91,62.63,202.44,60.76,202.44z"/>
<path class="st1" d="M118.68,202.44H73.21c-1.87,0-3.4-1.53-3.4-3.4v-52.03c0-1.87,1.53-3.4,3.4-3.4h45.47c1.87,0,3.4,1.53,3.4,3.4
	v52.03C122.08,200.91,120.55,202.44,118.68,202.44z"/>
<path class="st1" d="M176.79,71.77h-45.47c-1.87,0-3.4-1.53-3.4-3.4V16.33c0-1.87,1.53-3.4,3.4-3.4h45.47c1.87,0,3.4,1.53,3.4,3.4
	v52.03C180.19,70.24,178.66,71.77,176.79,71.77z"/>
<path class="st1" d="M234.72,71.77h-45.47c-1.87,0-3.4-1.53-3.4-3.4V16.33c0-1.87,1.53-3.4,3.4-3.4h45.47c1.87,0,3.4,1.53,3.4,3.4
	v52.03C238.12,70.24,236.59,71.77,234.72,71.77z"/>
<path class="st1" d="M176.79,137.1h-45.47c-1.87,0-3.4-1.53-3.4-3.4V81.67c0-1.87,1.53-3.4,3.4-3.4h45.47c1.87,0,3.4,1.53,3.4,3.4
	v52.03C180.19,135.57,178.66,137.1,176.79,137.1z"/>
<path class="st1" d="M234.72,137.1h-45.47c-1.87,0-3.4-1.53-3.4-3.4V81.67c0-1.87,1.53-3.4,3.4-3.4h45.47c1.87,0,3.4,1.53,3.4,3.4
	v52.03C238.12,135.57,236.59,137.1,234.72,137.1z"/>
<path class="st1" d="M176.79,202.44h-45.47c-1.87,0-3.4-1.53-3.4-3.4v-52.03c0-1.87,1.53-3.4,3.4-3.4h45.47c1.87,0,3.4,1.53,3.4,3.4
	v52.03C180.19,200.91,178.66,202.44,176.79,202.44z"/>
<path class="st1" d="M234.72,202.44h-45.47c-1.87,0-3.4-1.53-3.4-3.4v-52.03c0-1.87,1.53-3.4,3.4-3.4h45.47c1.87,0,3.4,1.53,3.4,3.4
	v52.03C238.12,200.91,236.59,202.44,234.72,202.44z"/>
<path class="st2" d="M45.7,47.94c-0.01,0.11-0.1,0.19-0.21,0.17l-0.82-0.08c-2.19-0.23-4.39-0.34-6.59-0.34l-0.08,0
	c-2.2,0-4.41,0.11-6.6,0.34l-0.78,0.08c-0.11,0.01-0.2-0.07-0.21-0.17l-0.82-9.5c-0.01-0.15,0.14-0.25,0.28-0.19l4.64,2.33
	c0.08,0.04,0.18,0.02,0.23-0.05l3.13-3.87c0.08-0.09,0.22-0.09,0.3,0l3.13,3.87c0.06,0.07,0.15,0.09,0.23,0.05l4.63-2.32
	c0.13-0.07,0.29,0.04,0.28,0.19L45.7,47.94z M32.38,41.95l0.33,3.49c0.01,0.09,0.09,0.15,0.19,0.14c1.7-0.13,3.42-0.2,5.12-0.2
	c0.01,0,0.02,0,0.03,0c1.71,0,3.43,0.07,5.14,0.2c0.09,0.01,0.18-0.06,0.19-0.14l0.3-3.5c0.01-0.12-0.13-0.21-0.25-0.15l-2.7,1.24
	c-0.07,0.03-0.16,0.02-0.21-0.04l-2.36-2.67c-0.07-0.08-0.2-0.08-0.27,0l-2.36,2.67c-0.05,0.06-0.14,0.07-0.21,0.04l-2.69-1.23
	C32.51,41.74,32.37,41.83,32.38,41.95z"/>
</svg>
