<?xml version="1.0" encoding="utf-8"?>
<!-- Generator: Adobe Illustrator 23.0.0, SVG Export Plug-In . SVG Version: 6.00 Build 0)  -->
<svg version="1.1" id="Layer_1" xmlns="http://www.w3.org/2000/svg" xmlns:xlink="http://www.w3.org/1999/xlink" x="0px" y="0px"
	 viewBox="0 0 250 250" style="enable-background:new 0 0 250 250;" xml:space="preserve">
<style type="text/css">
	.st0{fill:#E9EAED;}
	.st1{opacity:0.43;fill:#FFFFFF;enable-background:new    ;}
	.st2{fill:#A8B6C0;}
	.st3{fill:#FFFFFF;}
</style>
<rect y="0" class="st0" width="250" height="250"/>
<path class="st1" d="M51.9,70.1H8.7c-1.8,0-3.2-1.5-3.2-3.4v-52c0-1.9,1.5-3.4,3.2-3.4h43.2c1.8,0,3.2,1.5,3.2,3.4v52
	C55.1,68.5,53.7,70.1,51.9,70.1z"/>
<path class="st1" d="M107,70.1H63.7c-1.8,0-3.2-1.5-3.2-3.4v-52c0-1.9,1.5-3.4,3.2-3.4H107c1.8,0,3.2,1.5,3.2,3.4v52
	C110.2,68.5,108.7,70.1,107,70.1z"/>
<path class="st1" d="M162,70.1h-43.2c-1.8,0-3.2-1.5-3.2-3.4v-52c0-1.9,1.5-3.4,3.2-3.4H162c1.8,0,3.2,1.5,3.2,3.4v52
	C165.2,68.5,163.8,70.1,162,70.1z"/>
<path class="st1" d="M51.9,135.4H8.7c-1.8,0-3.2-1.5-3.2-3.4V80c0-1.9,1.5-3.4,3.2-3.4h43.2c1.8,0,3.2,1.5,3.2,3.4v52
	C55.1,133.9,53.7,135.4,51.9,135.4z"/>
<path class="st1" d="M107,135.4H63.7c-1.8,0-3.2-1.5-3.2-3.4V80c0-1.9,1.5-3.4,3.2-3.4H107c1.8,0,3.2,1.5,3.2,3.4v52
	C110.2,133.9,108.7,135.4,107,135.4z"/>
<path class="st1" d="M162,135.4h-43.2c-1.8,0-3.2-1.5-3.2-3.4V80c0-1.9,1.5-3.4,3.2-3.4H162c1.8,0,3.2,1.5,3.2,3.4v52
	C165.2,133.9,163.8,135.4,162,135.4z"/>
<path class="st1" d="M51.9,200.7H8.7c-1.8,0-3.2-1.5-3.2-3.4v-52c0-1.9,1.5-3.4,3.2-3.4h43.2c1.8,0,3.2,1.5,3.2,3.4v52
	C55.1,199.2,53.7,200.7,51.9,200.7z"/>
<path class="st1" d="M107,200.7H63.7c-1.8,0-3.2-1.5-3.2-3.4v-52c0-1.9,1.5-3.4,3.2-3.4H107c1.8,0,3.2,1.5,3.2,3.4v52
	C110.2,199.2,108.7,200.7,107,200.7z"/>
<path class="st1" d="M162,200.7h-43.2c-1.8,0-3.2-1.5-3.2-3.4v-52c0-1.9,1.5-3.4,3.2-3.4H162c1.8,0,3.2,1.5,3.2,3.4v52
	C165.2,199.2,163.8,200.7,162,200.7z"/>
<path class="st2" d="M242.1,239.4h-65.5c-1.8,0-3.3-1.3-3.3-3V14.2c0-1.7,1.5-3,3.3-3h65.5c1.8,0,3.3,1.3,3.3,3v222.2
	C245.4,238.1,243.9,239.4,242.1,239.4z"/>
<path class="st3" d="M217.1,29c0,0.1-0.1,0.2-0.2,0.2l-0.8-0.1c-2.2-0.2-4.4-0.3-6.6-0.3h-0.1c-2.2,0-4.4,0.1-6.6,0.3l-0.8,0.1
	c-0.1,0-0.2-0.1-0.2-0.2l-0.8-9.5c0-0.1,0.1-0.3,0.3-0.2l4.6,2.3c0.1,0,0.2,0,0.2,0l3.1-3.9c0.1-0.1,0.2-0.1,0.3,0l3.1,3.9
	c0.1,0.1,0.1,0.1,0.2,0l4.6-2.3c0.1-0.1,0.3,0,0.3,0.2L217.1,29z M203.8,23l0.3,3.5c0,0.1,0.1,0.1,0.2,0.1c1.7-0.1,3.4-0.2,5.1-0.2
	c0,0,0,0,0,0c1.7,0,3.4,0.1,5.1,0.2c0.1,0,0.2-0.1,0.2-0.1l0.3-3.5c0-0.1-0.1-0.2-0.3-0.1l-2.7,1.2c-0.1,0-0.2,0-0.2,0l-2.4-2.7
	c-0.1-0.1-0.2-0.1-0.3,0l-2.4,2.7c-0.1,0.1-0.1,0.1-0.2,0l-2.7-1.2C203.9,22.8,203.7,22.9,203.8,23z"/>
</svg>
