<?xml version="1.0" encoding="utf-8"?>
<!-- Generator: Adobe Illustrator 23.0.0, SVG Export Plug-In . SVG Version: 6.00 Build 0)  -->
<svg version="1.1" id="Layer_1" xmlns="http://www.w3.org/2000/svg" xmlns:xlink="http://www.w3.org/1999/xlink" x="0px" y="0px"
	 viewBox="0 0 250 250" style="enable-background:new 0 0 250 250;" xml:space="preserve">
<style type="text/css">
	.st0{fill:#E9EAED;}
	.st1{opacity:0.43;fill:#FFFFFF;}
	.st2{fill:#A8B6C0;}
	.st3{fill:#FFFFFF;}
</style>
<rect class="st0" width="250" height="250"/>
<path class="st1" d="M118.77,70.06H73.3c-1.87,0-3.4-1.53-3.4-3.4V14.63c0-1.87,1.53-3.4,3.4-3.4h45.47c1.87,0,3.4,1.53,3.4,3.4
	v52.03C122.18,68.53,120.65,70.06,118.77,70.06z"/>
<path class="st1" d="M176.7,70.06h-45.47c-1.87,0-3.4-1.53-3.4-3.4V14.63c0-1.87,1.53-3.4,3.4-3.4h45.47c1.87,0,3.4,1.53,3.4,3.4
	v52.03C180.1,68.53,178.57,70.06,176.7,70.06z"/>
<path class="st1" d="M118.77,135.4H73.3c-1.87,0-3.4-1.53-3.4-3.4V79.97c0-1.87,1.53-3.4,3.4-3.4h45.47c1.87,0,3.4,1.53,3.4,3.4V132
	C122.18,133.87,120.65,135.4,118.77,135.4z"/>
<path class="st1" d="M176.7,135.4h-45.47c-1.87,0-3.4-1.53-3.4-3.4V79.97c0-1.87,1.53-3.4,3.4-3.4h45.47c1.87,0,3.4,1.53,3.4,3.4
	V132C180.1,133.87,178.57,135.4,176.7,135.4z"/>
<path class="st1" d="M118.77,200.74H73.3c-1.87,0-3.4-1.53-3.4-3.4V145.3c0-1.87,1.53-3.4,3.4-3.4h45.47c1.87,0,3.4,1.53,3.4,3.4
	v52.03C122.18,199.21,120.65,200.74,118.77,200.74z"/>
<path class="st1" d="M176.7,200.74h-45.47c-1.87,0-3.4-1.53-3.4-3.4V145.3c0-1.87,1.53-3.4,3.4-3.4h45.47c1.87,0,3.4,1.53,3.4,3.4
	v52.03C180.1,199.21,178.57,200.74,176.7,200.74z"/>
<path class="st2" d="M59.83,239.11H6.24c-1.66,0-3-1.34-3-3V13.89c0-1.66,1.34-3,3-3h53.59c1.66,0,3,1.34,3,3v222.22
	C62.83,237.77,61.49,239.11,59.83,239.11z"/>
<path class="st2" d="M242.39,239.11h-53.59c-1.66,0-3-1.34-3-3V13.89c0-1.66,1.34-3,3-3h53.59c1.66,0,3,1.34,3,3v222.22
	C245.39,237.77,244.05,239.11,242.39,239.11z"/>
<path class="st3" d="M40.72,28.55c-0.01,0.11-0.1,0.19-0.21,0.17l-0.82-0.08c-2.19-0.23-4.39-0.34-6.59-0.34l-0.08,0
	c-2.2,0-4.41,0.11-6.6,0.34l-0.78,0.08c-0.11,0.01-0.2-0.07-0.21-0.17l-0.82-9.5c-0.01-0.15,0.14-0.25,0.28-0.19l4.64,2.33
	c0.08,0.04,0.18,0.02,0.23-0.05l3.13-3.87c0.08-0.09,0.22-0.09,0.3,0l3.13,3.87c0.06,0.07,0.15,0.09,0.23,0.05l4.63-2.32
	c0.13-0.07,0.29,0.04,0.28,0.19L40.72,28.55z M27.4,22.57l0.33,3.49c0.01,0.09,0.09,0.15,0.19,0.14c1.7-0.13,3.42-0.2,5.12-0.2
	c0.01,0,0.02,0,0.03,0c1.71,0,3.43,0.07,5.14,0.2c0.09,0.01,0.18-0.06,0.19-0.14l0.3-3.5c0.01-0.12-0.13-0.21-0.25-0.15l-2.7,1.24
	c-0.07,0.03-0.16,0.02-0.21-0.04l-2.36-2.67c-0.07-0.08-0.2-0.08-0.27,0l-2.36,2.67c-0.05,0.06-0.14,0.07-0.21,0.04l-2.69-1.23
	C27.52,22.36,27.39,22.45,27.4,22.57z"/>
<path class="st3" d="M223.27,28.82c-0.01,0.11-0.1,0.19-0.21,0.17l-0.82-0.08c-2.19-0.23-4.39-0.34-6.59-0.34l-0.08,0
	c-2.2,0-4.41,0.11-6.6,0.34L208.19,29c-0.11,0.01-0.2-0.07-0.21-0.17l-0.82-9.5c-0.01-0.15,0.14-0.25,0.28-0.19l4.64,2.33
	c0.08,0.04,0.18,0.02,0.23-0.05l3.13-3.87c0.08-0.09,0.22-0.09,0.3,0l3.13,3.87c0.06,0.07,0.15,0.09,0.23,0.05l4.63-2.32
	c0.13-0.07,0.29,0.04,0.28,0.19L223.27,28.82z M209.94,22.84l0.33,3.49c0.01,0.09,0.09,0.15,0.19,0.14c1.7-0.13,3.42-0.2,5.12-0.2
	c0.01,0,0.02,0,0.03,0c1.71,0,3.43,0.07,5.14,0.2c0.09,0.01,0.18-0.06,0.19-0.14l0.3-3.5c0.01-0.12-0.13-0.21-0.25-0.15l-2.7,1.24
	c-0.07,0.03-0.16,0.02-0.21-0.04l-2.36-2.67c-0.07-0.08-0.2-0.08-0.27,0l-2.36,2.67c-0.05,0.06-0.14,0.07-0.21,0.04l-2.69-1.23
	C210.07,22.63,209.93,22.72,209.94,22.84z"/>
</svg>
