<?xml version="1.0" encoding="utf-8"?>
<!-- Generator: Adobe Illustrator 23.0.0, SVG Export Plug-In . SVG Version: 6.00 Build 0)  -->
<svg version="1.1" id="Layer_1" xmlns="http://www.w3.org/2000/svg" xmlns:xlink="http://www.w3.org/1999/xlink" x="0px" y="0px"
	 viewBox="0 0 250 250" style="enable-background:new 0 0 250 250;" xml:space="preserve">
<style type="text/css">
	.st0{fill:#E9EAED;}
	.st1{opacity:0.43;fill:#FFFFFF;enable-background:new    ;}
	.st2{fill:#A8B6C0;}
	.st3{fill:#FFFFFF;}
</style>
<rect y="0" class="st0" width="250" height="250"/>
<path class="st1" d="M131.9,70.1H88.7c-1.8,0-3.2-1.5-3.2-3.4v-52c0-1.9,1.5-3.4,3.2-3.4h43.2c1.8,0,3.2,1.5,3.2,3.4v52
	C135.1,68.5,133.7,70.1,131.9,70.1z"/>
<path class="st1" d="M187,70.1h-43.2c-1.8,0-3.2-1.5-3.2-3.4v-52c0-1.9,1.5-3.4,3.2-3.4H187c1.8,0,3.2,1.5,3.2,3.4v52
	C190.2,68.5,188.7,70.1,187,70.1z"/>
<path class="st1" d="M242,70.1h-43.2c-1.8,0-3.2-1.5-3.2-3.4v-52c0-1.9,1.5-3.4,3.2-3.4H242c1.8,0,3.2,1.5,3.2,3.4v52
	C245.2,68.5,243.8,70.1,242,70.1z"/>
<path class="st1" d="M131.9,135.4H88.7c-1.8,0-3.2-1.5-3.2-3.4V80c0-1.9,1.5-3.4,3.2-3.4h43.2c1.8,0,3.2,1.5,3.2,3.4v52
	C135.1,133.9,133.7,135.4,131.9,135.4z"/>
<path class="st1" d="M187,135.4h-43.2c-1.8,0-3.2-1.5-3.2-3.4V80c0-1.9,1.5-3.4,3.2-3.4H187c1.8,0,3.2,1.5,3.2,3.4v52
	C190.2,133.9,188.7,135.4,187,135.4z"/>
<path class="st1" d="M242,135.4h-43.2c-1.8,0-3.2-1.5-3.2-3.4V80c0-1.9,1.5-3.4,3.2-3.4H242c1.8,0,3.2,1.5,3.2,3.4v52
	C245.2,133.9,243.8,135.4,242,135.4z"/>
<path class="st1" d="M131.9,200.7H88.7c-1.8,0-3.2-1.5-3.2-3.4v-52c0-1.9,1.5-3.4,3.2-3.4h43.2c1.8,0,3.2,1.5,3.2,3.4v52
	C135.1,199.2,133.7,200.7,131.9,200.7z"/>
<path class="st1" d="M187,200.7h-43.2c-1.8,0-3.2-1.5-3.2-3.4v-52c0-1.9,1.5-3.4,3.2-3.4H187c1.8,0,3.2,1.5,3.2,3.4v52
	C190.2,199.2,188.7,200.7,187,200.7z"/>
<path class="st1" d="M242,200.7h-43.2c-1.8,0-3.2-1.5-3.2-3.4v-52c0-1.9,1.5-3.4,3.2-3.4H242c1.8,0,3.2,1.5,3.2,3.4v52
	C245.2,199.2,243.8,200.7,242,200.7z"/>
<path class="st2" d="M75.1,239.4H9.7c-1.8,0-3.3-1.3-3.3-3V14.2c0-1.7,1.5-3,3.3-3h65.5c1.8,0,3.3,1.3,3.3,3v222.2
	C78.4,238.1,76.9,239.4,75.1,239.4z"/>
<path class="st3" d="M50.1,29c0,0.1-0.1,0.2-0.2,0.2l-0.8-0.1c-2.2-0.2-4.4-0.3-6.6-0.3h-0.1c-2.2,0-4.4,0.1-6.6,0.3L35,29.1
	c-0.1,0-0.2-0.1-0.2-0.2L34,19.5c0-0.1,0.1-0.3,0.3-0.2l4.6,2.3c0.1,0,0.2,0,0.2,0l3.1-3.9c0.1-0.1,0.2-0.1,0.3,0l3.1,3.9
	c0.1,0.1,0.1,0.1,0.2,0l4.6-2.3c0.1-0.1,0.3,0,0.3,0.2L50.1,29z M36.8,23l0.3,3.5c0,0.1,0.1,0.1,0.2,0.1c1.7-0.1,3.4-0.2,5.1-0.2
	c0,0,0,0,0,0c1.7,0,3.4,0.1,5.1,0.2c0.1,0,0.2-0.1,0.2-0.1l0.3-3.5c0-0.1-0.1-0.2-0.3-0.1l-2.7,1.2c-0.1,0-0.2,0-0.2,0l-2.4-2.7
	c-0.1-0.1-0.2-0.1-0.3,0L39.9,24c-0.1,0.1-0.1,0.1-0.2,0L37,22.8C36.9,22.8,36.7,22.9,36.8,23z"/>
</svg>
