<?xml version="1.0" encoding="utf-8"?>
<!-- Generator: Adobe Illustrator 23.0.0, SVG Export Plug-In . SVG Version: 6.00 Build 0)  -->
<svg version="1.1" id="Layer_1" xmlns="http://www.w3.org/2000/svg" xmlns:xlink="http://www.w3.org/1999/xlink" x="0px" y="0px"
	 viewBox="0 0 500 120" style="enable-background:new 0 0 500 120;" xml:space="preserve">
<style type="text/css">
	.st0{fill:#E9EAED;}
	.st1{fill:#FFFFFF;}
	.st2{fill:#EDF0F3;}
	.st3{fill:#A8B6C0;stroke:#FFFFFF;stroke-miterlimit:10;}
	.st4{fill:#EDF0F3;stroke:#FFFFFF;stroke-miterlimit:10;}
</style>
<g>
	<rect class="st0" width="500" height="120"/>
</g>
<path class="st1" d="M380.29,48.09H121.24c-1.87,0-3.4-1.53-3.4-3.4V-9.45c0-1.87,1.53-3.4,3.4-3.4h259.05c1.87,0,3.4,1.53,3.4,3.4
	v54.13C383.69,46.55,382.16,48.09,380.29,48.09z"/>
<path class="st2" d="M375.24,44.09H126.29c-1.87,0-3.4-1.53-3.4-3.4V24.34c0-1.87,1.53-3.4,3.4-3.4h248.94c1.87,0,3.4,1.53,3.4,3.4
	v16.35C378.64,42.55,377.11,44.09,375.24,44.09z"/>
<path class="st1" d="M102.42,48.09h-259.05c-1.87,0-3.4-1.53-3.4-3.4V-9.45c0-1.87,1.53-3.4,3.4-3.4h259.05c1.87,0,3.4,1.53,3.4,3.4
	v54.13C105.82,46.55,104.29,48.09,102.42,48.09z"/>
<path class="st2" d="M97.37,48.09h-248.94c-1.87,0-3.4-1.53-3.4-3.4V28.34c0-1.87,1.53-3.4,3.4-3.4H97.37c1.87,0,3.4,1.53,3.4,3.4
	v16.35C100.77,46.55,99.24,48.09,97.37,48.09z"/>
<path class="st1" d="M105.14,48.09h-259.05c-1.87,0-3.4-1.53-3.4-3.4V-9.45c0-1.87,1.53-3.4,3.4-3.4h259.05c1.87,0,3.4,1.53,3.4,3.4
	v54.13C108.54,46.55,107.01,48.09,105.14,48.09z"/>
<path class="st2" d="M100.09,44.09h-248.94c-1.87,0-3.4-1.53-3.4-3.4V24.34c0-1.87,1.53-3.4,3.4-3.4h248.94c1.87,0,3.4,1.53,3.4,3.4
	v16.35C103.49,42.55,101.96,44.09,100.09,44.09z"/>
<path class="st1" d="M656.97,48.09H397.92c-1.87,0-3.4-1.53-3.4-3.4V-9.45c0-1.87,1.53-3.4,3.4-3.4h259.05c1.87,0,3.4,1.53,3.4,3.4
	v54.13C660.37,46.55,658.84,48.09,656.97,48.09z"/>
<path class="st2" d="M651.92,44.09H402.98c-1.87,0-3.4-1.53-3.4-3.4V24.34c0-1.87,1.53-3.4,3.4-3.4h248.94c1.87,0,3.4,1.53,3.4,3.4
	v16.35C655.32,42.55,653.79,44.09,651.92,44.09z"/>
<circle class="st3" cx="333.36" cy="80.42" r="13.79"/>
<circle class="st3" cx="300.32" cy="80.42" r="13.79"/>
<circle class="st3" cx="267.29" cy="80.42" r="13.79"/>
<circle class="st3" cx="234.25" cy="80.42" r="13.79"/>
<circle class="st3" cx="201.21" cy="80.42" r="13.79"/>
<circle class="st4" cx="168.17" cy="80.42" r="13.79"/>
<path class="st1" d="M337.62,81.17l-6.03,6.03c-0.42,0.42-1.09,0.42-1.5,0l-1-1c-0.42-0.42-0.42-1.09,0-1.5l4.27-4.27l-4.27-4.27
	c-0.42-0.42-0.42-1.09,0-1.5l1-1.01c0.42-0.42,1.09-0.42,1.5,0l6.03,6.03C338.04,80.08,338.04,80.75,337.62,81.17z"/>
</svg>
