<?xml version="1.0" encoding="utf-8"?>
<!-- Generator: Adobe Illustrator 23.0.0, SVG Export Plug-In . SVG Version: 6.00 Build 0)  -->
<svg version="1.1" id="Layer_1" xmlns="http://www.w3.org/2000/svg" xmlns:xlink="http://www.w3.org/1999/xlink" x="0px" y="0px"
	 viewBox="0 0 500 120" style="enable-background:new 0 0 500 120;" xml:space="preserve">
<style type="text/css">
	.st0{fill:#E9EAED;}
	.st1{fill:#252639;}
	.st2{opacity:0.72;fill:#FFFFFF;}
	.st3{fill:#FFFFFF;}
	.st4{fill:#EDF0F3;}
</style>
<g>
	<rect class="st0" width="500" height="120"/>
</g>
<path class="st1" d="M239.6,94.53h-93.28c-1.87,0-3.4-1.53-3.4-3.4V68.66c0-1.87,1.53-3.4,3.4-3.4h93.28c1.87,0,3.4,1.53,3.4,3.4
	v22.47C243,93,241.47,94.53,239.6,94.53z"/>
<path class="st2" d="M199.11,85.68h-32c-3.18,0-5.79-2.6-5.79-5.79v0c0-3.18,2.6-5.79,5.79-5.79h32c3.18,0,5.79,2.6,5.79,5.79v0
	C204.89,83.08,202.29,85.68,199.11,85.68z"/>
<path class="st1" d="M261.72,94.53H355c1.87,0,3.4-1.53,3.4-3.4V68.66c0-1.87-1.53-3.4-3.4-3.4h-93.28c-1.87,0-3.4,1.53-3.4,3.4
	v22.47C258.32,93,259.85,94.53,261.72,94.53z"/>
<path class="st3" d="M225.59,78.98l7.29-7.29c0.5-0.5,1.31-0.5,1.82,0l1.21,1.22c0.5,0.5,0.5,1.31,0,1.82l-5.17,5.17l5.17,5.17
	c0.5,0.5,0.5,1.31,0,1.82l-1.21,1.21c-0.5,0.5-1.31,0.5-1.82,0l-7.29-7.29C225.08,80.3,225.08,79.49,225.59,78.98z"/>
<path class="st2" d="M302.21,85.68h32c3.18,0,5.79-2.6,5.79-5.79v0c0-3.18-2.6-5.79-5.79-5.79h-32c-3.18,0-5.79,2.6-5.79,5.79v0
	C296.43,83.08,299.03,85.68,302.21,85.68z"/>
<path class="st3" d="M277.59,80.8l-7.29,7.29c-0.5,0.5-1.32,0.5-1.82,0l-1.21-1.21c-0.5-0.5-0.5-1.32,0-1.82l5.17-5.17l-5.17-5.17
	c-0.5-0.5-0.5-1.32,0-1.82l1.21-1.22c0.5-0.5,1.32-0.5,1.82,0l7.29,7.29C278.1,79.49,278.1,80.3,277.59,80.8z"/>
<path class="st3" d="M380.29,48.09H121.24c-1.87,0-3.4-1.53-3.4-3.4V-9.45c0-1.87,1.53-3.4,3.4-3.4h259.05c1.87,0,3.4,1.53,3.4,3.4
	v54.13C383.69,46.55,382.16,48.09,380.29,48.09z"/>
<path class="st4" d="M375.24,44.09H126.29c-1.87,0-3.4-1.53-3.4-3.4V24.34c0-1.87,1.53-3.4,3.4-3.4h248.94c1.87,0,3.4,1.53,3.4,3.4
	v16.35C378.64,42.55,377.11,44.09,375.24,44.09z"/>
<path class="st3" d="M102.42,48.09h-259.05c-1.87,0-3.4-1.53-3.4-3.4V-9.45c0-1.87,1.53-3.4,3.4-3.4h259.05c1.87,0,3.4,1.53,3.4,3.4
	v54.13C105.82,46.55,104.29,48.09,102.42,48.09z"/>
<path class="st4" d="M97.37,48.09h-248.94c-1.87,0-3.4-1.53-3.4-3.4V28.34c0-1.87,1.53-3.4,3.4-3.4H97.37c1.87,0,3.4,1.53,3.4,3.4
	v16.35C100.77,46.55,99.24,48.09,97.37,48.09z"/>
<path class="st3" d="M105.14,48.09h-259.05c-1.87,0-3.4-1.53-3.4-3.4V-9.45c0-1.87,1.53-3.4,3.4-3.4h259.05c1.87,0,3.4,1.53,3.4,3.4
	v54.13C108.54,46.55,107.01,48.09,105.14,48.09z"/>
<path class="st4" d="M100.09,44.09h-248.94c-1.87,0-3.4-1.53-3.4-3.4V24.34c0-1.87,1.53-3.4,3.4-3.4h248.94c1.87,0,3.4,1.53,3.4,3.4
	v16.35C103.49,42.55,101.96,44.09,100.09,44.09z"/>
<path class="st3" d="M656.97,48.09H397.92c-1.87,0-3.4-1.53-3.4-3.4V-9.45c0-1.87,1.53-3.4,3.4-3.4h259.05c1.87,0,3.4,1.53,3.4,3.4
	v54.13C660.37,46.55,658.84,48.09,656.97,48.09z"/>
<path class="st4" d="M651.92,44.09H402.98c-1.87,0-3.4-1.53-3.4-3.4V24.34c0-1.87,1.53-3.4,3.4-3.4h248.94c1.87,0,3.4,1.53,3.4,3.4
	v16.35C655.32,42.55,653.79,44.09,651.92,44.09z"/>
</svg>
