<?xml version="1.0" encoding="utf-8"?>
<!-- Generator: Adobe Illustrator 23.0.0, SVG Export Plug-In . SVG Version: 6.00 Build 0)  -->
<svg version="1.1" id="Layer_1" xmlns="http://www.w3.org/2000/svg" xmlns:xlink="http://www.w3.org/1999/xlink" x="0px" y="0px"
	 viewBox="0 0 500 120" style="enable-background:new 0 0 500 120;" xml:space="preserve">
<style type="text/css">
	.st0{fill:#E9EAED;}
	.st1{fill:#FFFFFF;}
	.st2{fill:#EDF0F3;}
	.st3{fill:#A8B6C0;stroke:#FFFFFF;stroke-miterlimit:10;}
</style>
<g>
	<rect class="st0" width="500" height="120"/>
</g>
<path class="st1" d="M380.29,48.09H121.24c-1.87,0-3.4-1.53-3.4-3.4V-9.45c0-1.87,1.53-3.4,3.4-3.4h259.05c1.87,0,3.4,1.53,3.4,3.4
	v54.13C383.69,46.55,382.16,48.09,380.29,48.09z"/>
<path class="st2" d="M375.24,44.09H126.29c-1.87,0-3.4-1.53-3.4-3.4V24.34c0-1.87,1.53-3.4,3.4-3.4h248.94c1.87,0,3.4,1.53,3.4,3.4
	v16.35C378.64,42.55,377.11,44.09,375.24,44.09z"/>
<path class="st1" d="M102.42,48.09h-259.05c-1.87,0-3.4-1.53-3.4-3.4V-9.45c0-1.87,1.53-3.4,3.4-3.4h259.05c1.87,0,3.4,1.53,3.4,3.4
	v54.13C105.82,46.55,104.29,48.09,102.42,48.09z"/>
<path class="st2" d="M97.37,48.09h-248.94c-1.87,0-3.4-1.53-3.4-3.4V28.34c0-1.87,1.53-3.4,3.4-3.4H97.37c1.87,0,3.4,1.53,3.4,3.4
	v16.35C100.77,46.55,99.24,48.09,97.37,48.09z"/>
<path class="st1" d="M105.14,48.09h-259.05c-1.87,0-3.4-1.53-3.4-3.4V-9.45c0-1.87,1.53-3.4,3.4-3.4h259.05c1.87,0,3.4,1.53,3.4,3.4
	v54.13C108.54,46.55,107.01,48.09,105.14,48.09z"/>
<path class="st2" d="M100.09,44.09h-248.94c-1.87,0-3.4-1.53-3.4-3.4V24.34c0-1.87,1.53-3.4,3.4-3.4h248.94c1.87,0,3.4,1.53,3.4,3.4
	v16.35C103.49,42.55,101.96,44.09,100.09,44.09z"/>
<path class="st1" d="M656.97,48.09H397.92c-1.87,0-3.4-1.53-3.4-3.4V-9.45c0-1.87,1.53-3.4,3.4-3.4h259.05c1.87,0,3.4,1.53,3.4,3.4
	v54.13C660.37,46.55,658.84,48.09,656.97,48.09z"/>
<path class="st2" d="M651.92,44.09H402.98c-1.87,0-3.4-1.53-3.4-3.4V24.34c0-1.87,1.53-3.4,3.4-3.4h248.94c1.87,0,3.4,1.53,3.4,3.4
	v16.35C655.32,42.55,653.79,44.09,651.92,44.09z"/>
<path class="st3" d="M327.12,95.57h-152.7c-2.75,0-5-2.25-5-5V72.99c0-2.75,2.25-5,5-5h152.7c2.75,0,5,2.25,5,5v17.57
	C332.12,93.32,329.87,95.57,327.12,95.57z"/>
<path class="st1" d="M252.06,88.87l-8.06-8.06c-0.56-0.56-0.56-1.46,0-2.01l1.34-1.34c0.56-0.56,1.46-0.56,2.01,0l5.72,5.72
	l5.72-5.72c0.56-0.56,1.46-0.56,2.01,0l1.35,1.33c0.56,0.56,0.56,1.46,0,2.01l-8.06,8.06C253.51,89.43,252.61,89.43,252.06,88.87z"
	/>
</svg>
