<?xml version="1.0" encoding="utf-8"?>
<!-- Generator: Adobe Illustrator 23.0.0, SVG Export Plug-In . SVG Version: 6.00 Build 0)  -->
<svg version="1.1" id="Layer_1" xmlns="http://www.w3.org/2000/svg" xmlns:xlink="http://www.w3.org/1999/xlink" x="0px" y="0px"
	 viewBox="0 0 160 140" style="enable-background:new 0 0 160 140;" xml:space="preserve">
<style type="text/css">
	.st0{fill:#E9EAED;}
	.st1{fill:#A8B6C0;}
</style>
<rect y="0" class="st0" width="160" height="140"/>
<g>
	<path class="st1" d="M98.3,69.6c-1.1,0-2-1.2-2-2.6V43c0-1.5,0.9-2.6,2-2.6h22.4c1.1,0,2,1.2,2,2.6v24c0,1.4-0.9,2.6-2,2.6H98.3z"
		/>
	<path class="st0" d="M120.7,40.7c1,0,1.7,1,1.7,2.3v24c0,1.2-0.8,2.3-1.7,2.3H98.3c-1,0-1.7-1-1.7-2.3V43c0-1.2,0.8-2.3,1.7-2.3
		H120.7 M120.7,40H98.3C97,40,96,41.3,96,43v24c0,1.7,1,3,2.3,3h22.4c1.3,0,2.3-1.3,2.3-3V43C123,41.3,122,40,120.7,40L120.7,40z"/>
</g>
<g>
	<path class="st1" d="M125.3,69.6c-1.1,0-2-1.2-2-2.6V43c0-1.5,0.9-2.6,2-2.6h22.4c1.1,0,2,1.2,2,2.6v24c0,1.4-0.9,2.6-2,2.6H125.3z
		"/>
	<path class="st0" d="M147.7,40.7c1,0,1.7,1,1.7,2.3v24c0,1.2-0.8,2.3-1.7,2.3h-22.4c-1,0-1.7-1-1.7-2.3V43c0-1.2,0.8-2.3,1.7-2.3
		H147.7 M147.7,40h-22.4c-1.3,0-2.3,1.3-2.3,3v24c0,1.7,1,3,2.3,3h22.4c1.3,0,2.3-1.3,2.3-3V43C150,41.3,149,40,147.7,40L147.7,40z"
		/>
</g>
<g>
	<path class="st1" d="M98.3,99.6c-1.1,0-2-1.2-2-2.6V73c0-1.4,0.9-2.6,2-2.6h22.4c1.1,0,2,1.2,2,2.6v24c0,1.4-0.9,2.6-2,2.6H98.3z"
		/>
	<path class="st0" d="M120.7,70.7c1,0,1.7,1,1.7,2.3v24c0,1.2-0.8,2.3-1.7,2.3H98.3c-1,0-1.7-1-1.7-2.3V73c0-1.2,0.8-2.3,1.7-2.3
		H120.7 M120.7,70H98.3C97,70,96,71.3,96,73v24c0,1.7,1,3,2.3,3h22.4c1.3,0,2.3-1.3,2.3-3V73C123,71.3,122,70,120.7,70L120.7,70z"/>
</g>
<g>
	<path class="st1" d="M125.3,99.6c-1.1,0-2-1.2-2-2.6V73c0-1.4,0.9-2.6,2-2.6h22.4c1.1,0,2,1.2,2,2.6v24c0,1.4-0.9,2.6-2,2.6H125.3z
		"/>
	<path class="st0" d="M147.7,70.7c1,0,1.7,1,1.7,2.3v24c0,1.2-0.8,2.3-1.7,2.3h-22.4c-1,0-1.7-1-1.7-2.3V73c0-1.2,0.8-2.3,1.7-2.3
		H147.7 M147.7,70h-22.4c-1.3,0-2.3,1.3-2.3,3v24c0,1.7,1,3,2.3,3h22.4c1.3,0,2.3-1.3,2.3-3V73C150,71.3,149,70,147.7,70L147.7,70z"
		/>
</g>
<g>
	<path class="st1" d="M13.7,99.6c-1.8,0-3.2-1.2-3.2-2.6V43c0-1.5,1.4-2.6,3.2-2.6h78.6c1.8,0,3.2,1.2,3.2,2.6v54
		c0,1.4-1.4,2.6-3.2,2.6H13.7z"/>
	<path class="st0" d="M92.3,40.7c1.5,0,2.8,1,2.8,2.3v54c0,1.2-1.2,2.3-2.8,2.3H13.7c-1.5,0-2.8-1-2.8-2.3V43c0-1.2,1.2-2.3,2.8-2.3
		H92.3 M92.3,40H13.7c-2,0-3.7,1.3-3.7,3v54c0,1.7,1.6,3,3.7,3h78.6c2,0,3.7-1.3,3.7-3V43C96,41.3,94.4,40,92.3,40L92.3,40z"/>
</g>
</svg>
