<?xml version="1.0" encoding="utf-8"?>
<!-- Generator: Adobe Illustrator 23.0.0, SVG Export Plug-In . SVG Version: 6.00 Build 0)  -->
<svg version="1.1" id="Layer_1" xmlns="http://www.w3.org/2000/svg" xmlns:xlink="http://www.w3.org/1999/xlink" x="0px" y="0px"
	 viewBox="0 0 160 140" style="enable-background:new 0 0 160 140;" xml:space="preserve">
<style type="text/css">
	.st0{fill:#E9EAED;}
	.st1{fill:#A8B6C0;}
</style>
<rect class="st0" width="160" height="140"/>
<g>
	<path class="st1" d="M108,99.63c-1.45,0-2.63-1.18-2.63-2.63V43c0-1.45,1.18-2.63,2.63-2.63h44c1.45,0,2.63,1.18,2.63,2.63v54
		c0,1.45-1.18,2.63-2.63,2.63H108z"/>
	<path class="st0" d="M152,40.75c1.24,0,2.25,1.01,2.25,2.25v54c0,1.24-1.01,2.25-2.25,2.25h-44c-1.24,0-2.25-1.01-2.25-2.25V43
		c0-1.24,1.01-2.25,2.25-2.25H152 M152,40h-44c-1.66,0-3,1.34-3,3v54c0,1.66,1.34,3,3,3h44c1.66,0,3-1.34,3-3V43
		C155,41.34,153.66,40,152,40L152,40z"/>
</g>
<g>
	<path class="st1" d="M58,99.63c-1.45,0-2.63-1.18-2.63-2.63V43c0-1.45,1.18-2.63,2.63-2.63h44c1.45,0,2.63,1.18,2.63,2.63v54
		c0,1.45-1.18,2.63-2.63,2.63H58z"/>
	<path class="st0" d="M102,40.75c1.24,0,2.25,1.01,2.25,2.25v54c0,1.24-1.01,2.25-2.25,2.25H58c-1.24,0-2.25-1.01-2.25-2.25V43
		c0-1.24,1.01-2.25,2.25-2.25H102 M102,40H58c-1.66,0-3,1.34-3,3v54c0,1.66,1.34,3,3,3h44c1.66,0,3-1.34,3-3V43
		C105,41.34,103.66,40,102,40L102,40z"/>
</g>
<g>
	<path class="st1" d="M8,99.63c-1.45,0-2.63-1.18-2.63-2.63V43c0-1.45,1.18-2.63,2.63-2.63h44c1.45,0,2.63,1.18,2.63,2.63v54
		c0,1.45-1.18,2.63-2.63,2.63H8z"/>
	<path class="st0" d="M52,40.75c1.24,0,2.25,1.01,2.25,2.25v54c0,1.24-1.01,2.25-2.25,2.25H8c-1.24,0-2.25-1.01-2.25-2.25V43
		c0-1.24,1.01-2.25,2.25-2.25H52 M52,40H8c-1.66,0-3,1.34-3,3v54c0,1.66,1.34,3,3,3h44c1.66,0,3-1.34,3-3V43
		C55,41.34,53.66,40,52,40L52,40z"/>
</g>
</svg>
