<?xml version="1.0" encoding="utf-8"?>
<!-- Generator: Adobe Illustrator 23.0.0, SVG Export Plug-In . SVG Version: 6.00 Build 0)  -->
<svg version="1.1" id="Layer_1" xmlns="http://www.w3.org/2000/svg" xmlns:xlink="http://www.w3.org/1999/xlink" x="0px" y="0px"
	 viewBox="0 0 160 140" style="enable-background:new 0 0 160 140;" xml:space="preserve">
<style type="text/css">
	.st0{fill:#E9EAED;}
	.st1{fill:#A8B6C0;}
</style>
<rect class="st0" width="160" height="140"/>
<g>
	<path class="st1" d="M13,79.63c-1.45,0-2.63-1.18-2.63-2.63V28c0-1.45,1.18-2.63,2.63-2.63h134c1.45,0,2.63,1.18,2.63,2.63v49
		c0,1.45-1.18,2.63-2.63,2.63H13z"/>
	<path class="st0" d="M147,25.75c1.24,0,2.25,1.01,2.25,2.25v49c0,1.24-1.01,2.25-2.25,2.25H13c-1.24,0-2.25-1.01-2.25-2.25V28
		c0-1.24,1.01-2.25,2.25-2.25H147 M147,25H13c-1.66,0-3,1.34-3,3v49c0,1.66,1.34,3,3,3h134c1.66,0,3-1.34,3-3V28
		C150,26.34,148.66,25,147,25L147,25z"/>
</g>
<g>
	<path class="st1" d="M13,109.63c-1.45,0-2.63-1.18-2.63-2.63V83c0-1.45,1.18-2.63,2.63-2.63h29c1.45,0,2.63,1.18,2.63,2.63v24
		c0,1.45-1.18,2.63-2.63,2.63H13z"/>
	<path class="st0" d="M42,80.75c1.24,0,2.25,1.01,2.25,2.25v24c0,1.24-1.01,2.25-2.25,2.25H13c-1.24,0-2.25-1.01-2.25-2.25V83
		c0-1.24,1.01-2.25,2.25-2.25H42 M42,80H13c-1.66,0-3,1.34-3,3v24c0,1.66,1.34,3,3,3h29c1.66,0,3-1.34,3-3V83
		C45,81.34,43.66,80,42,80L42,80z"/>
</g>
<g>
	<path class="st1" d="M48,109.63c-1.45,0-2.63-1.18-2.63-2.63V83c0-1.45,1.18-2.63,2.63-2.63h29c1.45,0,2.63,1.18,2.63,2.63v24
		c0,1.45-1.18,2.63-2.63,2.63H48z"/>
	<path class="st0" d="M77,80.75c1.24,0,2.25,1.01,2.25,2.25v24c0,1.24-1.01,2.25-2.25,2.25H48c-1.24,0-2.25-1.01-2.25-2.25V83
		c0-1.24,1.01-2.25,2.25-2.25H77 M77,80H48c-1.66,0-3,1.34-3,3v24c0,1.66,1.34,3,3,3h29c1.66,0,3-1.34,3-3V83
		C80,81.34,78.66,80,77,80L77,80z"/>
</g>
<g>
	<path class="st1" d="M83,109.63c-1.45,0-2.63-1.18-2.63-2.63V83c0-1.45,1.18-2.63,2.63-2.63h29c1.45,0,2.63,1.18,2.63,2.63v24
		c0,1.45-1.18,2.63-2.63,2.63H83z"/>
	<path class="st0" d="M112,80.75c1.24,0,2.25,1.01,2.25,2.25v24c0,1.24-1.01,2.25-2.25,2.25H83c-1.24,0-2.25-1.01-2.25-2.25V83
		c0-1.24,1.01-2.25,2.25-2.25H112 M112,80H83c-1.66,0-3,1.34-3,3v24c0,1.66,1.34,3,3,3h29c1.66,0,3-1.34,3-3V83
		C115,81.34,113.66,80,112,80L112,80z"/>
</g>
<g>
	<path class="st1" d="M118,109.63c-1.45,0-2.63-1.18-2.63-2.63V83c0-1.45,1.18-2.63,2.63-2.63h29c1.45,0,2.63,1.18,2.63,2.63v24
		c0,1.45-1.18,2.63-2.63,2.63H118z"/>
	<path class="st0" d="M147,80.75c1.24,0,2.25,1.01,2.25,2.25v24c0,1.24-1.01,2.25-2.25,2.25h-29c-1.24,0-2.25-1.01-2.25-2.25V83
		c0-1.24,1.01-2.25,2.25-2.25H147 M147,80h-29c-1.66,0-3,1.34-3,3v24c0,1.66,1.34,3,3,3h29c1.66,0,3-1.34,3-3V83
		C150,81.34,148.66,80,147,80L147,80z"/>
</g>
</svg>
