<?xml version="1.0" encoding="utf-8"?>
<!-- Generator: Adobe Illustrator 23.0.0, SVG Export Plug-In . SVG Version: 6.00 Build 0)  -->
<svg version="1.1" id="Layer_1" xmlns="http://www.w3.org/2000/svg" xmlns:xlink="http://www.w3.org/1999/xlink" x="0px" y="0px"
	 viewBox="0 0 160 140" style="enable-background:new 0 0 160 140;" xml:space="preserve">
<style type="text/css">
	.st0{fill:#E9EAED;}
	.st1{fill:#A8B6C0;}
</style>
<rect class="st0" width="160" height="140"/>
<g>
	<path class="st1" d="M64.3,99.6c-0.9,0-1.6-1.2-1.6-2.6V43c0-1.5,0.7-2.6,1.6-2.6h26.4c0.9,0,1.6,1.2,1.6,2.6v54
		c0,1.4-0.7,2.6-1.6,2.6H64.3z"/>
	<path class="st0" d="M90.7,40.7c0.7,0,1.4,1,1.4,2.3v54c0,1.2-0.6,2.3-1.4,2.3H64.3c-0.7,0-1.4-1-1.4-2.3V43c0-1.2,0.6-2.3,1.4-2.3
		H90.7 M90.7,40H64.3c-1,0-1.8,1.3-1.8,3v54c0,1.7,0.8,3,1.8,3h26.4c1,0,1.8-1.3,1.8-3V43C92.5,41.3,91.7,40,90.7,40L90.7,40z"/>
</g>
<g>
	<path class="st1" d="M94.3,99.6c-0.9,0-1.6-1.2-1.6-2.6V43c0-1.5,0.7-2.6,1.6-2.6h26.4c0.9,0,1.6,1.2,1.6,2.6v54
		c0,1.4-0.7,2.6-1.6,2.6H94.3z"/>
	<path class="st0" d="M120.7,40.7c0.7,0,1.4,1,1.4,2.3v54c0,1.2-0.6,2.3-1.4,2.3H94.3c-0.7,0-1.4-1-1.4-2.3V43
		c0-1.2,0.6-2.3,1.4-2.3H120.7 M120.7,40H94.3c-1,0-1.8,1.3-1.8,3v54c0,1.7,0.8,3,1.8,3h26.4c1,0,1.8-1.3,1.8-3V43
		C122.5,41.3,121.7,40,120.7,40L120.7,40z"/>
</g>
<g>
	<path class="st1" d="M124.3,99.6c-0.9,0-1.6-1.2-1.6-2.6V43c0-1.5,0.7-2.6,1.6-2.6h26.4c0.9,0,1.6,1.2,1.6,2.6v54
		c0,1.4-0.7,2.6-1.6,2.6H124.3z"/>
	<path class="st0" d="M150.7,40.7c0.7,0,1.4,1,1.4,2.3v54c0,1.2-0.6,2.3-1.4,2.3h-26.4c-0.7,0-1.4-1-1.4-2.3V43
		c0-1.2,0.6-2.3,1.4-2.3H150.7 M150.7,40h-26.4c-1,0-1.8,1.3-1.8,3v54c0,1.7,0.8,3,1.8,3h26.4c1,0,1.8-1.3,1.8-3V43
		C152.5,41.3,151.7,40,150.7,40L150.7,40z"/>
</g>
<g>
	<path class="st1" d="M10.8,99.6c-1.6,0-2.9-1.2-2.9-2.6V43c0-1.5,1.3-2.6,2.9-2.6h48.4c1.6,0,2.9,1.2,2.9,2.6v54
		c0,1.4-1.3,2.6-2.9,2.6H10.8z"/>
	<path class="st0" d="M59.2,40.7c1.4,0,2.5,1,2.5,2.3v54c0,1.2-1.1,2.3-2.5,2.3H10.8c-1.4,0-2.5-1-2.5-2.3V43c0-1.2,1.1-2.3,2.5-2.3
		H59.2 M59.2,40H10.8c-1.8,0-3.3,1.3-3.3,3v54c0,1.7,1.5,3,3.3,3h48.4c1.8,0,3.3-1.3,3.3-3V43C62.5,41.3,61,40,59.2,40L59.2,40z"/>
</g>
</svg>
