<?xml version="1.0" encoding="utf-8"?>
<!-- Generator: Adobe Illustrator 23.0.0, SVG Export Plug-In . SVG Version: 6.00 Build 0)  -->
<svg version="1.1" id="Layer_1" xmlns="http://www.w3.org/2000/svg" xmlns:xlink="http://www.w3.org/1999/xlink" x="0px" y="0px"
	 viewBox="0 0 230 175" style="enable-background:new 0 0 230 175;" xml:space="preserve">
<style type="text/css">
	.st0{fill:#EAEAEC;}
	.st1{fill:#FFFFFF;}
	.st2{fill:#EDF0F3;}
	.st3{fill:#A8B6C0;}
	.st4{fill:#EAEAEA;}
</style>
<rect class="st0" width="230" height="175"/>
<path class="st1" d="M200.1,142.4h-59.6c-5.6,0-10.2-4.6-10.2-10.2V49.5c0-5.6,4.6-10.2,10.2-10.2h59.6c5.6,0,10.2,4.6,10.2,10.2
	v82.7C210.3,137.9,205.7,142.4,200.1,142.4z"/>
<g>
	<path class="st1" d="M16.9,11.6v-1c0-0.2-0.2-0.2-0.2-0.2l-1.4,1l-0.8-1c-0.1-0.1-0.2-0.1-0.2,0l-0.8,1l-1.4-1
		c-0.1-0.1-0.2,0-0.2,0.2v1c0,1.5,1.2,2.7,2.7,2.7c0.1,0,0.2,0,0.3,0v3.1c2.7,0,3-2.4,3-3.2c0-0.2-0.2-0.2-0.2-0.2l-2.1,1.3v-1.2
		C16.1,13.8,16.9,12.8,16.9,11.6z"/>
	<path class="st1" d="M11.2,14.2c0,0.8,0.3,3.2,3,3.2v-1.8L11.5,14C11.4,14,11.2,14.1,11.2,14.2z"/>
</g>
<path class="st1" d="M106.4,108.9H28.1c-2.7,0-4.9-2.2-4.9-4.9V77.8c0-2.7,2.2-4.9,4.9-4.9h78.4c2.7,0,4.9,2.2,4.9,4.9V104
	C111.4,106.7,109.1,108.9,106.4,108.9z"/>
<path class="st2" d="M198.2,57.9h-55.8c-2.2,0-4.1-1.8-4.1-4.1v-1.5c0-2.2,1.8-4.1,4.1-4.1h55.8c2.2,0,4.1,1.8,4.1,4.1v1.5
	C202.3,56,200.4,57.9,198.2,57.9z"/>
<path class="st2" d="M198.2,72.5h-55.8c-2.2,0-4.1-1.8-4.1-4.1v-1.5c0-2.2,1.8-4.1,4.1-4.1h55.8c2.2,0,4.1,1.8,4.1,4.1v1.5
	C202.3,70.7,200.4,72.5,198.2,72.5z"/>
<path class="st3" d="M198.2,98.3h-55.8c-2.2,0-4.1-1.8-4.1-4.1v-1.5c0-2.2,1.8-4.1,4.1-4.1h55.8c2.2,0,4.1,1.8,4.1,4.1v1.5
	C202.3,96.5,200.4,98.3,198.2,98.3z"/>
<path class="st2" d="M162.6,83.7h-21.1c-1.7,0-3.1-1.4-3.1-3.1v0c0-1.7,1.4-3.1,3.1-3.1h21.1c1.7,0,3.1,1.4,3.1,3.1v0
	C165.7,82.3,164.3,83.7,162.6,83.7z"/>
<path class="st2" d="M162.6,109.6h-21.1c-1.7,0-3.1-1.4-3.1-3.1v0c0-1.7,1.4-3.1,3.1-3.1h21.1c1.7,0,3.1,1.4,3.1,3.1v0
	C165.7,108.1,164.3,109.6,162.6,109.6z"/>
<path class="st2" d="M194.9,135.7h-49.3c-4,0-7.3-3.3-7.3-7.3v-6.5c0-4,3.3-7.3,7.3-7.3h49.3c4,0,7.3,3.3,7.3,7.3v6.5
	C202.3,132.4,199,135.7,194.9,135.7z"/>
<path class="st2" d="M192.2,109.6h-21.1c-1.7,0-3.1-1.4-3.1-3.1v0c0-1.7,1.4-3.1,3.1-3.1h21.1c1.7,0,3.1,1.4,3.1,3.1v0
	C195.3,108.1,193.9,109.6,192.2,109.6z"/>
<path class="st4" d="M67.2,89l1,1.3l1,1.3l1.3-0.9l2.1-1.4v4.6H61.9v-4.6l2.1,1.4l1.3,0.9l1-1.3L67.2,89 M74.3,86.2l-4.7,3.1
	l-2.3-3.1l-2.3,3.1l-4.7-3.1v9.4h14.1v-1.5L74.3,86.2z"/>
</svg>
