<?xml version="1.0" encoding="utf-8"?>
<!-- Generator: Adobe Illustrator 23.0.0, SVG Export Plug-In . SVG Version: 6.00 Build 0)  -->
<svg version="1.1" id="Layer_1" xmlns="http://www.w3.org/2000/svg" xmlns:xlink="http://www.w3.org/1999/xlink" x="0px" y="0px"
	 viewBox="0 0 230 175" style="enable-background:new 0 0 230 175;" xml:space="preserve">
<style type="text/css">
	.st0{fill:#EAEAEC;}
	.st1{fill:#FFFFFF;}
	.st2{fill:#E3E6E9;}
	.st3{fill:#EDF0F3;}
	.st4{fill:#A8B6C0;}
</style>
<rect class="st0" width="230" height="175"/>
<path class="st1" d="M190.1,142.9H39.9c-5.6,0-10.2-4.6-10.2-10.2V42.3c0-5.6,4.6-10.2,10.2-10.2h150.3c5.6,0,10.2,4.6,10.2,10.2
	v90.3C200.3,138.3,195.7,142.9,190.1,142.9z"/>
<g>
	<path class="st1" d="M16.9,11.6v-1c0-0.2-0.2-0.2-0.2-0.2l-1.4,1l-0.8-1c-0.1-0.1-0.2-0.1-0.2,0l-0.8,1l-1.4-1
		c-0.1-0.1-0.2,0-0.2,0.2v1c0,1.5,1.2,2.7,2.7,2.7c0.1,0,0.2,0,0.3,0v3.1c2.7,0,3-2.4,3-3.2c0-0.2-0.2-0.2-0.2-0.2l-2.1,1.3v-1.2
		C16.1,13.8,16.9,12.8,16.9,11.6z"/>
	<path class="st1" d="M11.2,14.2c0,0.8,0.3,3.2,3,3.2v-1.8L11.5,14C11.4,14,11.2,14.1,11.2,14.2z"/>
</g>
<path class="st2" d="M112.5,135.8H46c-4.7,0-8.5-3.8-8.5-8.5V47.7c0-4.7,3.8-8.5,8.5-8.5h66.5c4.7,0,8.5,3.8,8.5,8.5v79.5
	C121,132,117.2,135.8,112.5,135.8z"/>
<path class="st3" d="M189.2,57.9h-55.8c-2.2,0-4.1-1.8-4.1-4.1v-1.5c0-2.2,1.8-4.1,4.1-4.1h55.8c2.2,0,4.1,1.8,4.1,4.1v1.5
	C193.3,56,191.4,57.9,189.2,57.9z"/>
<path class="st3" d="M189.2,72.5h-55.8c-2.2,0-4.1-1.8-4.1-4.1v-1.5c0-2.2,1.8-4.1,4.1-4.1h55.8c2.2,0,4.1,1.8,4.1,4.1v1.5
	C193.3,70.7,191.4,72.5,189.2,72.5z"/>
<path class="st4" d="M189.2,98.3h-55.8c-2.2,0-4.1-1.8-4.1-4.1v-1.5c0-2.2,1.8-4.1,4.1-4.1h55.8c2.2,0,4.1,1.8,4.1,4.1v1.5
	C193.3,96.5,191.4,98.3,189.2,98.3z"/>
<path class="st3" d="M153.6,83.7h-21.1c-1.7,0-3.1-1.4-3.1-3.1v0c0-1.7,1.4-3.1,3.1-3.1h21.1c1.7,0,3.1,1.4,3.1,3.1v0
	C156.7,82.3,155.3,83.7,153.6,83.7z"/>
<path class="st3" d="M153.6,109.6h-21.1c-1.7,0-3.1-1.4-3.1-3.1v0c0-1.7,1.4-3.1,3.1-3.1h21.1c1.7,0,3.1,1.4,3.1,3.1v0
	C156.7,108.1,155.3,109.6,153.6,109.6z"/>
<path class="st3" d="M186,135.7h-49.3c-4,0-7.3-3.3-7.3-7.3v-6.5c0-4,3.3-7.3,7.3-7.3H186c4,0,7.3,3.3,7.3,7.3v6.5
	C193.3,132.4,190,135.7,186,135.7z"/>
<path class="st3" d="M183.2,109.6h-21.1c-1.7,0-3.1-1.4-3.1-3.1v0c0-1.7,1.4-3.1,3.1-3.1h21.1c1.7,0,3.1,1.4,3.1,3.1v0
	C186.4,108.1,185,109.6,183.2,109.6z"/>
<path class="st1" d="M79.2,85.6l1,1.3l1,1.3l1.3-0.9l2.1-1.4v4.6H73.9v-4.6l2.1,1.4l1.3,0.9l1-1.3L79.2,85.6 M86.3,82.8l-4.7,3.1
	l-2.3-3.1l-2.3,3.1l-4.7-3.1v9.4h14.1v-1.5L86.3,82.8z"/>
</svg>
