<?xml version="1.0" encoding="utf-8"?>
<!-- Generator: Adobe Illustrator 23.0.0, SVG Export Plug-In . SVG Version: 6.00 Build 0)  -->
<svg version="1.1" id="Layer_1" xmlns="http://www.w3.org/2000/svg" xmlns:xlink="http://www.w3.org/1999/xlink" x="0px" y="0px"
	 viewBox="0 0 230 175" style="enable-background:new 0 0 230 175;" xml:space="preserve">
<style type="text/css">
	.st0{fill:#EAEAEC;}
	.st1{fill:#FFFFFF;}
	.st2{fill:#EDF0F3;}
	.st3{fill:#A8B6C0;}
	.st4{fill:#EAEAE9;}
</style>
<rect class="st0" width="230" height="175"/>
<path class="st1" d="M190.1,151H39.9c-5.6,0-10.2-4.6-10.2-10.2V58.1c0-5.6,4.6-10.2,10.2-10.2h150.3c5.6,0,10.2,4.6,10.2,10.2v82.7
	C200.3,146.4,195.7,151,190.1,151z"/>
<g>
	<path class="st1" d="M16.9,11.6v-1c0-0.2-0.2-0.2-0.2-0.2l-1.4,1l-0.8-1c-0.1-0.1-0.2-0.1-0.2,0l-0.8,1l-1.4-1
		c-0.1-0.1-0.2,0-0.2,0.2v1c0,1.5,1.2,2.7,2.7,2.7c0.1,0,0.2,0,0.3,0v3.1c2.7,0,3-2.4,3-3.2c0-0.2-0.2-0.2-0.2-0.2l-2.1,1.3v-1.2
		C16.1,13.8,16.9,12.8,16.9,11.6z"/>
	<path class="st1" d="M11.2,14.2c0,0.8,0.3,3.2,3,3.2v-1.8L11.5,14C11.4,14,11.2,14.1,11.2,14.2z"/>
</g>
<path class="st1" d="M195.4,40.2H35.6c-2.7,0-4.9-2.2-4.9-4.9V18.8c0-2.7,2.2-4.9,4.9-4.9h159.8c2.7,0,4.9,2.2,4.9,4.9v16.4
	C200.3,38,198.1,40.2,195.4,40.2z"/>
<path class="st2" d="M181.3,65.4H48.7c-2.2,0-4.1-1.8-4.1-4.1v-1.5c0-2.2,1.8-4.1,4.1-4.1h132.6c2.2,0,4.1,1.8,4.1,4.1v1.5
	C185.4,63.5,183.5,65.4,181.3,65.4z"/>
<path class="st2" d="M181.3,80H48.7c-2.2,0-4.1-1.8-4.1-4.1v-1.5c0-2.2,1.8-4.1,4.1-4.1h132.6c2.2,0,4.1,1.8,4.1,4.1v1.5
	C185.4,78.1,183.5,80,181.3,80z"/>
<path class="st3" d="M181.3,105.8H48.7c-2.2,0-4.1-1.8-4.1-4.1v-1.5c0-2.2,1.8-4.1,4.1-4.1h132.6c2.2,0,4.1,1.8,4.1,4.1v1.5
	C185.4,104,183.5,105.8,181.3,105.8z"/>
<path class="st2" d="M68.9,91.2H47.8c-1.7,0-3.1-1.4-3.1-3.1l0,0c0-1.7,1.4-3.1,3.1-3.1h21.1c1.7,0,3.1,1.4,3.1,3.1l0,0
	C72,89.8,70.6,91.2,68.9,91.2z"/>
<path class="st2" d="M68.9,117H47.8c-1.7,0-3.1-1.4-3.1-3.1l0,0c0-1.7,1.4-3.1,3.1-3.1h21.1c1.7,0,3.1,1.4,3.1,3.1l0,0
	C72,115.6,70.6,117,68.9,117z"/>
<path class="st2" d="M178.1,143.1H51.9c-4,0-7.3-3.3-7.3-7.3v-6.5c0-4,3.3-7.3,7.3-7.3H178c4,0,7.3,3.3,7.3,7.3v6.5
	C185.4,139.8,182.1,143.1,178.1,143.1z"/>
<path class="st2" d="M99.6,117H78.5c-1.7,0-3.1-1.4-3.1-3.1l0,0c0-1.7,1.4-3.1,3.1-3.1h21.1c1.7,0,3.1,1.4,3.1,3.1l0,0
	C102.8,115.6,101.4,117,99.6,117z"/>
<path class="st4" d="M115.5,25.1l1,1.3l1,1.3l1.3-0.9l2.1-1.4v4.6h-10.7v-4.6l2.1,1.4l1.3,0.9l1-1.3L115.5,25.1 M122.5,22.4
	l-4.7,3.1l-2.3-3.1l-2.3,3.1l-4.7-3.1v9.4h14.1v-1.5L122.5,22.4z"/>
</svg>
