<?xml version="1.0" encoding="utf-8"?>
<!-- Generator: Adobe Illustrator 23.0.0, SVG Export Plug-In . SVG Version: 6.00 Build 0)  -->
<svg version="1.1" id="Layer_1" xmlns="http://www.w3.org/2000/svg" xmlns:xlink="http://www.w3.org/1999/xlink" x="0px" y="0px"
	 viewBox="0 0 250 250" style="enable-background:new 0 0 250 250;" xml:space="preserve">
<style type="text/css">
	.st0{fill:#A8B6C0;}
	.st1{fill:#FFFFFF;}
	.st2{fill:#FFFFFF;stroke:#EAEAEA;stroke-width:2;stroke-miterlimit:10;}
	.st3{fill:#9AA1B2;enable-background:new    ;}
	.st4{opacity:0.6;fill:#9AA1B2;enable-background:new    ;}
</style>
<rect y="0" class="st0" width="250" height="250"/>
<rect y="0" class="st1" width="250" height="43.8"/>
<path class="st0" d="M30.5,29c0,0.1-0.1,0.2-0.3,0.2l-1-0.1c-2.8-0.3-5.6-0.4-8.4-0.4h-0.1c-2.8,0-5.6,0.2-8.4,0.4l-1,0.1
	c-0.1,0-0.3-0.1-0.3-0.2l-1-12.1c0-0.2,0.2-0.3,0.4-0.2l5.9,3c0.1,0,0.2,0,0.3-0.1l4-4.9c0.1-0.1,0.3-0.1,0.4,0l4,4.9
	c0.1,0.1,0.2,0.1,0.3,0.1l5.9-3c0.2-0.1,0.4,0,0.4,0.2L30.5,29z M13.5,21.4l0.4,4.5c0,0.1,0.1,0.2,0.2,0.2c2.2-0.2,4.4-0.3,6.5-0.3
	c0,0,0,0,0,0c2.2,0,4.4,0.1,6.6,0.3c0.1,0,0.2-0.1,0.2-0.2l0.4-4.5c0-0.2-0.2-0.3-0.3-0.2l-3.5,1.6c-0.1,0-0.2,0-0.3,0l-3-3.4
	c-0.1-0.1-0.3-0.1-0.3,0l-3,3.4c-0.1,0.1-0.2,0.1-0.3,0l-3.4-1.6C13.7,21.2,13.5,21.3,13.5,21.4z"/>
<path class="st0" d="M50.7,26.2h-7.7c-2.4,0-4.3-1.9-4.3-4.3l0,0c0-2.4,1.9-4.3,4.3-4.3h7.7c2.4,0,4.3,1.9,4.3,4.3l0,0
	C55,24.3,53.1,26.2,50.7,26.2z"/>
<path class="st0" d="M70.6,26.2H63c-2.4,0-4.3-1.9-4.3-4.3l0,0c0-2.4,1.9-4.3,4.3-4.3h7.7c2.4,0,4.3,1.9,4.3,4.3l0,0
	C74.9,24.3,73,26.2,70.6,26.2z"/>
<path class="st0" d="M90.6,26.2h-7.7c-2.4,0-4.3-1.9-4.3-4.3l0,0c0-2.4,1.9-4.3,4.3-4.3h7.7c2.4,0,4.3,1.9,4.3,4.3l0,0
	C94.8,24.3,92.9,26.2,90.6,26.2z"/>
<circle class="st1" cx="218.7" cy="33.4" r="7.4"/>
<circle class="st1" cx="236.4" cy="33.4" r="7.4"/>
<circle class="st0" cx="103.7" cy="21.9" r="1.7"/>
<circle class="st0" cx="109.2" cy="21.9" r="1.7"/>
<circle class="st0" cx="114.7" cy="21.9" r="1.7"/>
<path class="st2" d="M236,152.3H19.8c-5.4,0-9.9-4.4-9.9-9.9V47.8c0-5.4,4.4-9.9,9.9-9.9H236c5.4,0,9.9,4.4,9.9,9.9v94.6
	C245.8,147.9,241.4,152.3,236,152.3z"/>
<path class="st3" d="M56.2,63.4H27.7c-1.1,0-2-1.5-2-3.4v-0.7c0-1.9,0.9-3.4,2-3.4h28.5c1.1,0,2,1.5,2,3.4V60
	C58.2,61.8,57.3,63.4,56.2,63.4z"/>
<path class="st4" d="M56.2,88.2H27.7c-1.1,0-2-1.5-2-3.4v-0.7c0-1.9,0.9-3.4,2-3.4h28.5c1.1,0,2,1.5,2,3.4v0.7
	C58.2,86.7,57.3,88.2,56.2,88.2z"/>
<path class="st4" d="M56.2,113.1H27.7c-1.1,0-2-1.5-2-3.4V109c0-1.9,0.9-3.4,2-3.4h28.5c1.1,0,2,1.5,2,3.4v0.7
	C58.2,111.5,57.3,113.1,56.2,113.1z"/>
<path class="st4" d="M56.2,137.9H27.7c-1.1,0-2-1.5-2-3.4v-0.7c0-1.9,0.9-3.4,2-3.4h28.5c1.1,0,2,1.5,2,3.4v0.7
	C58.2,136.4,57.3,137.9,56.2,137.9z"/>
<path class="st3" d="M102.1,63.4H73.6c-1.1,0-2-1.5-2-3.4v-0.7c0-1.9,0.9-3.4,2-3.4h28.5c1.1,0,2,1.5,2,3.4V60
	C104.1,61.8,103.2,63.4,102.1,63.4z"/>
<path class="st4" d="M102.1,88.2H73.6c-1.1,0-2-1.5-2-3.4v-0.7c0-1.9,0.9-3.4,2-3.4h28.5c1.1,0,2,1.5,2,3.4v0.7
	C104.1,86.7,103.2,88.2,102.1,88.2z"/>
<path class="st4" d="M102.1,113.1H73.6c-1.1,0-2-1.5-2-3.4V109c0-1.9,0.9-3.4,2-3.4h28.5c1.1,0,2,1.5,2,3.4v0.7
	C104.1,111.5,103.2,113.1,102.1,113.1z"/>
<path class="st4" d="M102.1,137.9H73.6c-1.1,0-2-1.5-2-3.4v-0.7c0-1.9,0.9-3.4,2-3.4h28.5c1.1,0,2,1.5,2,3.4v0.7
	C104.1,136.4,103.2,137.9,102.1,137.9z"/>
<path class="st3" d="M148.2,63.4h-28.5c-1.1,0-2-1.5-2-3.4v-0.7c0-1.9,0.9-3.4,2-3.4h28.5c1.1,0,2,1.5,2,3.4V60
	C150.2,61.8,149.3,63.4,148.2,63.4z"/>
<path class="st4" d="M148.2,88.2h-28.5c-1.1,0-2-1.5-2-3.4v-0.7c0-1.9,0.9-3.4,2-3.4h28.5c1.1,0,2,1.5,2,3.4v0.7
	C150.2,86.7,149.3,88.2,148.2,88.2z"/>
<path class="st4" d="M148.2,113.1h-28.5c-1.1,0-2-1.5-2-3.4V109c0-1.9,0.9-3.4,2-3.4h28.5c1.1,0,2,1.5,2,3.4v0.7
	C150.2,111.5,149.3,113.1,148.2,113.1z"/>
<path class="st4" d="M148.2,137.9h-28.5c-1.1,0-2-1.5-2-3.4v-0.7c0-1.9,0.9-3.4,2-3.4h28.5c1.1,0,2,1.5,2,3.4v0.7
	C150.2,136.4,149.3,137.9,148.2,137.9z"/>
<path class="st3" d="M194.1,63.4h-28.5c-1.1,0-2-1.5-2-3.4v-0.7c0-1.9,0.9-3.4,2-3.4h28.5c1.1,0,2,1.5,2,3.4V60
	C196.1,61.8,195.2,63.4,194.1,63.4z"/>
<path class="st4" d="M194.1,88.2h-28.5c-1.1,0-2-1.5-2-3.4v-0.7c0-1.9,0.9-3.4,2-3.4h28.5c1.1,0,2,1.5,2,3.4v0.7
	C196.1,86.7,195.2,88.2,194.1,88.2z"/>
<path class="st4" d="M194.1,113.1h-28.5c-1.1,0-2-1.5-2-3.4V109c0-1.9,0.9-3.4,2-3.4h28.5c1.1,0,2,1.5,2,3.4v0.7
	C196.1,111.5,195.2,113.1,194.1,113.1z"/>
<path class="st4" d="M194.1,137.9h-28.5c-1.1,0-2-1.5-2-3.4v-0.7c0-1.9,0.9-3.4,2-3.4h28.5c1.1,0,2,1.5,2,3.4v0.7
	C196.1,136.4,195.2,137.9,194.1,137.9z"/>
<path class="st3" d="M237.4,63.4h-28.5c-1.1,0-2-1.5-2-3.4v-0.7c0-1.9,0.9-3.4,2-3.4h28.5c1.1,0,2,1.5,2,3.4V60
	C239.4,61.8,238.5,63.4,237.4,63.4z"/>
<path class="st4" d="M237.4,88.2h-28.5c-1.1,0-2-1.5-2-3.4v-0.7c0-1.9,0.9-3.4,2-3.4h28.5c1.1,0,2,1.5,2,3.4v0.7
	C239.4,86.7,238.5,88.2,237.4,88.2z"/>
<path class="st4" d="M237.4,113.1h-28.5c-1.1,0-2-1.5-2-3.4V109c0-1.9,0.9-3.4,2-3.4h28.5c1.1,0,2,1.5,2,3.4v0.7
	C239.4,111.5,238.5,113.1,237.4,113.1z"/>
<path class="st4" d="M237.4,137.9h-28.5c-1.1,0-2-1.5-2-3.4v-0.7c0-1.9,0.9-3.4,2-3.4h28.5c1.1,0,2,1.5,2,3.4v0.7
	C239.4,136.4,238.5,137.9,237.4,137.9z"/>
</svg>
