<?xml version="1.0" encoding="utf-8"?>
<!-- Generator: Adobe Illustrator 23.0.0, SVG Export Plug-In . SVG Version: 6.00 Build 0)  -->
<svg version="1.1" id="Layer_1" xmlns="http://www.w3.org/2000/svg" xmlns:xlink="http://www.w3.org/1999/xlink" x="0px" y="0px"
	 viewBox="0 0 250 250" style="enable-background:new 0 0 250 250;" xml:space="preserve">
<style type="text/css">
	.st0{fill:#E9EAED;}
	.st1{fill:#FFFFFF;}
	.st2{opacity:0.51;fill:#EDF0F3;enable-background:new    ;}
	.st3{fill:#A8B6C0;}
	.st4{fill:#EDF0F3;}
</style>
<rect class="st0" width="250" height="250"/>
<path class="st1" d="M213.8,222.2H38.5c-1.9,0-3.4-1.8-3.4-4V29.3c0-2.2,1.5-4,3.4-4h175.3c1.9,0,3.4,1.8,3.4,4v188.9
	C217.2,220.4,215.6,222.2,213.8,222.2z"/>
<path class="st2" d="M210.7,200.7H68.3c-1.6,0-2.9-1.5-2.9-3.4V81.3c0-1.9,1.3-3.4,2.9-3.4h142.4c1.6,0,2.9,1.5,2.9,3.4v116
	C213.6,199.2,212.3,200.7,210.7,200.7z"/>
<path class="st1" d="M138.9,148.6c0,0.2-0.2,0.3-0.4,0.3l-1.4-0.1c-3.6-0.4-7.3-0.6-10.9-0.6h-0.1c-3.7,0-7.3,0.2-10.9,0.6l-1.3,0.1
	c-0.2,0-0.3-0.1-0.3-0.3l-1.4-15.8c0-0.3,0.2-0.4,0.5-0.3l7.7,3.9c0.1,0.1,0.3,0,0.4-0.1l5.2-6.4c0.1-0.2,0.4-0.2,0.5,0l5.2,6.4
	c0.1,0.1,0.3,0.1,0.4,0.1l7.7-3.9c0.2-0.1,0.5,0.1,0.5,0.3L138.9,148.6z M116.8,138.6l0.6,5.8c0,0.1,0.2,0.3,0.3,0.2
	c2.8-0.2,5.7-0.3,8.5-0.3c0,0,0,0,0.1,0c2.8,0,5.7,0.1,8.5,0.3c0.2,0,0.3-0.1,0.3-0.2l0.5-5.8c0-0.2-0.2-0.3-0.4-0.3l-4.5,2.1
	c-0.1,0.1-0.3,0-0.4-0.1l-3.9-4.4c-0.1-0.1-0.3-0.1-0.4,0l-3.9,4.4c-0.1,0.1-0.2,0.1-0.3,0.1l-4.5-2.1
	C117,138.3,116.7,138.4,116.8,138.6z"/>
<path class="st3" d="M55.9,113.7H45.1c-1.9,0-3.4-1.5-3.4-3.4V82.1c0-1.9,1.5-3.4,3.4-3.4h10.7c1.9,0,3.4,1.5,3.4,3.4v28.3
	C59.3,112.2,57.7,113.7,55.9,113.7z"/>
<path class="st3" d="M43.9,138.3v-17.2c0-1.9,1.5-3.4,3.4-3.4h6.5c1.9,0,3.4,1.5,3.4,3.4v17.2c0,1.9-1.5,3.4-3.4,3.4h-6.5
	C45.4,141.7,43.9,140.2,43.9,138.3z"/>
<path class="st3" d="M53.8,159h-6.5c-1.9,0-3.4-1.5-3.4-3.4v-6.5c0-1.9,1.5-3.4,3.4-3.4h6.5c1.9,0,3.4,1.5,3.4,3.4v6.5
	C57.2,157.4,55.6,159,53.8,159z"/>
<path class="st3" d="M53.8,176.2h-6.5c-1.9,0-3.4-1.5-3.4-3.4v-6.5c0-1.9,1.5-3.4,3.4-3.4h6.5c1.9,0,3.4,1.5,3.4,3.4v6.5
	C57.2,174.7,55.6,176.2,53.8,176.2z"/>
<path class="st4" d="M210.2,54.3h-165c-1.9,0-3.4-1.5-3.4-3.4v-1.7c0-1.9,1.5-3.4,3.4-3.4h165c1.9,0,3.4,1.5,3.4,3.4v1.7
	C213.6,52.8,212.1,54.3,210.2,54.3z"/>
<path class="st4" d="M106.6,66.6H45.1c-1.9,0-3.4-1.5-3.4-3.4v-1.7c0-1.9,1.5-3.4,3.4-3.4h61.5c1.9,0,3.4,1.5,3.4,3.4v1.7
	C110,65.1,108.5,66.6,106.6,66.6z"/>
<path class="st4" d="M57.2,42.1H45.1c-1.9,0-3.4-1.5-3.4-3.4V37c0-1.9,1.5-3.4,3.4-3.4h12.1c1.9,0,3.4,1.5,3.4,3.4v1.7
	C60.6,40.6,59.1,42.1,57.2,42.1z"/>
</svg>
