<?xml version="1.0" encoding="utf-8"?>
<!-- Generator: Adobe Illustrator 23.0.0, SVG Export Plug-In . SVG Version: 6.00 Build 0)  -->
<svg version="1.1" id="Layer_1" xmlns="http://www.w3.org/2000/svg" xmlns:xlink="http://www.w3.org/1999/xlink" x="0px" y="0px"
	 viewBox="0 0 250 250" style="enable-background:new 0 0 250 250;" xml:space="preserve">
<style type="text/css">
	.st0{fill:#E9EAED;}
	.st1{fill:#FFFFFF;}
	.st2{opacity:0.51;fill:#EDF0F3;enable-background:new    ;}
	.st3{fill:#A8B6C0;}
	.st4{fill:#EDF0F3;}
</style>
<rect class="st0" width="250" height="250"/>
<path class="st1" d="M213.8,222.2H38.5c-1.9,0-3.4-1.8-3.4-4V29.3c0-2.2,1.5-4,3.4-4h175.3c1.9,0,3.4,1.8,3.4,4v188.9
	C217.2,220.4,215.6,222.2,213.8,222.2z"/>
<path class="st2" d="M210.2,200.7H42c-1.9,0-3.4-1.5-3.4-3.4V81.3c0-1.9,1.5-3.4,3.4-3.4h168.2c1.9,0,3.4,1.5,3.4,3.4v116
	C213.6,199.2,212.1,200.7,210.2,200.7z"/>
<path class="st1" d="M138.9,148.6c0,0.2-0.2,0.3-0.4,0.3l-1.4-0.1c-3.6-0.4-7.3-0.6-10.9-0.6h-0.1c-3.7,0-7.3,0.2-10.9,0.6l-1.3,0.1
	c-0.2,0-0.3-0.1-0.3-0.3l-1.4-15.8c0-0.3,0.2-0.4,0.5-0.3l7.7,3.9c0.1,0.1,0.3,0,0.4-0.1l5.2-6.4c0.1-0.2,0.4-0.2,0.5,0l5.2,6.4
	c0.1,0.1,0.3,0.1,0.4,0.1l7.7-3.9c0.2-0.1,0.5,0.1,0.5,0.3L138.9,148.6z M116.8,138.6l0.6,5.8c0,0.1,0.2,0.3,0.3,0.2
	c2.8-0.2,5.7-0.3,8.5-0.3c0,0,0,0,0.1,0c2.8,0,5.7,0.1,8.5,0.3c0.2,0,0.3-0.1,0.3-0.2l0.5-5.8c0-0.2-0.2-0.3-0.4-0.3l-4.5,2.1
	c-0.1,0.1-0.3,0-0.4-0.1l-3.9-4.4c-0.1-0.1-0.3-0.1-0.4,0l-3.9,4.4c-0.1,0.1-0.2,0.1-0.3,0.1l-4.5-2.1
	C117,138.3,116.7,138.4,116.8,138.6z"/>
<path class="st3" d="M74.3,70.5H42.4c-1.9,0-3.4-1.5-3.4-3.4v-6.5c0-1.9,1.5-3.4,3.4-3.4h31.8c1.9,0,3.4,1.5,3.4,3.4v6.5
	C77.7,69,76.1,70.5,74.3,70.5z"/>
<path class="st3" d="M175.5,70.5h-17.2c-1.9,0-3.4-1.5-3.4-3.4v-6.5c0-1.9,1.5-3.4,3.4-3.4h17.2c1.9,0,3.4,1.5,3.4,3.4v6.5
	C178.9,69,177.4,70.5,175.5,70.5z"/>
<path class="st3" d="M192.9,70.5h-6.5c-1.9,0-3.4-1.5-3.4-3.4v-6.5c0-1.9,1.5-3.4,3.4-3.4h6.5c1.9,0,3.4,1.5,3.4,3.4v6.5
	C196.3,69,194.7,70.5,192.9,70.5z"/>
<path class="st3" d="M210.2,70.5h-6.5c-1.9,0-3.4-1.5-3.4-3.4v-6.5c0-1.9,1.5-3.4,3.4-3.4h6.5c1.9,0,3.4,1.5,3.4,3.4v6.5
	C213.6,69,212.1,70.5,210.2,70.5z"/>
<path class="st4" d="M210.2,39.2H42.4c-1.9,0-3.4-1.5-3.4-3.4v-1.7c0-1.9,1.5-3.4,3.4-3.4h167.8c1.9,0,3.4,1.5,3.4,3.4v1.7
	C213.6,37.7,212.1,39.2,210.2,39.2z"/>
<path class="st4" d="M108.7,50.8H42.4c-1.9,0-3.4-1.5-3.4-3.4v-1.7c0-1.9,1.5-3.4,3.4-3.4h66.3c1.9,0,3.4,1.5,3.4,3.4v1.7
	C112.1,49.2,110.6,50.8,108.7,50.8z"/>
</svg>
