<?xml version="1.0" encoding="utf-8"?>
<!-- Generator: Adobe Illustrator 26.0.0, SVG Export Plug-In . SVG Version: 6.00 Build 0)  -->
<svg version="1.1" id="Layer_1" xmlns="http://www.w3.org/2000/svg" xmlns:xlink="http://www.w3.org/1999/xlink" x="0px" y="0px"
	 viewBox="0 0 500 120" style="enable-background:new 0 0 500 120;" xml:space="preserve">
<style type="text/css">
	.st0{fill:#E9EAED;}
	.st1{fill:#C8D1D8;}
	.st2{fill:#FFFFFF;}
	.st3{fill:#DBDBDB;}
	.st4{opacity:0.64;fill:#FFFFFF;enable-background:new    ;}
	.st5{opacity:0.72;fill:#FFFFFF;enable-background:new    ;}
	.st6{fill:#BFBFBF;}
	.st7{display:none;fill:#949CA8;}
	.st8{fill:#949CA8;}
</style>
<g>
	<rect class="st0" width="500" height="120"/>
</g>
<g>
	<rect class="st1" width="500" height="20.3"/>
</g>
<g>
	<rect x="0.5" y="20.1" class="st2" width="500" height="64.3"/>
</g>
<path class="st3" d="M50,56.5H37.5c-2.5,0-4.6-2.1-4.6-4.6l0,0c0-2.5,2.1-4.6,4.6-4.6H50c2.5,0,4.6,2.1,4.6,4.6l0,0
	C54.6,54.4,52.6,56.5,50,56.5z"/>
<path class="st3" d="M73.9,56.5H61.4c-2.5,0-4.6-2.1-4.6-4.6l0,0c0-2.5,2.1-4.6,4.6-4.6h12.5c2.5,0,4.6,2.1,4.6,4.6l0,0
	C78.5,54.4,76.4,56.5,73.9,56.5z"/>
<path class="st3" d="M97.8,56.5H85.3c-2.5,0-4.6-2.1-4.6-4.6l0,0c0-2.5,2.1-4.6,4.6-4.6h12.5c2.5,0,4.6,2.1,4.6,4.6l0,0
	C102.4,54.4,100.3,56.5,97.8,56.5z"/>
<path class="st4" d="M48,13.6H30.3c-1.9,0-3.4-1.5-3.4-3.4v-0.1c0-1.9,1.5-3.4,3.4-3.4H48c1.9,0,3.4,1.5,3.4,3.4v0.1
	C51.4,12.1,49.8,13.6,48,13.6z"/>
<path class="st4" d="M76.5,13.6H58.8c-1.9,0-3.4-1.5-3.4-3.4v-0.1c0-1.9,1.5-3.4,3.4-3.4h17.7c1.9,0,3.4,1.5,3.4,3.4v0.1
	C79.9,12.1,78.4,13.6,76.5,13.6z"/>
<path class="st4" d="M105.1,13.6H87.3c-1.9,0-3.4-1.5-3.4-3.4v-0.1c0-1.9,1.5-3.4,3.4-3.4H105c1.9,0,3.4,1.5,3.4,3.4v0.1
	C108.4,12.1,106.9,13.6,105.1,13.6z"/>
<circle class="st5" cx="486.7" cy="10.2" r="3.7"/>
<circle class="st5" cx="475.9" cy="10.2" r="3.7"/>
<circle class="st5" cx="465.1" cy="10.2" r="3.7"/>
<circle class="st5" cx="454.3" cy="10.2" r="3.7"/>
<circle class="st5" cx="443.5" cy="10.2" r="3.7"/>
<circle class="st5" cx="432.7" cy="10.2" r="3.7"/>
<circle class="st6" cx="22" cy="45" r="1.3"/>
<circle class="st6" cx="22" cy="51" r="1.3"/>
<circle class="st6" cx="22" cy="57" r="1.3"/>
<path class="st7" d="M262.8,60.2c0,0.2-0.2,0.3-0.4,0.3l-1.4-0.1c-3.6-0.4-7.3-0.6-10.9-0.6H250c-3.7,0-7.3,0.2-10.9,0.6l-1.3,0.1
	c-0.2,0-0.3-0.1-0.4-0.3L236,44.5c0-0.3,0.2-0.4,0.5-0.3l7.7,3.9c0.1,0.1,0.3,0,0.4-0.1l5.2-6.4c0.1-0.2,0.4-0.2,0.5,0l5.2,6.4
	c0.1,0.1,0.3,0.2,0.4,0.1l7.7-3.9c0.2-0.1,0.5,0.1,0.5,0.3L262.8,60.2z M240.6,50.3l0.6,5.8c0,0.1,0.1,0.3,0.3,0.2
	c2.8-0.2,5.7-0.3,8.5-0.3c0,0,0,0,0.1,0c2.8,0,5.7,0.1,8.5,0.3c0.2,0,0.3-0.1,0.3-0.2l0.5-5.8c0-0.2-0.2-0.3-0.4-0.3l-4.5,2.1
	c-0.1,0-0.3,0-0.4-0.1l-3.9-4.4c-0.1-0.1-0.3-0.1-0.4,0l-3.9,4.4c-0.1,0.1-0.2,0.1-0.4,0.1l-4.5-2C240.9,50,240.6,50.1,240.6,50.3z"
	/>
<circle class="st1" cx="480.8" cy="52.1" r="10.6"/>
<circle class="st1" cx="455.5" cy="52.1" r="10.6"/>
<circle class="st1" cx="430.2" cy="52.5" r="10.6"/>
<circle class="st1" cx="404.9" cy="52.5" r="10.6"/>
<g>
	<path class="st8" d="M250.5,47l1.9,2.4l2.2,2.8l3.1-1.9l4.1-2.5v8.3h-23.5v-8.3l4.7,2.9l2.9,1.8l2.2-2.6L250.5,47 M265.7,40.7
		L255.5,47l-4.9-6.3l-5.6,6.7l-10.8-6.7v19.5h31.5V40.7L265.7,40.7z"/>
</g>
</svg>
