<?xml version="1.0" encoding="utf-8"?>
<!-- Generator: Adobe Illustrator 26.0.0, SVG Export Plug-In . SVG Version: 6.00 Build 0)  -->
<svg version="1.1" id="Layer_1" xmlns="http://www.w3.org/2000/svg" xmlns:xlink="http://www.w3.org/1999/xlink" x="0px" y="0px"
	 viewBox="0 0 500 188.1" style="enable-background:new 0 0 500 188.1;" xml:space="preserve">
<style type="text/css">
	.st0{fill:#E9EAED;}
	.st1{fill:#EEF0F3;}
	.st2{fill:#FFFFFF;}
	.st3{fill:#C8D1D8;}
	.st4{fill:#CAD0D8;}
	.st5{fill:#949CA8;}
</style>
<g>
	<rect class="st0" width="500" height="188.1"/>
</g>
<path class="st1" d="M229.4,152.6H111.9c-1.1,0-2-0.7-2-1.8V78c0-1.1,0.9-1.8,2-1.8h117.5c1.1,0,2,0.7,2,1.8v72.8
	C231.4,151.7,230.5,152.6,229.4,152.6z"/>
<path class="st1" d="M359.6,152.6H242.1c-1.1,0-2-0.7-2-1.8V78c0-1.1,0.9-1.8,2-1.8h117.5c1.1,0,2,0.7,2,1.8v72.8
	C361.6,151.7,360.7,152.6,359.6,152.6z"/>
<path class="st1" d="M489.9,152.6H372.3c-1.1,0-2-0.7-2-1.8V78c0-1.1,0.9-1.8,2-1.8h117.5c1.1,0,2,0.7,2,1.8v72.8
	C491.9,151.7,491,152.6,489.9,152.6z"/>
<g>
	<rect class="st2" width="500" height="54.5"/>
</g>
<circle class="st3" cx="481.3" cy="26.9" r="10.6"/>
<circle class="st3" cx="456.1" cy="26.9" r="10.6"/>
<circle class="st3" cx="430.9" cy="27.3" r="10.6"/>
<path class="st3" d="M14.9,22.1H7.5c-1,0-1.8-0.8-1.8-1.8l0,0c0-1,0.8-1.8,1.8-1.8h7.4c1,0,1.8,0.8,1.8,1.8l0,0
	C16.6,21.3,15.8,22.1,14.9,22.1z"/>
<path class="st3" d="M20.3,28.7H7.5c-1,0-1.8-0.8-1.8-1.8l0,0c0-1,0.8-1.8,1.8-1.8h12.8c1,0,1.8,0.8,1.8,1.8l0,0
	C22.1,27.9,21.3,28.7,20.3,28.7z"/>
<path class="st3" d="M14.9,35.3H7.5c-1,0-1.8-0.8-1.8-1.8l0,0c0-1,0.8-1.8,1.8-1.8h7.4c1,0,1.8,0.8,1.8,1.8l0,0
	C16.6,34.5,15.8,35.3,14.9,35.3z"/>
<path class="st1" d="M246.4,38.2H90.8c-1.9,0-3.4-1.5-3.4-3.4V21.1c0-1.9,1.5-3.4,3.4-3.4h155.6c1.9,0,3.4,1.5,3.4,3.4v13.7
	C249.8,36.6,248.3,38.2,246.4,38.2z"/>
<path class="st4" d="M13.8,81.5H9.7c-1.9,0-3.4-1.5-3.4-3.4V74c0-1.9,1.5-3.4,3.4-3.4h4.1c1.9,0,3.4,1.5,3.4,3.4v4.1
	C17.2,80,15.7,81.5,13.8,81.5z"/>
<path class="st4" d="M84.3,81.6H25.7c-1.9,0-3.4-1.5-3.4-3.4v-4.1c0-1.9,1.5-3.4,3.4-3.4h58.6c1.9,0,3.4,1.5,3.4,3.4v4.1
	C87.7,80.1,86.1,81.6,84.3,81.6z"/>
<path class="st4" d="M14.3,103.5h-4.1c-1.9,0-3.4-1.5-3.4-3.4V96c0-1.9,1.5-3.4,3.4-3.4h4.1c1.9,0,3.4,1.5,3.4,3.4v4.1
	C17.7,102,16.2,103.5,14.3,103.5z"/>
<path class="st4" d="M84.4,103.6H25.8c-1.9,0-3.4-1.5-3.4-3.4v-4.1c0-1.9,1.5-3.4,3.4-3.4h58.6c1.9,0,3.4,1.5,3.4,3.4v4.1
	C87.8,102.1,86.3,103.6,84.4,103.6z"/>
<path class="st4" d="M14.3,125.3h-4.1c-1.9,0-3.4-1.5-3.4-3.4v-4.1c0-1.9,1.5-3.4,3.4-3.4h4.1c1.9,0,3.4,1.5,3.4,3.4v4.1
	C17.7,123.7,16.2,125.3,14.3,125.3z"/>
<path class="st4" d="M84.5,125.7H26c-1.9,0-3.4-1.5-3.4-3.4v-4.1c0-1.9,1.5-3.4,3.4-3.4h58.6c1.9,0,3.4,1.5,3.4,3.4v4.1
	C87.9,124.2,86.4,125.7,84.5,125.7z"/>
<path class="st4" d="M13.8,147.2H9.7c-1.9,0-3.4-1.5-3.4-3.4v-4.1c0-1.9,1.5-3.4,3.4-3.4h4.1c1.9,0,3.4,1.5,3.4,3.4v4.1
	C17.2,145.6,15.7,147.2,13.8,147.2z"/>
<path class="st4" d="M84.1,147.7H25.6c-1.9,0-3.4-1.5-3.4-3.4v-4.1c0-1.9,1.5-3.4,3.4-3.4h58.6c1.9,0,3.4,1.5,3.4,3.4v4.1
	C87.5,146.2,86,147.7,84.1,147.7z"/>
<path class="st4" d="M13.8,169.8H9.7c-1.9,0-3.4-1.5-3.4-3.4v-4.1c0-1.9,1.5-3.4,3.4-3.4h4.1c1.9,0,3.4,1.5,3.4,3.4v4.1
	C17.2,168.2,15.7,169.8,13.8,169.8z"/>
<path class="st4" d="M84,169.8H25.5c-1.9,0-3.4-1.5-3.4-3.4v-4.1c0-1.9,1.5-3.4,3.4-3.4H84c1.9,0,3.4,1.5,3.4,3.4v4.1
	C87.4,168.3,85.9,169.8,84,169.8z"/>
<g>
	<path class="st5" d="M50.3,23.5l1.9,2.4l2.2,2.8l3.1-1.9l4.1-2.5v8.3H38v-8.3l4.7,2.9l2.9,1.8l2.2-2.6L50.3,23.5 M65.5,17.2
		l-10.2,6.3l-4.9-6.3l-5.6,6.7L34,17.2v19.5h31.5V17.2L65.5,17.2z"/>
</g>
</svg>
