<?xml version="1.0" encoding="utf-8"?>
<!-- Generator: Adobe Illustrator 26.0.0, SVG Export Plug-In . SVG Version: 6.00 Build 0)  -->
<svg version="1.1" id="Layer_1" xmlns="http://www.w3.org/2000/svg" xmlns:xlink="http://www.w3.org/1999/xlink" x="0px" y="0px"
	 viewBox="0 0 500 120" style="enable-background:new 0 0 500 120;" xml:space="preserve">
<style type="text/css">
	.st0{fill:#E9EAED;}
	.st1{fill:#FFFFFF;}
	.st2{fill:#EEF0F3;}
	.st3{fill:#DBDBDB;}
	.st4{fill:#C8D1D8;}
	.st5{fill:#949CA8;}
</style>
<g>
	<rect class="st0" width="500" height="120"/>
</g>
<g>
	<rect class="st1" width="500" height="54.5"/>
</g>
<path class="st2" d="M406.5,38.1H294.7c-6,0-11-4.9-11-11l0,0c0-6,4.9-11,11-11h111.8c6,0,11,4.9,11,11l0,0
	C417.5,33.2,412.5,38.1,406.5,38.1z"/>
<path class="st3" d="M96.2,31.9H83.7c-2.5,0-4.6-2.1-4.6-4.6l0,0c0-2.5,2.1-4.6,4.6-4.6h12.5c2.5,0,4.6,2.1,4.6,4.6l0,0
	C100.8,29.8,98.7,31.9,96.2,31.9z"/>
<path class="st3" d="M120,31.9h-12.5c-2.5,0-4.6-2.1-4.6-4.6l0,0c0-2.5,2.1-4.6,4.6-4.6H120c2.5,0,4.6,2.1,4.6,4.6l0,0
	C124.6,29.8,122.5,31.9,120,31.9z"/>
<path class="st3" d="M143.9,31.9h-12.5c-2.5,0-4.6-2.1-4.6-4.6l0,0c0-2.5,2.1-4.6,4.6-4.6h12.5c2.5,0,4.6,2.1,4.6,4.6l0,0
	C148.5,29.8,146.5,31.9,143.9,31.9z"/>
<circle class="st4" cx="481.3" cy="27.1" r="10.6"/>
<circle class="st4" cx="456.5" cy="27.1" r="10.6"/>
<circle class="st4" cx="431.7" cy="27.1" r="10.6"/>
<g>
	<path class="st5" d="M40.7,22.4l1.9,2.4l2.2,2.8l3.1-1.9l4.1-2.5v8.3H28.4v-8.3l4.7,2.9L36,28l2.2-2.6L40.7,22.4 M56,16.1
		l-10.2,6.3l-4.9-6.3l-5.6,6.7l-10.8-6.7v19.5H56V16.1L56,16.1z"/>
</g>
</svg>
