<?xml version="1.0" encoding="utf-8"?>
<!-- Generator: Adobe Illustrator 26.0.0, SVG Export Plug-In . SVG Version: 6.00 Build 0)  -->
<svg version="1.1" id="Layer_1" xmlns="http://www.w3.org/2000/svg" xmlns:xlink="http://www.w3.org/1999/xlink" x="0px" y="0px"
	 viewBox="0 0 500 120" style="enable-background:new 0 0 500 120;" xml:space="preserve">
<style type="text/css">
	.st0{fill:#E9EAED;}
	.st1{fill:#FFFFFF;}
	.st2{fill:#D7DCE0;}
	.st3{fill:#DBDBDB;}
	.st4{fill:#C8D1D8;}
	.st5{fill:#949CA8;}
</style>
<g>
	<rect class="st0" width="500" height="120"/>
</g>
<g>
	<path class="st1" d="M482.6,48.5H18.4c-6.2,0-11.1-5-11.1-11.2V17.1C7.3,11,12.2,6,18.4,6h464.2c6.2,0,11.1,5,11.1,11.1v20.3
		C493.7,43.5,488.7,48.5,482.6,48.5z"/>
</g>
<g>
	<path class="st2" d="M482.6,141H18.4c-6.2,0-11.1-5-11.1-11.1V63.4c0-6.2,5-11.1,11.1-11.1h464.2c6.2,0,11.1,5,11.1,11.2v66.4
		C493.7,136,488.7,141,482.6,141z"/>
</g>
<path class="st3" d="M35.6,31.9H23.1c-2.5,0-4.6-2.1-4.6-4.6l0,0c0-2.5,2.1-4.6,4.6-4.6h12.5c2.5,0,4.6,2.1,4.6,4.6l0,0
	C40.2,29.8,38.1,31.9,35.6,31.9z"/>
<path class="st3" d="M59.4,31.9H46.8c-2.5,0-4.6-2.1-4.6-4.6l0,0c0-2.5,2.1-4.6,4.6-4.6h12.5c2.5,0,4.6,2.1,4.6,4.6l0,0
	C64,29.8,61.9,31.9,59.4,31.9z"/>
<path class="st3" d="M83.4,31.9H70.8c-2.5,0-4.6-2.1-4.6-4.6l0,0c0-2.5,2.1-4.6,4.6-4.6h12.5c2.5,0,4.6,2.1,4.6,4.6l0,0
	C87.9,29.8,85.9,31.9,83.4,31.9z"/>
<circle class="st4" cx="470.7" cy="26.6" r="10.6"/>
<circle class="st4" cx="446" cy="26.6" r="10.6"/>
<circle class="st4" cx="421.4" cy="27" r="10.6"/>
<circle class="st4" cx="396.8" cy="26.6" r="10.6"/>
<g>
	<path class="st5" d="M254.5,23.9l1.9,2.4l2.2,2.8l3.1-1.9l4.1-2.5V33h-23.5v-8.3l4.7,2.9l2.9,1.8l2.2-2.6L254.5,23.9 M269.7,17.5
		l-10.2,6.3l-4.9-6.3l-5.6,6.7l-10.8-6.7V37h31.5V17.5L269.7,17.5z"/>
</g>
</svg>
