<?xml version="1.0" encoding="utf-8"?>
<!-- Generator: Adobe Illustrator 26.0.0, SVG Export Plug-In . SVG Version: 6.00 Build 0)  -->
<svg version="1.1" id="Layer_1" xmlns="http://www.w3.org/2000/svg" xmlns:xlink="http://www.w3.org/1999/xlink" x="0px" y="0px"
	 viewBox="0 0 500 258" style="enable-background:new 0 0 500 258;" xml:space="preserve">
<style type="text/css">
	.st0{fill:#E9EAED;}
	.st1{fill:#FFFFFF;}
	.st2{opacity:0.57;fill:#EEF0F3;enable-background:new    ;}
	.st3{fill:#949CA8;}
	.st4{fill:#EEF0F3;}
</style>
<g>
	<rect class="st0" width="500" height="258"/>
</g>
<g>
	<rect class="st1" width="114.8" height="258"/>
</g>
<path class="st2" d="M460,124.4h-156c-1.5,0-2.7-1.1-2.7-2.6V20.2c0-1.4,1.2-2.6,2.7-2.6h156c1.5,0,2.7,1.1,2.7,2.6v101.7
	C462.7,123.3,461.6,124.4,460,124.4z"/>
<path class="st2" d="M287.4,124.4h-156c-1.5,0-2.7-1.1-2.7-2.6V20.2c0-1.4,1.2-2.6,2.7-2.6h156c1.5,0,2.7,1.1,2.7,2.6v101.7
	C290.1,123.3,289,124.4,287.4,124.4z"/>
<path class="st2" d="M460,243.8h-156c-1.5,0-2.7-1.1-2.7-2.6V139.6c0-1.4,1.2-2.6,2.7-2.6h156c1.5,0,2.7,1.1,2.7,2.6v101.7
	C462.7,242.7,461.6,243.8,460,243.8z"/>
<path class="st2" d="M287.4,243.8h-156c-1.5,0-2.7-1.1-2.7-2.6V139.6c0-1.4,1.2-2.6,2.7-2.6h156c1.5,0,2.7,1.1,2.7,2.6v101.7
	C290.1,242.7,289,243.8,287.4,243.8z"/>
<g>
	<path class="st3" d="M23.9,17.7l1.3,1.6l1.5,2l2.1-1.3l2.8-1.7V24H15.4v-5.7l3.2,2l2,1.2l1.5-1.8L23.9,17.7 M34.4,13.3l-7,4.3
		l-3.4-4.3l-3.8,4.6l-7.4-4.6v13.4h21.6L34.4,13.3L34.4,13.3z"/>
</g>
<path class="st4" d="M89,68.7H19.2c-3.6,0-6.5-2.9-6.5-6.5v-2c0-3.6,2.9-6.5,6.5-6.5H89c3.6,0,6.5,2.9,6.5,6.5v2
	C95.4,65.8,92.5,68.7,89,68.7z"/>
<path class="st4" d="M89,92.5H19.2c-3.6,0-6.5-2.9-6.5-6.5v-2c0-3.6,2.9-6.5,6.5-6.5H89c3.6,0,6.5,2.9,6.5,6.5v2
	C95.4,89.6,92.5,92.5,89,92.5z"/>
<path class="st4" d="M89,116.3H19.2c-3.6,0-6.5-2.9-6.5-6.5v-2c0-3.6,2.9-6.5,6.5-6.5H89c3.6,0,6.5,2.9,6.5,6.5v2
	C95.4,113.4,92.5,116.3,89,116.3z"/>
<path class="st4" d="M89,140.1H19.2c-3.6,0-6.5-2.9-6.5-6.5v-2c0-3.6,2.9-6.5,6.5-6.5H89c3.6,0,6.5,2.9,6.5,6.5v2
	C95.4,137.2,92.5,140.1,89,140.1z"/>
<path class="st4" d="M89,164H19.2c-3.6,0-6.5-2.9-6.5-6.5v-2c0-3.6,2.9-6.5,6.5-6.5H89c3.6,0,6.5,2.9,6.5,6.5v2
	C95.4,161,92.5,164,89,164z"/>
<path class="st4" d="M49.9,253.6H20.2c-4.1,0-7.5-3.4-7.5-7.5v0c0-4.1,3.4-7.5,7.5-7.5h29.7c4.1,0,7.5,3.4,7.5,7.5v0
	C57.4,250.2,54,253.6,49.9,253.6z"/>
</svg>
