<?xml version="1.0" encoding="utf-8"?>
<!-- Generator: Adobe Illustrator 26.0.0, SVG Export Plug-In . SVG Version: 6.00 Build 0)  -->
<svg version="1.1" id="Layer_1" xmlns="http://www.w3.org/2000/svg" xmlns:xlink="http://www.w3.org/1999/xlink" x="0px" y="0px"
	 viewBox="0 0 500 258" style="enable-background:new 0 0 500 258;" xml:space="preserve">
<style type="text/css">
	.st0{fill:#E9EAED;}
	.st1{fill:#FFFFFF;}
	.st2{fill:#949CA8;}
	.st3{fill:#EEF0F3;}
	.st4{fill:#C8D1D8;}
</style>
<g>
	<rect class="st0" width="500" height="258"/>
</g>
<g>
	<rect class="st1" width="114.8" height="258"/>
</g>
<g>
	<path class="st2" d="M26.5,11.1l1.3,1.6l1.5,2l2.1-1.3l2.8-1.7v5.7H18v-5.7l3.2,2l2,1.2l1.5-1.8L26.5,11.1 M37,6.7L30,11l-3.4-4.3
		l-3.8,4.6l-7.4-4.6V20H37V6.7L37,6.7z"/>
</g>
<path class="st3" d="M89,68.7H19.2c-3.6,0-6.5-2.9-6.5-6.5v-2c0-3.6,2.9-6.5,6.5-6.5H89c3.6,0,6.5,2.9,6.5,6.5v2
	C95.4,65.8,92.5,68.7,89,68.7z"/>
<path class="st3" d="M89,92.5H19.2c-3.6,0-6.5-2.9-6.5-6.5v-2c0-3.6,2.9-6.5,6.5-6.5H89c3.6,0,6.5,2.9,6.5,6.5v2
	C95.4,89.6,92.5,92.5,89,92.5z"/>
<path class="st3" d="M89,116.3H19.2c-3.6,0-6.5-2.9-6.5-6.5v-2c0-3.6,2.9-6.5,6.5-6.5H89c3.6,0,6.5,2.9,6.5,6.5v2
	C95.4,113.4,92.5,116.3,89,116.3z"/>
<path class="st3" d="M89,140.1H19.2c-3.6,0-6.5-2.9-6.5-6.5v-2c0-3.6,2.9-6.5,6.5-6.5H89c3.6,0,6.5,2.9,6.5,6.5v2
	C95.4,137.2,92.5,140.1,89,140.1z"/>
<path class="st3" d="M89,164H19.2c-3.6,0-6.5-2.9-6.5-6.5v-2c0-3.6,2.9-6.5,6.5-6.5H89c3.6,0,6.5,2.9,6.5,6.5v2
	C95.4,161,92.5,164,89,164z"/>
<path class="st3" d="M49.9,253.6H20.2c-4.1,0-7.5-3.4-7.5-7.5l0,0c0-4.1,3.4-7.5,7.5-7.5h29.7c4.1,0,7.5,3.4,7.5,7.5l0,0
	C57.4,250.2,54,253.6,49.9,253.6z"/>
<rect x="114.8" class="st1" width="385.2" height="32"/>
<path class="st3" d="M278.6,141H143c-6.5,0-11.7-5.3-11.7-11.7V54.7c0-6.5,5.3-11.7,11.7-11.7h135.6c6.5,0,11.7,5.3,11.7,11.7v74.5
	C290.3,135.7,285,141,278.6,141z"/>
<path class="st3" d="M456.3,141H320.8c-6.5,0-11.7-5.3-11.7-11.7V54.7c0-6.5,5.3-11.7,11.7-11.7h135.6c6.5,0,11.7,5.3,11.7,11.7
	v74.5C468,135.7,462.8,141,456.3,141z"/>
<path class="st3" d="M278.6,253.4H143c-6.5,0-11.7-5.3-11.7-11.7v-74.5c0-6.5,5.3-11.7,11.7-11.7h135.6c6.5,0,11.7,5.3,11.7,11.7
	v74.5C290.3,248.2,285,253.4,278.6,253.4z"/>
<path class="st3" d="M456.3,253.4H320.8c-6.5,0-11.7-5.3-11.7-11.7v-74.5c0-6.5,5.3-11.7,11.7-11.7h135.6c6.5,0,11.7,5.3,11.7,11.7
	v74.5C468,248.2,462.8,253.4,456.3,253.4z"/>
<path class="st3" d="M435.4,26H137.6c-3.4,0-6.2-2.8-6.2-6.2v-8c0-3.4,2.8-6.2,6.2-6.2h297.8c3.4,0,6.2,2.8,6.2,6.2v8
	C441.6,23.2,438.9,26,435.4,26z"/>
<path class="st4" d="M461.8,26h-8c-3.4,0-6.2-2.8-6.2-6.2v-8c0-3.4,2.8-6.2,6.2-6.2h8c3.4,0,6.2,2.8,6.2,6.2v8
	C468,23.2,465.2,26,461.8,26z"/>
</svg>
