<?xml version="1.0" encoding="utf-8"?>
<!-- Generator: Adobe Illustrator 26.0.0, SVG Export Plug-In . SVG Version: 6.00 Build 0)  -->
<svg version="1.1" id="Layer_1" xmlns="http://www.w3.org/2000/svg" xmlns:xlink="http://www.w3.org/1999/xlink" x="0px" y="0px"
	 viewBox="0 0 500 120" style="enable-background:new 0 0 500 120;" xml:space="preserve">
<style type="text/css">
	.st0{fill:#E9EAED;}
	.st1{fill:#FFFFFF;}
	.st2{fill:#DBDBDB;}
	.st3{fill:#C8D1D8;}
	.st4{fill:#C2C9D0;}
	.st5{fill:#8E99A3;}
	.st6{font-family:'ArialMT';}
	.st7{font-size:12px;}
	.st8{fill:#949CA8;}
</style>
<g>
	<rect class="st0" width="500" height="120"/>
</g>
<g>
	<rect y="69" class="st1" width="500" height="38.8"/>
</g>
<path class="st2" d="M232.9,93.7h-12.5c-2.5,0-4.6-2.1-4.6-4.6l0,0c0-2.5,2.1-4.6,4.6-4.6h12.5c2.5,0,4.6,2.1,4.6,4.6l0,0
	C237.5,91.6,235.4,93.7,232.9,93.7z"/>
<path class="st2" d="M256.7,93.7h-12.5c-2.5,0-4.6-2.1-4.6-4.6l0,0c0-2.5,2.1-4.6,4.6-4.6h12.5c2.5,0,4.6,2.1,4.6,4.6l0,0
	C261.2,91.6,259.2,93.7,256.7,93.7z"/>
<path class="st2" d="M280.6,93.7h-12.5c-2.5,0-4.6-2.1-4.6-4.6l0,0c0-2.5,2.1-4.6,4.6-4.6h12.5c2.5,0,4.6,2.1,4.6,4.6l0,0
	C285.2,91.6,283.2,93.7,280.6,93.7z"/>
<circle class="st3" cx="481.3" cy="89.1" r="10.6"/>
<circle class="st3" cx="456.6" cy="89.1" r="10.6"/>
<circle class="st3" cx="432" cy="89.1" r="10.6"/>
<circle class="st3" cx="407.4" cy="89.1" r="10.6"/>
<rect class="st4" width="500" height="69"/>
<rect x="94.9" y="8.5" class="st5" width="310.1" height="51.9"/>
<text transform="matrix(1 0 0 1 102.8511 22.7021)" class="st1 st6 st7">Ad</text>
<g>
	<path class="st8" d="M40.7,85l1.9,2.4l2.2,2.8l3.1-1.9l4.1-2.5v8.3H28.4v-8.3l4.7,2.9l2.9,1.8l2.2-2.6L40.7,85 M55.9,78.7L45.7,85
		l-4.9-6.3l-5.6,6.7l-10.8-6.7v19.5h31.5V78.7L55.9,78.7z"/>
</g>
</svg>
