<?xml version="1.0" encoding="utf-8"?>
<!-- Generator: Adobe Illustrator 26.0.0, SVG Export Plug-In . SVG Version: 6.00 Build 0)  -->
<svg version="1.1" id="Layer_1" xmlns="http://www.w3.org/2000/svg" xmlns:xlink="http://www.w3.org/1999/xlink" x="0px" y="0px"
	 viewBox="0 0 500 120" style="enable-background:new 0 0 500 120;" xml:space="preserve">
<style type="text/css">
	.st0{fill:#E9EAED;}
	.st1{fill:#FFFFFF;}
	.st2{fill:#EEF0F3;}
	.st3{fill:#C8D1D8;}
	.st4{fill:#949CA8;}
</style>
<g>
	<rect class="st0" width="500" height="120"/>
</g>
<g>
	<rect class="st1" width="500" height="54.5"/>
</g>
<path class="st2" d="M197.1,39.7H85.3c-6,0-11-4.9-11-11l0,0c0-6,4.9-11,11-11h111.8c6,0,11,4.9,11,11l0,0
	C208.1,34.8,203.2,39.7,197.1,39.7z"/>
<circle class="st3" cx="481.3" cy="26.9" r="10.6"/>
<circle class="st3" cx="456.1" cy="26.9" r="10.6"/>
<circle class="st3" cx="430.9" cy="27.3" r="10.6"/>
<path class="st3" d="M14.9,22.1H7.5c-1,0-1.8-0.8-1.8-1.8l0,0c0-1,0.8-1.8,1.8-1.8h7.4c1,0,1.8,0.8,1.8,1.8l0,0
	C16.6,21.3,15.8,22.1,14.9,22.1z"/>
<path class="st3" d="M20.3,28.7H7.5c-1,0-1.8-0.8-1.8-1.8l0,0c0-1,0.8-1.8,1.8-1.8h12.8c1,0,1.8,0.8,1.8,1.8l0,0
	C22.1,27.9,21.3,28.7,20.3,28.7z"/>
<path class="st3" d="M14.9,35.3H7.5c-1,0-1.8-0.8-1.8-1.8l0,0c0-1,0.8-1.8,1.8-1.8h7.4c1,0,1.8,0.8,1.8,1.8l0,0
	C16.6,34.5,15.8,35.3,14.9,35.3z"/>
<g>
	<path class="st4" d="M50.2,23.5l1.9,2.4l2.2,2.8l3.1-1.9l4.1-2.5v8.3H37.9v-8.3l4.7,2.9l2.9,1.8l2.2-2.6L50.2,23.5 M65.4,17.2
		l-10.2,6.3l-4.9-6.3l-5.6,6.7l-10.8-6.7v19.5h31.5V17.2L65.4,17.2z"/>
</g>
</svg>
