<?xml version="1.0" encoding="utf-8"?>
<!-- Generator: Adobe Illustrator 26.0.0, SVG Export Plug-In . SVG Version: 6.00 Build 0)  -->
<svg version="1.1" id="Layer_1" xmlns="http://www.w3.org/2000/svg" xmlns:xlink="http://www.w3.org/1999/xlink" x="0px" y="0px"
	 viewBox="0 0 500 120" style="enable-background:new 0 0 500 120;" xml:space="preserve">
<style type="text/css">
	.st0{fill:#E9EAED;}
	.st1{fill:#C8D1D8;}
	.st2{fill:#FFFFFF;}
	.st3{fill:#DBDBDB;}
	.st4{opacity:0.64;fill:#FFFFFF;enable-background:new    ;}
	.st5{opacity:0.72;fill:#FFFFFF;enable-background:new    ;}
	.st6{fill:#949CA8;}
</style>
<g>
	<rect class="st0" width="500" height="120"/>
</g>
<g>
	<rect class="st1" width="500" height="20.3"/>
</g>
<g>
	<rect y="20.9" class="st2" width="500" height="46.8"/>
</g>
<g>
	<rect y="68.1" class="st2" width="500" height="21.3"/>
</g>
<path class="st3" d="M44,83.3H31.4c-2.5,0-4.6-2.1-4.6-4.6l0,0c0-2.5,2.1-4.6,4.6-4.6H44c2.5,0,4.6,2.1,4.6,4.6l0,0
	C48.6,81.3,46.5,83.3,44,83.3z"/>
<path class="st3" d="M67.9,83.3H55.3c-2.5,0-4.6-2.1-4.6-4.6l0,0c0-2.5,2.1-4.6,4.6-4.6h12.5c2.5,0,4.6,2.1,4.6,4.6l0,0
	C72.5,81.3,70.4,83.3,67.9,83.3z"/>
<path class="st3" d="M91.7,83.3H79.2c-2.5,0-4.6-2.1-4.6-4.6l0,0c0-2.5,2.1-4.6,4.6-4.6h12.5c2.5,0,4.6,2.1,4.6,4.6l0,0
	C96.3,81.3,94.3,83.3,91.7,83.3z"/>
<path class="st0" d="M430,49c0,1.1-0.4,2-1.1,2.7s-1.7,1.1-2.7,1.1h-18.5c-2.1,0-3.9-1.7-3.9-3.9c0-1.1,0.4-2,1.1-2.7
	s1.7-1.1,2.7-1.1h18.5C428.3,45.1,430,46.9,430,49z"/>
<path class="st4" d="M48,13.6H30.3c-1.9,0-3.4-1.5-3.4-3.4v-0.1c0-1.9,1.5-3.4,3.4-3.4H48c1.9,0,3.4,1.5,3.4,3.4v0.1
	C51.4,12.1,49.8,13.6,48,13.6z"/>
<path class="st4" d="M76.5,13.6H58.8c-1.9,0-3.4-1.5-3.4-3.4v-0.1c0-1.9,1.5-3.4,3.4-3.4h17.7c1.9,0,3.4,1.5,3.4,3.4v0.1
	C79.9,12.1,78.4,13.6,76.5,13.6z"/>
<path class="st4" d="M105.1,13.6H87.3c-1.9,0-3.4-1.5-3.4-3.4v-0.1c0-1.9,1.5-3.4,3.4-3.4H105c1.9,0,3.4,1.5,3.4,3.4v0.1
	C108.4,12.1,106.9,13.6,105.1,13.6z"/>
<circle class="st5" cx="484.9" cy="10.2" r="3.7"/>
<circle class="st5" cx="474.1" cy="10.2" r="3.7"/>
<circle class="st5" cx="463.3" cy="10.2" r="3.7"/>
<circle class="st5" cx="452.5" cy="10.2" r="3.7"/>
<circle class="st5" cx="441.7" cy="10.2" r="3.7"/>
<circle class="st5" cx="430.9" cy="10.2" r="3.7"/>
<circle class="st1" cx="414" cy="78.7" r="7.7"/>
<circle class="st0" cx="416.9" cy="36.5" r="6.4"/>
<path class="st0" d="M458.3,49.1c0,1.1-0.4,2-1.1,2.7s-1.7,1.1-2.7,1.1H436c-2.1,0-3.9-1.7-3.9-3.9c0-1.1,0.4-2,1.1-2.7
	s1.7-1.1,2.7-1.1h18.5C456.5,45.2,458.3,46.9,458.3,49.1z"/>
<circle class="st0" cx="445.2" cy="36.6" r="6.4"/>
<path class="st0" d="M486.7,49.1c0,1.1-0.4,2-1.1,2.7s-1.7,1.1-2.7,1.1h-18.5c-2.1,0-3.9-1.7-3.9-3.9c0-1.1,0.4-2,1.1-2.7
	s1.7-1.1,2.7-1.1h18.5C485,45.2,486.7,46.9,486.7,49.1z"/>
<circle class="st0" cx="473.6" cy="36.6" r="6.4"/>
<circle class="st1" cx="436.1" cy="78.7" r="7.7"/>
<circle class="st1" cx="458.2" cy="78.7" r="7.7"/>
<circle class="st1" cx="480.2" cy="78.7" r="7.7"/>
<path class="st0" d="M167.2,53.9h-97c-4.7,0-8.6-3.9-8.6-8.6l0,0c0-4.7,3.9-8.6,8.6-8.6h97c4.7,0,8.6,3.9,8.6,8.6l0,0
	C175.8,50,171.9,53.9,167.2,53.9z"/>
<g>
	<path class="st6" d="M39,40.9l1.9,2.4l2.2,2.8l3.1-1.9l4.1-2.5v8.3H26.7v-8.3l4.7,2.9l2.9,1.8l2.2-2.6L39,40.9 M54.3,34.6
		l-10.2,6.3l-4.9-6.3l-5.6,6.7l-10.8-6.7v19.5h31.5V34.6L54.3,34.6z"/>
</g>
</svg>
