<?xml version="1.0" encoding="utf-8"?>
<!-- Generator: Adobe Illustrator 26.0.0, SVG Export Plug-In . SVG Version: 6.00 Build 0)  -->
<svg version="1.1" id="Layer_1" xmlns="http://www.w3.org/2000/svg" xmlns:xlink="http://www.w3.org/1999/xlink" x="0px" y="0px"
	 viewBox="0 0 500 120" style="enable-background:new 0 0 500 120;" xml:space="preserve">
<style type="text/css">
	.st0{fill:#E9EAED;}
	.st1{fill:#FFFFFF;}
	.st2{fill:#EEF0F3;}
	.st3{fill:#C8D1D8;}
	.st4{fill:#949CA8;}
</style>
<g>
	<rect class="st0" width="500" height="120"/>
</g>
<g>
	<rect class="st1" width="500" height="54.5"/>
</g>
<path class="st2" d="M71.6,41h-7.3c-5.5,0-10-4.5-10-10v-7.3c0-5.5,4.5-10,10-10h7.3c5.5,0,10,4.5,10,10v7.3
	C81.5,36.6,77.1,41,71.6,41z"/>
<path class="st3" d="M74.3,28.8H61.5c-1,0-1.8-0.6-1.8-1.3l0,0c0-0.7,0.8-1.3,1.8-1.3h12.8c1,0,1.8,0.6,1.8,1.3l0,0
	C76.1,28.2,75.3,28.8,74.3,28.8z"/>
<path class="st3" d="M74.3,33.7H61.5c-1,0-1.8-0.6-1.8-1.3l0,0c0-0.7,0.8-1.3,1.8-1.3h12.8c1,0,1.8,0.6,1.8,1.3l0,0
	C76.1,33.1,75.3,33.7,74.3,33.7z"/>
<path class="st3" d="M74.3,23.8H61.5c-1,0-1.8-0.6-1.8-1.3l0,0c0-0.7,0.8-1.3,1.8-1.3h12.8c1,0,1.8,0.6,1.8,1.3l0,0
	C76.1,23.2,75.3,23.8,74.3,23.8z"/>
<path class="st2" d="M393.4,41.2H95.2c-5.5,0-10-4.5-10-10v-7.6c0-5.5,4.5-10,10-10h298.2c5.5,0,10,4.5,10,10v7.6
	C403.3,36.7,398.9,41.2,393.4,41.2z"/>
<g>
	<path class="st4" d="M26.3,22.5l2.4,3.1l2.2,2.8l3.1-1.9l5.2-3.2v10.3H12.3V23.3l5.8,3.6l2.9,1.8l2.2-2.6L26.3,22.5 M43.1,16.2
		l-11.3,7l-5.4-7l-6.2,7.4L8.3,16.2v21.5h34.8V16.2L43.1,16.2z"/>
</g>
<path class="st2" d="M425.8,41h-7.3c-5.5,0-10-4.5-10-10v-7.3c0-5.5,4.5-10,10-10h7.3c5.5,0,10,4.5,10,10v7.3
	C435.7,36.6,431.3,41,425.8,41z"/>
<path class="st2" d="M456.1,41h-7.3c-5.5,0-10-4.5-10-10v-7.3c0-5.5,4.5-10,10-10h7.3c5.5,0,10,4.5,10,10v7.3
	C466,36.6,461.6,41,456.1,41z"/>
<path class="st2" d="M486.4,41h-7.3c-5.5,0-10-4.5-10-10v-7.3c0-5.5,4.5-10,10-10h7.3c5.5,0,10,4.5,10,10v7.3
	C496.3,36.6,491.8,41,486.4,41z"/>
</svg>
