<?xml version="1.0" encoding="utf-8"?>
<!-- Generator: Adobe Illustrator 23.0.0, SVG Export Plug-In . SVG Version: 6.00 Build 0)  -->
<svg version="1.1" id="Layer_1" xmlns="http://www.w3.org/2000/svg" xmlns:xlink="http://www.w3.org/1999/xlink" x="0px" y="0px"
	 viewBox="0 0 250 160" style="enable-background:new 0 0 250 160;" xml:space="preserve">
<style type="text/css">
	.st0{fill:#E9EAED;}
	.st1{opacity:0.6;fill:#FFFFFF;}
</style>
<rect y="0" class="st0" width="250" height="160"/>
<path class="st1" d="M80.6,75.4H19.4c-1.9,0-3.4-1.5-3.4-3.4V20c0-1.9,1.5-3.4,3.4-3.4h61.2c1.9,0,3.4,1.5,3.4,3.4v52
	C84,73.9,82.5,75.4,80.6,75.4z"/>
<path class="st1" d="M154.6,75.4H93.4c-1.9,0-3.4-1.5-3.4-3.4V20c0-1.9,1.5-3.4,3.4-3.4h61.2c1.9,0,3.4,1.5,3.4,3.4v52
	C158,73.9,156.5,75.4,154.6,75.4z"/>
<path class="st1" d="M228.6,75.4h-61.2c-1.9,0-3.4-1.5-3.4-3.4V20c0-1.9,1.5-3.4,3.4-3.4h61.2c1.9,0,3.4,1.5,3.4,3.4v52
	C232,73.9,230.5,75.4,228.6,75.4z"/>
<path class="st1" d="M80.6,143.4H19.4c-1.9,0-3.4-1.5-3.4-3.4V88c0-1.9,1.5-3.4,3.4-3.4h61.2c1.9,0,3.4,1.5,3.4,3.4v52
	C84,141.9,82.5,143.4,80.6,143.4z"/>
<path class="st1" d="M154.6,143.4H93.4c-1.9,0-3.4-1.5-3.4-3.4V88c0-1.9,1.5-3.4,3.4-3.4h61.2c1.9,0,3.4,1.5,3.4,3.4v52
	C158,141.9,156.5,143.4,154.6,143.4z"/>
<path class="st1" d="M228.6,143.4h-61.2c-1.9,0-3.4-1.5-3.4-3.4V88c0-1.9,1.5-3.4,3.4-3.4h61.2c1.9,0,3.4,1.5,3.4,3.4v52
	C232,141.9,230.5,143.4,228.6,143.4z"/>
</svg>
