<?xml version="1.0" encoding="utf-8"?>
<!-- Generator: Adobe Illustrator 23.0.0, SVG Export Plug-In . SVG Version: 6.00 Build 0)  -->
<svg version="1.1" id="Layer_1" xmlns="http://www.w3.org/2000/svg" xmlns:xlink="http://www.w3.org/1999/xlink" x="0px" y="0px"
	 viewBox="0 0 250 160" style="enable-background:new 0 0 250 160;" xml:space="preserve">
<style type="text/css">
	.st0{fill:#E9EAED;}
	.st1{opacity:0.6;fill:#FFFFFF;}
</style>
<rect y="0" class="st0" width="250" height="160"/>
<path class="st1" d="M113.4,75.4h-94c-1.9,0-3.4-1.5-3.4-3.4V20c0-1.9,1.5-3.4,3.4-3.4h94c1.9,0,3.4,1.5,3.4,3.4v52
	C116.8,73.9,115.3,75.4,113.4,75.4z"/>
<path class="st1" d="M113.4,143.4h-94c-1.9,0-3.4-1.5-3.4-3.4V88c0-1.9,1.5-3.4,3.4-3.4h94c1.9,0,3.4,1.5,3.4,3.4v52
	C116.8,141.9,115.3,143.4,113.4,143.4z"/>
<path class="st1" d="M228.6,143.4h-94c-1.9,0-3.4-1.5-3.4-3.4V88c0-1.9,1.5-3.4,3.4-3.4h94c1.9,0,3.4,1.5,3.4,3.4v52
	C232,141.9,230.5,143.4,228.6,143.4z"/>
<path class="st1" d="M228.6,75.4h-94c-1.9,0-3.4-1.5-3.4-3.4V20c0-1.9,1.5-3.4,3.4-3.4h94c1.9,0,3.4,1.5,3.4,3.4v52
	C232,73.9,230.5,75.4,228.6,75.4z"/>
</svg>
