<?xml version="1.0" encoding="utf-8"?>
<!-- Generator: Adobe Illustrator 23.0.0, SVG Export Plug-In . SVG Version: 6.00 Build 0)  -->
<svg version="1.1" id="Layer_1" xmlns="http://www.w3.org/2000/svg" xmlns:xlink="http://www.w3.org/1999/xlink" x="0px" y="0px"
	 viewBox="0 0 250 160" style="enable-background:new 0 0 250 160;" xml:space="preserve">
<style type="text/css">
	.st0{fill:#E9EAED;}
	.st1{opacity:0.6;fill:#FFFFFF;}
</style>
<rect y="0" class="st0" width="250" height="160"/>
<path class="st1" d="M50.8,76.4H19.4c-1.9,0-3.4-1.5-3.4-3.4V21c0-1.9,1.5-3.4,3.4-3.4h31.4c1.9,0,3.4,1.5,3.4,3.4v52
	C54.2,74.9,52.6,76.4,50.8,76.4z"/>
<path class="st1" d="M95.2,76.4H63.9c-1.9,0-3.4-1.5-3.4-3.4V21c0-1.9,1.5-3.4,3.4-3.4h31.4c1.9,0,3.4,1.5,3.4,3.4v52
	C98.6,74.9,97.1,76.4,95.2,76.4z"/>
<path class="st1" d="M139.7,76.4h-31.4c-1.9,0-3.4-1.5-3.4-3.4V21c0-1.9,1.5-3.4,3.4-3.4h31.4c1.9,0,3.4,1.5,3.4,3.4v52
	C143.1,74.9,141.6,76.4,139.7,76.4z"/>
<path class="st1" d="M184.1,76.4h-31.4c-1.9,0-3.4-1.5-3.4-3.4V21c0-1.9,1.5-3.4,3.4-3.4h31.4c1.9,0,3.4,1.5,3.4,3.4v52
	C187.5,74.9,186,76.4,184.1,76.4z"/>
<path class="st1" d="M228.6,76.4h-31.4c-1.9,0-3.4-1.5-3.4-3.4V21c0-1.9,1.5-3.4,3.4-3.4h31.4c1.9,0,3.4,1.5,3.4,3.4v52
	C232,74.9,230.5,76.4,228.6,76.4z"/>
<path class="st1" d="M50.8,143.4H19.4c-1.9,0-3.4-1.5-3.4-3.4V88c0-1.9,1.5-3.4,3.4-3.4h31.4c1.9,0,3.4,1.5,3.4,3.4v52
	C54.2,141.9,52.6,143.4,50.8,143.4z"/>
<path class="st1" d="M95.2,143.4H63.9c-1.9,0-3.4-1.5-3.4-3.4V88c0-1.9,1.5-3.4,3.4-3.4h31.4c1.9,0,3.4,1.5,3.4,3.4v52
	C98.6,141.9,97.1,143.4,95.2,143.4z"/>
<path class="st1" d="M139.7,143.4h-31.4c-1.9,0-3.4-1.5-3.4-3.4V88c0-1.9,1.5-3.4,3.4-3.4h31.4c1.9,0,3.4,1.5,3.4,3.4v52
	C143.1,141.9,141.6,143.4,139.7,143.4z"/>
<path class="st1" d="M184.1,143.4h-31.4c-1.9,0-3.4-1.5-3.4-3.4V88c0-1.9,1.5-3.4,3.4-3.4h31.4c1.9,0,3.4,1.5,3.4,3.4v52
	C187.5,141.9,186,143.4,184.1,143.4z"/>
<path class="st1" d="M228.6,143.4h-31.4c-1.9,0-3.4-1.5-3.4-3.4V88c0-1.9,1.5-3.4,3.4-3.4h31.4c1.9,0,3.4,1.5,3.4,3.4v52
	C232,141.9,230.5,143.4,228.6,143.4z"/>
</svg>
