<?xml version="1.0" encoding="utf-8"?>
<!-- Generator: Adobe Illustrator 23.0.0, SVG Export Plug-In . SVG Version: 6.00 Build 0)  -->
<svg version="1.1" id="Layer_1" xmlns="http://www.w3.org/2000/svg" xmlns:xlink="http://www.w3.org/1999/xlink" x="0px" y="0px"
	 viewBox="0 0 250 160" style="enable-background:new 0 0 250 160;" xml:space="preserve">
<style type="text/css">
	.st0{fill:#E9EAED;}
	.st1{opacity:0.6;fill:#FFFFFF;}
</style>
<rect y="0" class="st0" width="250" height="160"/>
<path class="st1" d="M228.6,75.4h-45.1c-1.9,0-3.4-1.5-3.4-3.4V20c0-1.9,1.5-3.4,3.4-3.4h45.1c1.9,0,3.4,1.5,3.4,3.4v52
	C232,73.9,230.5,75.4,228.6,75.4z"/>
<path class="st1" d="M173.9,75.4h-45.1c-1.9,0-3.4-1.5-3.4-3.4V20c0-1.9,1.5-3.4,3.4-3.4h45.1c1.9,0,3.4,1.5,3.4,3.4v52
	C177.3,73.9,175.8,75.4,173.9,75.4z"/>
<path class="st1" d="M119.2,75.4H74.1c-1.9,0-3.4-1.5-3.4-3.4V20c0-1.9,1.5-3.4,3.4-3.4h45.1c1.9,0,3.4,1.5,3.4,3.4v52
	C122.6,73.9,121.1,75.4,119.2,75.4z"/>
<path class="st1" d="M64.5,75.4H19.4c-1.9,0-3.4-1.5-3.4-3.4V20c0-1.9,1.5-3.4,3.4-3.4h45.1c1.9,0,3.4,1.5,3.4,3.4v52
	C67.9,73.9,66.3,75.4,64.5,75.4z"/>
<path class="st1" d="M228.6,143.4h-45.1c-1.9,0-3.4-1.5-3.4-3.4V88c0-1.9,1.5-3.4,3.4-3.4h45.1c1.9,0,3.4,1.5,3.4,3.4v52
	C232,141.9,230.5,143.4,228.6,143.4z"/>
<path class="st1" d="M173.9,143.4h-45.1c-1.9,0-3.4-1.5-3.4-3.4V88c0-1.9,1.5-3.4,3.4-3.4h45.1c1.9,0,3.4,1.5,3.4,3.4v52
	C177.3,141.9,175.8,143.4,173.9,143.4z"/>
<path class="st1" d="M119.2,143.4H74.1c-1.9,0-3.4-1.5-3.4-3.4V88c0-1.9,1.5-3.4,3.4-3.4h45.1c1.9,0,3.4,1.5,3.4,3.4v52
	C122.6,141.9,121.1,143.4,119.2,143.4z"/>
<path class="st1" d="M64.5,143.4H19.4c-1.9,0-3.4-1.5-3.4-3.4V88c0-1.9,1.5-3.4,3.4-3.4h45.1c1.9,0,3.4,1.5,3.4,3.4v52
	C67.9,141.9,66.3,143.4,64.5,143.4z"/>
</svg>
