<?xml version="1.0" encoding="utf-8"?>
<!-- Generator: Adobe Illustrator 23.0.0, SVG Export Plug-In . SVG Version: 6.00 Build 0)  -->
<svg version="1.1" id="Layer_1" xmlns="http://www.w3.org/2000/svg" xmlns:xlink="http://www.w3.org/1999/xlink" x="0px" y="0px"
	 viewBox="0 0 140 140" style="enable-background:new 0 0 140 140;" xml:space="preserve">
<style type="text/css">
	.st0{fill:#E9EAED;}
	.st1{fill:#A8B6C0;}
	.st2{fill:#798893;}
	.st3{fill:#FFFFFF;}
	.st4{fill:#e3e6e9;}
</style>
<g>
	<rect x="0.5" y="0.5" class="st0" width="139" height="139"/>
	
</g>
<g>
	<path class="st2" d="M93.65,55.01H14.86c-1.19,0-2.16-0.97-2.16-2.16V9.73c0-1.19,0.97-2.16,2.16-2.16h78.78
		c1.19,0,2.16,0.97,2.16,2.16v43.11C95.81,54.04,94.84,55.01,93.65,55.01z"/>
</g>
<path class="st3" d="M94.81,126.88H13.7c-0.55,0-1-0.45-1-1v-57.4c0-0.55,0.45-1,1-1h81.11c0.55,0,1,0.45,1,1v57.4
	C95.81,126.43,95.36,126.88,94.81,126.88z"/>
<path class="st3" d="M94.57,146H13.44c-0.55,0-1-0.45-1-1v-19.88c0-0.55,0.45-1,1-1h81.13c0.55,0,1,0.45,1,1V145
	C95.57,145.55,95.12,146,94.57,146z"/>
<path class="st3" d="M94.81,64.13H13.69c-0.55,0-1-0.45-1-1v-5.25c0-0.55,0.45-1,1-1h81.13c0.55,0,1,0.45,1,1v5.25
	C95.81,63.68,95.36,64.13,94.81,64.13z"/>
<path class="st3" d="M94.57,172.25H13.44c-0.55,0-1-0.45-1-1v-19.88c0-0.55,0.45-1,1-1h81.13c0.55,0,1,0.45,1,1v19.88
	C95.57,171.8,95.12,172.25,94.57,172.25z"/>
<path class="st4" d="M89.46,74.48H19.04c-1.2,0-2.19-0.98-2.19-2.19v0c0-1.2,0.98-2.19,2.19-2.19h70.43c1.2,0,2.19,0.98,2.19,2.19v0
	C91.65,73.5,90.66,74.48,89.46,74.48z"/>
<path class="st4" d="M56.22,75.66H19.04c-1.2,0-2.19,0.98-2.19,2.19v0c0,1.2,0.98,2.19,2.19,2.19h37.18c1.2,0,2.19-0.98,2.19-2.19v0
	C58.4,76.64,57.42,75.66,56.22,75.66z"/>
<path class="st4" d="M88.25,109.38h-68c-1.87,0-3.4-1.53-3.4-3.4V87.56c0-1.87,1.53-3.4,3.4-3.4h68c1.87,0,3.4,1.53,3.4,3.4v18.41
	C91.66,107.85,90.12,109.38,88.25,109.38z"/>
<path class="st4" d="M88.25,113.76h-68c-1.87,0-3.4,1.53-3.4,3.4v1.95c0,1.87,1.53,3.4,3.4,3.4h68c1.87,0,3.4-1.53,3.4-3.4v-1.95
	C91.66,115.29,90.12,113.76,88.25,113.76z"/>
<path class="st1" d="M63.16,141.63H44.87c-1.2,0-2.19-0.98-2.19-2.19l0,0c0-1.2,0.98-2.19,2.19-2.19h18.29
	c1.2,0,2.19,0.98,2.19,2.19l0,0C65.35,140.64,64.36,141.63,63.16,141.63z"/>
<path class="st4" d="M89.53,156.81H19.1c-1.2,0-2.19-0.98-2.19-2.19l0,0c0-1.2,0.98-2.19,2.19-2.19h70.44c1.2,0,2.19,0.98,2.19,2.19
	l0,0C91.72,155.83,90.74,156.81,89.53,156.81z"/>
<path class="st4" d="M30.13,158.06h-5.67c-1.87,0-3.4,1.53-3.4,3.4v6.32c0,1.87,1.53,3.4,3.4,3.4h5.67c1.87,0,3.4-1.53,3.4-3.4
	v-6.32C33.53,159.59,32,158.06,30.13,158.06z"/>
<path class="st4" d="M46.76,158.06h-5.67c-1.87,0-3.4,1.53-3.4,3.4v6.32c0,1.87,1.53,3.4,3.4,3.4h5.67c1.87,0,3.4-1.53,3.4-3.4
	v-6.32C50.16,159.59,48.63,158.06,46.76,158.06z"/>
<path class="st4" d="M63.38,158.06h-5.67c-1.87,0-3.4,1.53-3.4,3.4v6.32c0,1.87,1.53,3.4,3.4,3.4h5.67c1.87,0,3.4-1.53,3.4-3.4
	v-6.32C66.78,159.59,65.25,158.06,63.38,158.06z"/>
<path class="st4" d="M80.01,158.06h-5.67c-1.87,0-3.4,1.53-3.4,3.4v6.32c0,1.87,1.53,3.4,3.4,3.4h5.67c1.87,0,3.4-1.53,3.4-3.4
	v-6.32C83.41,159.59,81.88,158.06,80.01,158.06z"/>
<path class="st3" d="M129.06,11.94h-26.25c-1.2,0-2.19-0.98-2.19-2.19v0c0-1.2,0.98-2.19,2.19-2.19h26.25c1.2,0,2.19,0.98,2.19,2.19
	v0C131.25,10.96,130.27,11.94,129.06,11.94z"/>
<path class="st3" d="M127.85,36.69h-23.82c-1.87,0-3.4-1.53-3.4-3.4V18.22c0-1.87,1.53-3.4,3.4-3.4h23.82c1.87,0,3.4,1.53,3.4,3.4
	v15.07C131.25,35.16,129.72,36.69,127.85,36.69z"/>
<path class="st3" d="M127.85,62.94h-23.82c-1.87,0-3.4-1.53-3.4-3.4V44.47c0-1.87,1.53-3.4,3.4-3.4h23.82c1.87,0,3.4,1.53,3.4,3.4
	v15.07C131.25,61.41,129.72,62.94,127.85,62.94z"/>
<path class="st3" d="M127.85,89.19h-23.82c-1.87,0-3.4-1.53-3.4-3.4V70.72c0-1.87,1.53-3.4,3.4-3.4h23.82c1.87,0,3.4,1.53,3.4,3.4
	v15.07C131.25,87.66,129.72,89.19,127.85,89.19z"/>
<path class="st3" d="M127.85,115.44h-23.82c-1.87,0-3.4-1.53-3.4-3.4V96.97c0-1.87,1.53-3.4,3.4-3.4h23.82c1.87,0,3.4,1.53,3.4,3.4
	v15.07C131.25,113.91,129.72,115.44,127.85,115.44z"/>
<circle class="st1" cx="54.32" cy="130.88" r="4.38"/>
<g>
	<path class="st3" d="M57.75,28.31v-1.26c0-0.17-0.2-0.28-0.34-0.18l-1.82,1.27l-1.11-1.31c-0.09-0.1-0.24-0.1-0.33,0l-1.11,1.31
		l-1.82-1.27c-0.14-0.1-0.34,0-0.34,0.18v1.24c0,1.9,1.56,3.47,3.46,3.46c0.12,0,0.24-0.01,0.36-0.02v4.1c3.5,0,3.86-3.07,3.88-4.16
		c0-0.17-0.18-0.28-0.33-0.19l-2.82,1.67v-1.58C56.78,31.09,57.75,29.81,57.75,28.31z"/>
	<path class="st3" d="M50.4,31.66c0.02,1.09,0.38,4.17,3.88,4.17v-2.27l-3.55-2.08C50.58,31.38,50.4,31.49,50.4,31.66z"/>
</g>
<path class="st3" d="M89.44,52.02L89.44,52.02c-1.22,0-2.21-1-2.21-2.21v-4.26c0-1.22,1-2.21,2.21-2.21l0,0c1.22,0,2.21,1,2.21,2.21
	v4.26C91.65,51.02,90.65,52.02,89.44,52.02z"/>
<path class="st3" d="M57.6,52.87h-6.21c-1.19,0-2.17-0.98-2.17-2.17v0c0-1.19,0.98-2.17,2.17-2.17h6.21c1.19,0,2.17,0.98,2.17,2.17
	v0C59.77,51.89,58.79,52.87,57.6,52.87z"/>
</svg>
