<?xml version="1.0" encoding="utf-8"?>
<!-- Generator: Adobe Illustrator 23.0.0, SVG Export Plug-In . SVG Version: 6.00 Build 0)  -->
<svg version="1.1" id="Layer_1" xmlns="http://www.w3.org/2000/svg" xmlns:xlink="http://www.w3.org/1999/xlink" x="0px" y="0px"
	 viewBox="0 0 140 140" style="enable-background:new 0 0 140 140;" xml:space="preserve">
<style type="text/css">
	.st0{fill:#E9EAED;}
	.st1{fill:#A8B6C0;}
	.st2{fill:#798893;}
	.st3{fill:#FFFFFF;}
	.st4{fill:#e3e6e9;}
</style>
<g>
	<rect x="0.5" y="0.5" class="st0" width="139" height="139"/>
	
</g>
<g>
	<rect x="0" y="0" class="st1" width="140" height="47.44"/>
</g>
<g>
	<rect x="23.66" y="0" class="st2" width="92.26" height="47.44"/>
</g>
<path class="st3" d="M94.57,119.63H13.46c-0.55,0-1-0.45-1-1v-57.4c0-0.55,0.45-1,1-1h81.11c0.55,0,1,0.45,1,1v57.4
	C95.57,119.18,95.12,119.63,94.57,119.63z"/>
<path class="st3" d="M94.57,146H13.44c-0.55,0-1-0.45-1-1v-19.88c0-0.55,0.45-1,1-1h81.13c0.55,0,1,0.45,1,1V145
	C95.57,145.55,95.12,146,94.57,146z"/>
<path class="st3" d="M94.57,56.88H13.44c-0.55,0-1-0.45-1-1v-5.25c0-0.55,0.45-1,1-1h81.13c0.55,0,1,0.45,1,1v5.25
	C95.57,56.42,95.12,56.88,94.57,56.88z"/>
<path class="st3" d="M94.57,172.25H13.44c-0.55,0-1-0.45-1-1v-19.88c0-0.55,0.45-1,1-1h81.13c0.55,0,1,0.45,1,1v19.88
	C95.57,171.8,95.12,172.25,94.57,172.25z"/>
<path class="st4" d="M89.22,67.22H18.79c-1.2,0-2.19-0.98-2.19-2.19v0c0-1.2,0.98-2.19,2.19-2.19h70.43c1.2,0,2.19,0.98,2.19,2.19v0
	C91.41,66.24,90.42,67.22,89.22,67.22z"/>
<path class="st4" d="M55.97,68.4H18.79c-1.2,0-2.19,0.98-2.19,2.19v0c0,1.2,0.98,2.19,2.19,2.19h37.18c1.2,0,2.19-0.98,2.19-2.19v0
	C58.16,69.38,57.18,68.4,55.97,68.4z"/>
<path class="st4" d="M88.01,102.13h-68c-1.87,0-3.4-1.53-3.4-3.4V80.31c0-1.87,1.53-3.4,3.4-3.4h68c1.87,0,3.4,1.53,3.4,3.4v18.41
	C91.41,100.59,89.88,102.13,88.01,102.13z"/>
<path class="st4" d="M88.01,106.5h-68c-1.87,0-3.4,1.53-3.4,3.4v1.95c0,1.87,1.53,3.4,3.4,3.4h68c1.87,0,3.4-1.53,3.4-3.4v-1.95
	C91.41,108.03,89.88,106.5,88.01,106.5z"/>
<path class="st1" d="M63.16,141.63H44.87c-1.2,0-2.19-0.98-2.19-2.19l0,0c0-1.2,0.98-2.19,2.19-2.19h18.29
	c1.2,0,2.19,0.98,2.19,2.19l0,0C65.35,140.64,64.36,141.63,63.16,141.63z"/>
<path class="st4" d="M89.53,156.81H19.1c-1.2,0-2.19-0.98-2.19-2.19l0,0c0-1.2,0.98-2.19,2.19-2.19h70.44c1.2,0,2.19,0.98,2.19,2.19
	l0,0C91.72,155.83,90.74,156.81,89.53,156.81z"/>
<path class="st4" d="M30.13,158.06h-5.67c-1.87,0-3.4,1.53-3.4,3.4v6.32c0,1.87,1.53,3.4,3.4,3.4h5.67c1.87,0,3.4-1.53,3.4-3.4
	v-6.32C33.53,159.59,32,158.06,30.13,158.06z"/>
<path class="st4" d="M46.76,158.06h-5.67c-1.87,0-3.4,1.53-3.4,3.4v6.32c0,1.87,1.53,3.4,3.4,3.4h5.67c1.87,0,3.4-1.53,3.4-3.4
	v-6.32C50.16,159.59,48.63,158.06,46.76,158.06z"/>
<path class="st4" d="M63.38,158.06h-5.67c-1.87,0-3.4,1.53-3.4,3.4v6.32c0,1.87,1.53,3.4,3.4,3.4h5.67c1.87,0,3.4-1.53,3.4-3.4
	v-6.32C66.78,159.59,65.25,158.06,63.38,158.06z"/>
<path class="st4" d="M80.01,158.06h-5.67c-1.87,0-3.4,1.53-3.4,3.4v6.32c0,1.87,1.53,3.4,3.4,3.4h5.67c1.87,0,3.4-1.53,3.4-3.4
	v-6.32C83.41,159.59,81.88,158.06,80.01,158.06z"/>
<path class="st3" d="M129.06,54h-26.25c-1.2,0-2.19-0.98-2.19-2.19v0c0-1.2,0.98-2.19,2.19-2.19h26.25c1.2,0,2.19,0.98,2.19,2.19v0
	C131.25,53.02,130.27,54,129.06,54z"/>
<path class="st3" d="M127.85,78.75h-23.82c-1.87,0-3.4-1.53-3.4-3.4V60.28c0-1.87,1.53-3.4,3.4-3.4h23.82c1.87,0,3.4,1.53,3.4,3.4
	v15.07C131.25,77.22,129.72,78.75,127.85,78.75z"/>
<path class="st3" d="M127.85,105h-23.82c-1.87,0-3.4-1.53-3.4-3.4V86.53c0-1.87,1.53-3.4,3.4-3.4h23.82c1.87,0,3.4,1.53,3.4,3.4
	v15.07C131.25,103.47,129.72,105,127.85,105z"/>
<path class="st3" d="M127.85,131.25h-23.82c-1.87,0-3.4-1.53-3.4-3.4v-15.07c0-1.87,1.53-3.4,3.4-3.4h23.82c1.87,0,3.4,1.53,3.4,3.4
	v15.07C131.25,129.72,129.72,131.25,127.85,131.25z"/>
<path class="st3" d="M127.85,157.5h-23.82c-1.87,0-3.4-1.53-3.4-3.4v-15.07c0-1.87,1.53-3.4,3.4-3.4h23.82c1.87,0,3.4,1.53,3.4,3.4
	v15.07C131.25,155.97,129.72,157.5,127.85,157.5z"/>
<circle class="st1" cx="54.32" cy="130.88" r="4.38"/>
<g>
	<path class="st3" d="M73.99,21.05v-1.26c0-0.17-0.2-0.28-0.34-0.18l-1.82,1.27l-1.11-1.31c-0.09-0.1-0.24-0.1-0.33,0l-1.11,1.31
		l-1.82-1.27c-0.14-0.1-0.34,0-0.34,0.18v1.24c0,1.9,1.56,3.47,3.46,3.46c0.12,0,0.24-0.01,0.36-0.02v4.1c3.5,0,3.86-3.07,3.88-4.16
		c0-0.17-0.18-0.28-0.33-0.19l-2.82,1.67V24.3C73.02,23.84,73.99,22.56,73.99,21.05z"/>
	<path class="st3" d="M66.64,24.4c0.02,1.09,0.38,4.17,3.88,4.17V26.3l-3.55-2.08C66.82,24.13,66.64,24.24,66.64,24.4z"/>
</g>
<path class="st3" d="M111.68,45.3L111.68,45.3c-1.22,0-2.21-1-2.21-2.21v-4.26c0-1.22,1-2.21,2.21-2.21h0c1.22,0,2.21,1,2.21,2.21
	v4.26C113.89,44.3,112.9,45.3,111.68,45.3z"/>
<path class="st3" d="M73.84,45.3h-6.21c-1.19,0-2.17-0.98-2.17-2.17v0c0-1.19,0.98-2.17,2.17-2.17h6.21c1.19,0,2.17,0.98,2.17,2.17
	v0C76.01,44.32,75.03,45.3,73.84,45.3z"/>
</svg>
