<?xml version="1.0" encoding="utf-8"?>
<!-- Generator: Adobe Illustrator 23.0.0, SVG Export Plug-In . SVG Version: 6.00 Build 0)  -->
<svg version="1.1" id="Layer_1" xmlns="http://www.w3.org/2000/svg" xmlns:xlink="http://www.w3.org/1999/xlink" x="0px" y="0px"
	 viewBox="0 0 140 140" style="enable-background:new 0 0 140 140;" xml:space="preserve">
<style type="text/css">
	.st0{fill:#E9EAED;}
	.st1{fill:#A8B6C0;}
	.st2{fill:#FFFFFF;}
	.st3{fill:#E3E6E9;}
</style>
<g>
	<rect x="0.5" y="0.5" class="st0" width="139" height="139"/>
</g>
<g>
	<rect class="st1" width="140" height="43.4"/>
</g>
<path class="st2" d="M95.3,96.1H14.1c-0.6,0-1-0.4-1-1v-68c0-0.5,0.4-1,1-1h81.1c0.6,0,1,0.5,1,1v68C96.3,95.7,95.8,96.1,95.3,96.1z
	"/>
<path class="st2" d="M95.3,122.5H14.1c-0.6,0-1-0.4-1-1v-19.9c0-0.6,0.4-1,1-1h81.1c0.6,0,1,0.4,1,1v19.9
	C96.3,122.1,95.8,122.5,95.3,122.5z"/>
<path class="st2" d="M95.3,148.8H14.1c-0.6,0-1-0.4-1-1v-19.9c0-0.6,0.4-1,1-1h81.1c0.6,0,1,0.4,1,1v19.9
	C96.3,148.3,95.8,148.8,95.3,148.8z"/>
<path class="st3" d="M89.9,34.9H19.5c-1.2,0-2.2-1-2.2-2.2l0,0c0-1.2,1-2.2,2.2-2.2h70.4c1.2,0,2.2,1,2.2,2.2l0,0
	C92.1,33.9,91.1,34.9,89.9,34.9z"/>
<path class="st3" d="M56.7,36H19.5c-1.2,0-2.2,1-2.2,2.2l0,0c0,1.2,1,2.2,2.2,2.2h37.2c1.2,0,2.2-1,2.2-2.2l0,0
	C58.8,37,57.9,36,56.7,36z"/>
<path class="st1" d="M63.8,118.1H45.5c-1.2,0-2.2-1-2.2-2.2l0,0c0-1.2,1-2.2,2.2-2.2h18.3c1.2,0,2.2,1,2.2,2.2l0,0
	C66,117.1,65,118.1,63.8,118.1z"/>
<path class="st3" d="M90.2,133.3H19.8c-1.2,0-2.2-1-2.2-2.2l0,0c0-1.2,1-2.2,2.2-2.2h70.4c1.2,0,2.2,1,2.2,2.2l0,0
	C92.4,132.3,91.4,133.3,90.2,133.3z"/>
<path class="st3" d="M30.8,134.6h-5.7c-1.9,0-3.4,1.5-3.4,3.4v6.3c0,1.9,1.5,3.4,3.4,3.4h5.7c1.9,0,3.4-1.5,3.4-3.4V138
	C34.2,136.1,32.7,134.6,30.8,134.6z"/>
<path class="st3" d="M47.4,134.6h-5.7c-1.9,0-3.4,1.5-3.4,3.4v6.3c0,1.9,1.5,3.4,3.4,3.4h5.7c1.9,0,3.4-1.5,3.4-3.4V138
	C50.8,136.1,49.3,134.6,47.4,134.6z"/>
<path class="st3" d="M64.1,134.6h-5.7c-1.9,0-3.4,1.5-3.4,3.4v6.3c0,1.9,1.5,3.4,3.4,3.4h5.7c1.9,0,3.4-1.5,3.4-3.4V138
	C67.5,136.1,65.9,134.6,64.1,134.6z"/>
<path class="st3" d="M80.7,134.6H75c-1.9,0-3.4,1.5-3.4,3.4v6.3c0,1.9,1.5,3.4,3.4,3.4h5.7c1.9,0,3.4-1.5,3.4-3.4V138
	C84.1,136.1,82.6,134.6,80.7,134.6z"/>
<path class="st2" d="M129.1,51.2h-26.3c-1.2,0-2.2-1-2.2-2.2l0,0c0-1.2,1-2.2,2.2-2.2h26.3c1.2,0,2.2,1,2.2,2.2l0,0
	C131.3,50.2,130.3,51.2,129.1,51.2z"/>
<path class="st2" d="M127.8,75.9H104c-1.9,0-3.4-1.5-3.4-3.4V57.5c0-1.9,1.5-3.4,3.4-3.4h23.8c1.9,0,3.4,1.5,3.4,3.4v15.1
	C131.3,74.4,129.7,75.9,127.8,75.9z"/>
<path class="st2" d="M127.8,102.2H104c-1.9,0-3.4-1.5-3.4-3.4V83.7c0-1.9,1.5-3.4,3.4-3.4h23.8c1.9,0,3.4,1.5,3.4,3.4v15.1
	C131.3,100.7,129.7,102.2,127.8,102.2z"/>
<path class="st2" d="M127.8,128.4H104c-1.9,0-3.4-1.5-3.4-3.4V110c0-1.9,1.5-3.4,3.4-3.4h23.8c1.9,0,3.4,1.5,3.4,3.4V125
	C131.3,126.9,129.7,128.4,127.8,128.4z"/>
<path class="st2" d="M127.8,154.7H104c-1.9,0-3.4-1.5-3.4-3.4v-15.1c0-1.9,1.5-3.4,3.4-3.4h23.8c1.9,0,3.4,1.5,3.4,3.4v15.1
	C131.3,153.2,129.7,154.7,127.8,154.7z"/>
<circle class="st1" cx="55" cy="107.4" r="4.4"/>
<g>
	<path class="st2" d="M73.6,10V8.7c0-0.2-0.2-0.3-0.3-0.2l-1.8,1.3l-1.1-1.3c-0.1-0.1-0.2-0.1-0.3,0l-1.1,1.3L67,8.5
		c-0.1-0.1-0.3,0-0.3,0.2V10c0,1.9,1.6,3.5,3.5,3.5c0.1,0,0.2,0,0.4,0v4.1c3.5,0,3.9-3.1,3.9-4.2c0-0.2-0.2-0.3-0.3-0.2l-2.8,1.7
		v-1.6C72.6,12.8,73.6,11.5,73.6,10z"/>
	<path class="st2" d="M66.2,13.3c0,1.1,0.4,4.2,3.9,4.2v-2.3l-3.6-2.1C66.4,13.1,66.2,13.2,66.2,13.3z"/>
</g>
<path class="st3" d="M83.8,59.8H19.4c-1.2,0-2.1-0.9-2.1-2.1v0c0-1.2,0.9-2.1,2.1-2.1h64.4c1.2,0,2.1,0.9,2.1,2.1v0
	C85.9,58.9,84.9,59.8,83.8,59.8z"/>
<path class="st3" d="M83.8,65.9H19.4c-1.2,0-2.1-0.9-2.1-2.1v0c0-1.2,0.9-2.1,2.1-2.1h64.4c1.2,0,2.1,0.9,2.1,2.1v0
	C85.9,64.9,84.9,65.9,83.8,65.9z"/>
<path class="st3" d="M83.8,71.9H19.4c-1.2,0-2.1-0.9-2.1-2.1v0c0-1.2,0.9-2.1,2.1-2.1h64.4c1.2,0,2.1,0.9,2.1,2.1v0
	C85.9,70.9,84.9,71.9,83.8,71.9z"/>
<path class="st3" d="M83.8,77.9H19.4c-1.2,0-2.1-0.9-2.1-2.1l0,0c0-1.2,0.9-2.1,2.1-2.1h64.4c1.2,0,2.1,0.9,2.1,2.1l0,0
	C85.9,77,84.9,77.9,83.8,77.9z"/>
<path class="st3" d="M88.6,52.3H27c-1.5,0-2.8-1.2-2.8-2.8v0c0-1.5,1.2-2.8,2.8-2.8h61.6c1.5,0,2.8,1.2,2.8,2.8v0
	C91.4,51.1,90.2,52.3,88.6,52.3z"/>
<circle class="st3" cx="20" cy="49.6" r="2.8"/>
<path class="st3" d="M88.6,89.8H27c-1.5,0-2.8-1.2-2.8-2.8v0c0-1.5,1.2-2.8,2.8-2.8h61.6c1.5,0,2.8,1.2,2.8,2.8v0
	C91.4,88.6,90.2,89.8,88.6,89.8z"/>
<circle class="st3" cx="20" cy="87.1" r="2.8"/>
</svg>
