<?xml version="1.0" encoding="utf-8"?>
<!-- Generator: Adobe Illustrator 23.0.0, SVG Export Plug-In . SVG Version: 6.00 Build 0)  -->
<svg version="1.1" id="Layer_1" xmlns="http://www.w3.org/2000/svg" xmlns:xlink="http://www.w3.org/1999/xlink" x="0px" y="0px"
	 viewBox="0 0 140 140" style="enable-background:new 0 0 140 140;" xml:space="preserve">
<style type="text/css">
	.st0{fill:#E9EAED;}
	.st1{fill:#A8B6C0;}
	.st2{fill:#FFFFFF;}
	.st3{fill:#e3e6e9;}
</style>
<g>
	<rect x="0.5" y="0.5" class="st0" width="139" height="139"/>
	
</g>
<g>
	<rect class="st1" width="140" height="43.4"/>
</g>
<path class="st2" d="M110.6,104.8H29.5c-0.6,0-1-0.4-1-1v-68c0-0.5,0.4-1,1-1h81.1c0.6,0,1,0.5,1,1v68
	C111.6,104.4,111.1,104.8,110.6,104.8z"/>
<path class="st2" d="M110.6,131.2H29.5c-0.5,0-1-0.4-1-1v-19.9c0-0.6,0.5-1,1-1h81.1c0.6,0,1,0.4,1,1v19.9
	C111.6,130.8,111.1,131.2,110.6,131.2z"/>
<path class="st2" d="M110.6,157.5H29.5c-0.5,0-1-0.4-1-1v-19.9c0-0.6,0.5-1,1-1h81.1c0.6,0,1,0.4,1,1v19.9
	C111.6,157,111.1,157.5,110.6,157.5z"/>
<path class="st2" d="M101.1,26.8H30.7c-1.2,0-2.2-1-2.2-2.2l0,0c0-1.2,1-2.2,2.2-2.2h70.4c1.2,0,2.2,1,2.2,2.2l0,0
	C103.3,25.8,102.3,26.8,101.1,26.8z"/>
<path class="st2" d="M67.8,28H30.7c-1.2,0-2.2,1-2.2,2.2l0,0c0,1.2,1,2.2,2.2,2.2h37.2c1.2,0,2.2-1,2.2-2.2l0,0C70,29,69,28,67.8,28
	z"/>
<path class="st3" d="M104.2,87.5h-68c-1.9,0-3.4-2.1-3.4-4.7V44c0-2.6,1.5-4.7,3.4-4.7h68c1.9,0,3.4,2.1,3.4,4.7v38.8
	C107.6,85.3,106.1,87.5,104.2,87.5z"/>
<path class="st3" d="M103.8,91.8h-68c-1.9,0-3.4,1.5-3.4,3.4v1.9c0,1.9,1.5,3.4,3.4,3.4h68c1.9,0,3.4-1.5,3.4-3.4v-1.9
	C107.2,93.4,105.7,91.8,103.8,91.8z"/>
<path class="st1" d="M79.2,126.8H60.9c-1.2,0-2.2-1-2.2-2.2l0,0c0-1.2,1-2.2,2.2-2.2h18.3c1.2,0,2.2,1,2.2,2.2l0,0
	C81.4,125.8,80.4,126.8,79.2,126.8z"/>
<path class="st3" d="M105.5,142H35.1c-1.2,0-2.2-1-2.2-2.2l0,0c0-1.2,1-2.2,2.2-2.2h70.4c1.2,0,2.2,1,2.2,2.2l0,0
	C107.7,141,106.8,142,105.5,142z"/>
<path class="st3" d="M46.1,143.3h-5.7c-1.9,0-3.4,1.5-3.4,3.4v6.3c0,1.9,1.5,3.4,3.4,3.4h5.7c1.9,0,3.4-1.5,3.4-3.4v-6.3
	C49.5,144.8,48,143.3,46.1,143.3z"/>
<path class="st3" d="M62.8,143.3h-5.7c-1.9,0-3.4,1.5-3.4,3.4v6.3c0,1.9,1.5,3.4,3.4,3.4h5.7c1.9,0,3.4-1.5,3.4-3.4v-6.3
	C66.2,144.8,64.6,143.3,62.8,143.3z"/>
<path class="st3" d="M79.4,143.3h-5.7c-1.9,0-3.4,1.5-3.4,3.4v6.3c0,1.9,1.5,3.4,3.4,3.4h5.7c1.9,0,3.4-1.5,3.4-3.4v-6.3
	C82.8,144.8,81.3,143.3,79.4,143.3z"/>
<path class="st3" d="M96,143.3h-5.7c-1.9,0-3.4,1.5-3.4,3.4v6.3c0,1.9,1.5,3.4,3.4,3.4H96c1.9,0,3.4-1.5,3.4-3.4v-6.3
	C99.4,144.8,97.9,143.3,96,143.3z"/>
<circle class="st1" cx="70.3" cy="116.1" r="4.4"/>
<g>
	<path class="st2" d="M73.1,10V8.7c0-0.2-0.2-0.3-0.3-0.2l-1.8,1.3l-1.1-1.3c-0.1-0.1-0.2-0.1-0.3,0l-1.1,1.3l-1.8-1.3
		c-0.1-0.1-0.3,0-0.3,0.2V10c0,1.9,1.6,3.5,3.5,3.5c0.1,0,0.2,0,0.4,0v4.1c3.5,0,3.9-3.1,3.9-4.2c0-0.2-0.2-0.3-0.3-0.2l-2.8,1.7
		v-1.6C72.1,12.8,73.1,11.5,73.1,10z"/>
	<path class="st2" d="M65.7,13.3c0,1.1,0.4,4.2,3.9,4.2v-2.3L66,13.1C65.9,13.1,65.7,13.2,65.7,13.3z"/>
</g>
</svg>
