<?xml version="1.0" encoding="utf-8"?>
<!-- Generator: Adobe Illustrator 23.0.0, SVG Export Plug-In . SVG Version: 6.00 Build 0)  -->
<svg version="1.1" id="Layer_1" xmlns="http://www.w3.org/2000/svg" xmlns:xlink="http://www.w3.org/1999/xlink" x="0px" y="0px"
	 viewBox="0 0 140 140" style="enable-background:new 0 0 140 140;" xml:space="preserve">
<style type="text/css">
	.st0{fill:#E9EAED;}
	.st1{fill:#A8B6C0;}
	.st2{fill:#FFFFFF;}
	.st3{fill:#e3e6e9;}
</style>
<g>
	<rect x="0.5" y="0.5" class="st0" width="139" height="139"/>
	
</g>
<path class="st2" d="M99.63,78.63H5.38c-0.55,0-1-0.45-1-1v-68c0-0.55,0.45-1,1-1h94.25c0.55,0,1,0.45,1,1v68
	C100.63,78.18,100.18,78.63,99.63,78.63z"/>
<path class="st2" d="M99.63,105H5.36c-0.55,0-1-0.45-1-1V84.13c0-0.55,0.45-1,1-1h94.27c0.55,0,1,0.45,1,1V104
	C100.63,104.55,100.18,105,99.63,105z"/>
<path class="st2" d="M99.63,131.25H5.05c-0.55,0-1-0.45-1-1v-19.88c0-0.55,0.45-1,1-1h94.57c0.55,0,1,0.45,1,1v19.88
	C100.63,130.8,100.18,131.25,99.63,131.25z"/>
<path class="st3" d="M93.63,17.38H11.37c-1.2,0-2.19-0.98-2.19-2.19v0c0-1.2,0.98-2.19,2.19-2.19h82.25c1.2,0,2.19,0.98,2.19,2.19v0
	C95.81,16.39,94.83,17.38,93.63,17.38z"/>
<path class="st3" d="M55.13,18.55H11.37c-1.2,0-2.19,0.98-2.19,2.19v0c0,1.2,0.98,2.19,2.19,2.19h43.75c1.2,0,2.19-0.98,2.19-2.19v0
	C57.31,19.53,56.33,18.55,55.13,18.55z"/>
<path class="st3" d="M92.41,61.13H12.59c-1.87,0-3.4-1.53-3.4-3.4v-28.2c0-1.87,1.53-3.4,3.4-3.4h79.82c1.87,0,3.4,1.53,3.4,3.4
	v28.2C95.81,59.59,94.28,61.13,92.41,61.13z"/>
<path class="st3" d="M92.41,65.5H12.59c-1.87,0-3.4,1.53-3.4,3.4v1.95c0,1.87,1.53,3.4,3.4,3.4h79.82c1.87,0,3.4-1.53,3.4-3.4V68.9
	C95.81,67.03,94.28,65.5,92.41,65.5z"/>
<circle class="st1" cx="52.5" cy="89.25" r="4.38"/>
<path class="st1" d="M63.44,100.63H41.56c-1.2,0-2.19-0.98-2.19-2.19l0,0c0-1.2,0.98-2.19,2.19-2.19h21.88
	c1.2,0,2.19,0.98,2.19,2.19l0,0C65.63,99.64,64.64,100.63,63.44,100.63z"/>
<path class="st3" d="M93.97,115.81H11.42c-1.2,0-2.19-0.98-2.19-2.19l0,0c0-1.2,0.98-2.19,2.19-2.19h82.54
	c1.2,0,2.19,0.98,2.19,2.19l0,0C96.15,114.83,95.17,115.81,93.97,115.81z"/>
<path class="st3" d="M25.15,117.06h-7.68c-1.87,0-3.4,1.53-3.4,3.4v6.32c0,1.87,1.53,3.4,3.4,3.4h7.68c1.87,0,3.4-1.53,3.4-3.4
	v-6.32C28.55,118.59,27.02,117.06,25.15,117.06z"/>
<path class="st3" d="M44.47,117.06h-7.68c-1.87,0-3.4,1.53-3.4,3.4v6.32c0,1.87,1.53,3.4,3.4,3.4h7.68c1.87,0,3.4-1.53,3.4-3.4
	v-6.32C47.87,118.59,46.34,117.06,44.47,117.06z"/>
<path class="st3" d="M63.78,117.06H56.1c-1.87,0-3.4,1.53-3.4,3.4v6.32c0,1.87,1.53,3.4,3.4,3.4h7.68c1.87,0,3.4-1.53,3.4-3.4v-6.32
	C67.18,118.59,65.65,117.06,63.78,117.06z"/>
<path class="st3" d="M83.1,117.06h-7.68c-1.87,0-3.4,1.53-3.4,3.4v6.32c0,1.87,1.53,3.4,3.4,3.4h7.68c1.87,0,3.4-1.53,3.4-3.4v-6.32
	C86.5,118.59,84.97,117.06,83.1,117.06z"/>
<path class="st2" d="M133.44,13.13h-26.25c-1.2,0-2.19-0.98-2.19-2.19v0c0-1.2,0.98-2.19,2.19-2.19h26.25c1.2,0,2.19,0.98,2.19,2.19
	v0C135.63,12.14,134.64,13.13,133.44,13.13z"/>
<path class="st2" d="M132.22,39.38H108.4c-1.87,0-3.4-1.53-3.4-3.4V20.9c0-1.87,1.53-3.4,3.4-3.4h23.82c1.87,0,3.4,1.53,3.4,3.4
	v15.07C135.63,37.84,134.09,39.38,132.22,39.38z"/>
<path class="st2" d="M132.22,65.63H108.4c-1.87,0-3.4-1.53-3.4-3.4V47.15c0-1.87,1.53-3.4,3.4-3.4h23.82c1.87,0,3.4,1.53,3.4,3.4
	v15.07C135.63,64.09,134.09,65.63,132.22,65.63z"/>
<path class="st2" d="M132.22,91.88H108.4c-1.87,0-3.4-1.53-3.4-3.4V73.4c0-1.87,1.53-3.4,3.4-3.4h23.82c1.87,0,3.4,1.53,3.4,3.4
	v15.07C135.63,90.34,134.09,91.88,132.22,91.88z"/>
<path class="st2" d="M132.22,118.13H108.4c-1.87,0-3.4-1.53-3.4-3.4V99.65c0-1.87,1.53-3.4,3.4-3.4h23.82c1.87,0,3.4,1.53,3.4,3.4
	v15.07C135.63,116.59,134.09,118.13,132.22,118.13z"/>
</svg>
