<?xml version="1.0" encoding="utf-8"?>
<!-- Generator: Adobe Illustrator 23.0.0, SVG Export Plug-In . SVG Version: 6.00 Build 0)  -->
<svg version="1.1" id="Layer_1" xmlns="http://www.w3.org/2000/svg" xmlns:xlink="http://www.w3.org/1999/xlink" x="0px" y="0px"
	 viewBox="0 0 140 140" style="enable-background:new 0 0 140 140;" xml:space="preserve">
<style type="text/css">
	.st0{fill:#E9EAED;}
	.st1{fill:#A8B6C0;}
	.st2{fill:#FFFFFF;}
	.st3{fill:#e3e6e9;}
</style>
<g>
	<rect x="0.5" y="0.5" class="st0" width="139" height="139"/>
	
</g>
<path class="st2" d="M112.75,78.75h-85.5c-0.55,0-1-0.45-1-1v-68c0-0.55,0.45-1,1-1h85.5c0.55,0,1,0.45,1,1v68
	C113.75,78.3,113.3,78.75,112.75,78.75z"/>
<path class="st2" d="M112.73,105.13h-85.5c-0.55,0-1-0.45-1-1V84.25c0-0.55,0.45-1,1-1h85.5c0.55,0,1,0.45,1,1v19.88
	C113.73,104.68,113.28,105.13,112.73,105.13z"/>
<path class="st2" d="M112.43,131.38h-85.5c-0.55,0-1-0.45-1-1V110.5c0-0.55,0.45-1,1-1h85.5c0.55,0,1,0.45,1,1v19.88
	C113.43,130.93,112.98,131.38,112.43,131.38z"/>
<path class="st3" d="M107.19,17.5H32.81c-1.2,0-2.19-0.98-2.19-2.19v0c0-1.2,0.98-2.19,2.19-2.19h74.38c1.2,0,2.19,0.98,2.19,2.19v0
	C109.38,16.52,108.39,17.5,107.19,17.5z"/>
<path class="st3" d="M72.19,18.68H32.81c-1.2,0-2.19,0.98-2.19,2.19v0c0,1.2,0.98,2.19,2.19,2.19h39.38c1.2,0,2.19-0.98,2.19-2.19v0
	C74.38,19.66,73.39,18.68,72.19,18.68z"/>
<path class="st3" d="M105.97,61.25H34.03c-1.87,0-3.4-1.53-3.4-3.4v-28.2c0-1.87,1.53-3.4,3.4-3.4h71.95c1.87,0,3.4,1.53,3.4,3.4
	v28.2C109.38,59.72,107.84,61.25,105.97,61.25z"/>
<path class="st3" d="M105.97,65.63H34.03c-1.87,0-3.4,1.53-3.4,3.4v1.95c0,1.87,1.53,3.4,3.4,3.4h71.95c1.87,0,3.4-1.53,3.4-3.4
	v-1.95C109.38,67.16,107.84,65.63,105.97,65.63z"/>
<circle class="st1" cx="70" cy="89.38" r="4.38"/>
<path class="st1" d="M80.94,100.75H59.06c-1.2,0-2.19-0.98-2.19-2.19l0,0c0-1.2,0.98-2.19,2.19-2.19h21.88
	c1.2,0,2.19,0.98,2.19,2.19l0,0C83.13,99.77,82.14,100.75,80.94,100.75z"/>
<path class="st3" d="M107.19,115.94H32.81c-1.2,0-2.19-0.98-2.19-2.19l0,0c0-1.2,0.98-2.19,2.19-2.19h74.38
	c1.2,0,2.19,0.98,2.19,2.19l0,0C109.38,114.95,108.39,115.94,107.19,115.94z"/>
<path class="st3" d="M44.72,117.19H38.4c-1.87,0-3.4,1.53-3.4,3.4v6.32c0,1.87,1.53,3.4,3.4,3.4h6.32c1.87,0,3.4-1.53,3.4-3.4v-6.32
	C48.13,118.72,46.59,117.19,44.72,117.19z"/>
<path class="st3" d="M62.22,117.19H55.9c-1.87,0-3.4,1.53-3.4,3.4v6.32c0,1.87,1.53,3.4,3.4,3.4h6.32c1.87,0,3.4-1.53,3.4-3.4v-6.32
	C65.63,118.72,64.09,117.19,62.22,117.19z"/>
<path class="st3" d="M79.72,117.19H73.4c-1.87,0-3.4,1.53-3.4,3.4v6.32c0,1.87,1.53,3.4,3.4,3.4h6.32c1.87,0,3.4-1.53,3.4-3.4v-6.32
	C83.13,118.72,81.59,117.19,79.72,117.19z"/>
<path class="st3" d="M97.22,117.19H90.9c-1.87,0-3.4,1.53-3.4,3.4v6.32c0,1.87,1.53,3.4,3.4,3.4h6.32c1.87,0,3.4-1.53,3.4-3.4v-6.32
	C100.63,118.72,99.09,117.19,97.22,117.19z"/>
</svg>
