<?xml version="1.0" encoding="utf-8"?>
<!-- Generator: Adobe Illustrator 23.0.0, SVG Export Plug-In . SVG Version: 6.00 Build 0)  -->
<svg version="1.1" id="Layer_1" xmlns="http://www.w3.org/2000/svg" xmlns:xlink="http://www.w3.org/1999/xlink" x="0px" y="0px"
	 viewBox="0 0 140 140" style="enable-background:new 0 0 140 140;" xml:space="preserve">
<style type="text/css">
	.st0{fill:#E9EAED;}
	.st1{fill:#A8B6C0;}
	.st2{fill:#FFFFFF;}
	.st3{fill:#e3e6e9;}
</style>
<g>
	<rect x="0.5" y="0.5" class="st0" width="139" height="139"/>
	
</g>
<g>
	<rect class="st1" width="140" height="43.4"/>
</g>
<path class="st2" d="M110.6,95.8H29.4c-0.6,0-1-0.4-1-1v-68c0-0.5,0.4-1,1-1h81.1c0.6,0,1,0.5,1,1v68
	C111.6,95.3,111.1,95.8,110.6,95.8z"/>
<path class="st2" d="M110.6,122.2H29.4c-0.6,0-1-0.4-1-1v-19.9c0-0.6,0.4-1,1-1h81.1c0.6,0,1,0.4,1,1v19.9
	C111.6,121.7,111.1,122.2,110.6,122.2z"/>
<path class="st2" d="M110.6,148.4H29.4c-0.6,0-1-0.4-1-1v-19.9c0-0.6,0.4-1,1-1h81.1c0.6,0,1,0.4,1,1v19.9
	C111.6,148,111.1,148.4,110.6,148.4z"/>
<path class="st3" d="M105.2,34.5H34.8c-1.2,0-2.2-1-2.2-2.2l0,0c0-1.2,1-2.2,2.2-2.2h70.4c1.2,0,2.2,1,2.2,2.2l0,0
	C107.4,33.5,106.4,34.5,105.2,34.5z"/>
<path class="st3" d="M72,35.7H34.8c-1.2,0-2.2,1-2.2,2.2l0,0c0,1.2,1,2.2,2.2,2.2H72c1.2,0,2.2-1,2.2-2.2l0,0
	C74.2,36.7,73.2,35.7,72,35.7z"/>
<path class="st3" d="M104,78.3H36c-1.9,0-3.4-1.5-3.4-3.4V46.7c0-1.9,1.5-3.4,3.4-3.4h68c1.9,0,3.4,1.5,3.4,3.4v28.2
	C107.4,76.7,105.9,78.3,104,78.3z"/>
<path class="st3" d="M104,82.7H36c-1.9,0-3.4,1.5-3.4,3.4V88c0,1.9,1.5,3.4,3.4,3.4h68c1.9,0,3.4-1.5,3.4-3.4v-1.9
	C107.4,84.2,105.9,82.7,104,82.7z"/>
<path class="st1" d="M79.1,117.8H60.9c-1.2,0-2.2-1-2.2-2.2l0,0c0-1.2,1-2.2,2.2-2.2h18.3c1.2,0,2.2,1,2.2,2.2l0,0
	C81.3,116.8,80.3,117.8,79.1,117.8z"/>
<path class="st3" d="M105.5,133H35.1c-1.2,0-2.2-1-2.2-2.2l0,0c0-1.2,1-2.2,2.2-2.2h70.4c1.2,0,2.2,1,2.2,2.2l0,0
	C107.7,132,106.7,133,105.5,133z"/>
<path class="st3" d="M46.1,134.2h-5.7c-1.9,0-3.4,1.5-3.4,3.4v6.3c0,1.9,1.5,3.4,3.4,3.4h5.7c1.9,0,3.4-1.5,3.4-3.4v-6.3
	C49.5,135.7,48,134.2,46.1,134.2z"/>
<path class="st3" d="M62.7,134.2h-5.7c-1.9,0-3.4,1.5-3.4,3.4v6.3c0,1.9,1.5,3.4,3.4,3.4h5.7c1.9,0,3.4-1.5,3.4-3.4v-6.3
	C66.1,135.7,64.6,134.2,62.7,134.2z"/>
<path class="st3" d="M79.4,134.2h-5.7c-1.9,0-3.4,1.5-3.4,3.4v6.3c0,1.9,1.5,3.4,3.4,3.4h5.7c1.9,0,3.4-1.5,3.4-3.4v-6.3
	C82.8,135.7,81.2,134.2,79.4,134.2z"/>
<path class="st3" d="M96,134.2h-5.7c-1.9,0-3.4,1.5-3.4,3.4v6.3c0,1.9,1.5,3.4,3.4,3.4H96c1.9,0,3.4-1.5,3.4-3.4v-6.3
	C99.4,135.7,97.9,134.2,96,134.2z"/>
<circle class="st1" cx="70.3" cy="107" r="4.4"/>
<g>
	<path class="st2" d="M73.1,10V8.7c0-0.2-0.2-0.3-0.3-0.2l-1.8,1.3l-1.1-1.3c-0.1-0.1-0.2-0.1-0.3,0l-1.1,1.3l-1.8-1.3
		c-0.1-0.1-0.3,0-0.3,0.2V10c0,1.9,1.6,3.5,3.5,3.5c0.1,0,0.2,0,0.4,0v4.1c3.5,0,3.9-3.1,3.9-4.2c0-0.2-0.2-0.3-0.3-0.2l-2.8,1.7
		v-1.6C72.1,12.8,73.1,11.5,73.1,10z"/>
	<path class="st2" d="M65.7,13.3c0,1.1,0.4,4.2,3.9,4.2v-2.3L66,13.1C65.9,13.1,65.7,13.2,65.7,13.3z"/>
</g>
</svg>
