<?xml version="1.0" encoding="utf-8"?>
<!-- Generator: Adobe Illustrator 23.0.0, SVG Export Plug-In . SVG Version: 6.00 Build 0)  -->
<svg version="1.1" id="Layer_1" xmlns="http://www.w3.org/2000/svg" xmlns:xlink="http://www.w3.org/1999/xlink" x="0px" y="0px"
	 viewBox="0 0 140 140" style="enable-background:new 0 0 140 140;" xml:space="preserve">
<style type="text/css">
	.st0{fill:#E9EAED;}
	.st1{fill:#A8B6C0;}
	.st2{fill:#FFFFFF;}
	.st3{fill:#e3e6e9;}
</style>
<g>
	<rect x="0.5" y="0.5" class="st0" width="139" height="139"/>
	
</g>
<g>
	<rect class="st1" width="140" height="43.4"/>
</g>
<path class="st2" d="M95.2,118H14.1c-0.6,0-1-0.4-1-1V49c0-0.5,0.4-1,1-1h81.1c0.6,0,1,0.5,1,1v68C96.2,117.6,95.8,118,95.2,118z"/>
<path class="st2" d="M95.2,144.4H14.1c-0.6,0-1-0.4-1-1v-19.9c0-0.6,0.4-1,1-1h81.1c0.6,0,1,0.4,1,1v19.9
	C96.2,143.9,95.8,144.4,95.2,144.4z"/>
<path class="st2" d="M95.2,170.6H14.1c-0.6,0-1-0.4-1-1v-19.9c0-0.5,0.4-1,1-1h81.1c0.6,0,1,0.5,1,1v19.9
	C96.2,170.2,95.8,170.6,95.2,170.6z"/>
<path class="st2" d="M85.7,35H15.3c-1.2,0-2.2-1-2.2-2.2l0,0c0-1.2,1-2.2,2.2-2.2h70.4c1.2,0,2.2,1,2.2,2.2l0,0
	C87.9,34,86.9,35,85.7,35z"/>
<path class="st2" d="M52.5,36.2H15.3c-1.2,0-2.2,1-2.2,2.2l0,0c0,1.2,1,2.2,2.2,2.2h37.2c1.2,0,2.2-1,2.2-2.2l0,0
	C54.7,37.2,53.7,36.2,52.5,36.2z"/>
<path class="st3" d="M88.9,100.6h-68c-1.9,0-3.4-2.1-3.4-4.7V57.2c0-2.6,1.5-4.7,3.4-4.7h68c1.9,0,3.4,2.1,3.4,4.7v38.8
	C92.3,98.5,90.8,100.6,88.9,100.6z"/>
<path class="st3" d="M88.5,105h-68c-1.9,0-3.4,1.5-3.4,3.4v1.9c0,1.9,1.5,3.4,3.4,3.4h68c1.9,0,3.4-1.5,3.4-3.4v-1.9
	C91.9,106.5,90.3,105,88.5,105z"/>
<path class="st1" d="M63.8,140H45.5c-1.2,0-2.2-1-2.2-2.2l0,0c0-1.2,1-2.2,2.2-2.2h18.3c1.2,0,2.2,1,2.2,2.2l0,0
	C66,139,65,140,63.8,140z"/>
<path class="st3" d="M90.2,155.2H19.8c-1.2,0-2.2-1-2.2-2.2l0,0c0-1.2,1-2.2,2.2-2.2h70.4c1.2,0,2.2,1,2.2,2.2l0,0
	C92.4,154.2,91.4,155.2,90.2,155.2z"/>
<path class="st3" d="M30.8,156.4h-5.7c-1.9,0-3.4,1.5-3.4,3.4v6.3c0,1.9,1.5,3.4,3.4,3.4h5.7c1.9,0,3.4-1.5,3.4-3.4v-6.3
	C34.2,158,32.7,156.4,30.8,156.4z"/>
<path class="st3" d="M47.4,156.4h-5.7c-1.9,0-3.4,1.5-3.4,3.4v6.3c0,1.9,1.5,3.4,3.4,3.4h5.7c1.9,0,3.4-1.5,3.4-3.4v-6.3
	C50.8,158,49.3,156.4,47.4,156.4z"/>
<path class="st3" d="M64.1,156.4h-5.7c-1.9,0-3.4,1.5-3.4,3.4v6.3c0,1.9,1.5,3.4,3.4,3.4h5.7c1.9,0,3.4-1.5,3.4-3.4v-6.3
	C67.5,158,65.9,156.4,64.1,156.4z"/>
<path class="st3" d="M80.7,156.4H75c-1.9,0-3.4,1.5-3.4,3.4v6.3c0,1.9,1.5,3.4,3.4,3.4h5.7c1.9,0,3.4-1.5,3.4-3.4v-6.3
	C84.1,158,82.6,156.4,80.7,156.4z"/>
<circle class="st1" cx="55" cy="129.3" r="4.4"/>
<g>
	<path class="st2" d="M73.1,10V8.7c0-0.2-0.2-0.3-0.3-0.2l-1.8,1.3l-1.1-1.3c-0.1-0.1-0.2-0.1-0.3,0l-1.1,1.3l-1.8-1.3
		c-0.1-0.1-0.3,0-0.3,0.2V10c0,1.9,1.6,3.5,3.5,3.5c0.1,0,0.2,0,0.4,0v4.1c3.5,0,3.9-3.1,3.9-4.2c0-0.2-0.2-0.3-0.3-0.2l-2.8,1.7
		v-1.6C72.1,12.8,73.1,11.5,73.1,10z"/>
	<path class="st2" d="M65.7,13.3c0,1.1,0.4,4.2,3.9,4.2v-2.3L66,13.1C65.9,13.1,65.7,13.2,65.7,13.3z"/>
</g>
<path class="st2" d="M129.1,52.5h-26.3c-1.2,0-2.2-1-2.2-2.2l0,0c0-1.2,1-2.2,2.2-2.2h26.3c1.2,0,2.2,1,2.2,2.2l0,0
	C131.3,51.5,130.3,52.5,129.1,52.5z"/>
<path class="st2" d="M127.8,77.3H104c-1.9,0-3.4-1.5-3.4-3.4V58.8c0-1.9,1.5-3.4,3.4-3.4h23.8c1.9,0,3.4,1.5,3.4,3.4v15.1
	C131.3,75.7,129.7,77.3,127.8,77.3z"/>
<path class="st2" d="M127.8,103.5H104c-1.9,0-3.4-1.5-3.4-3.4V85c0-1.9,1.5-3.4,3.4-3.4h23.8c1.9,0,3.4,1.5,3.4,3.4v15.1
	C131.3,102,129.7,103.5,127.8,103.5z"/>
<path class="st2" d="M127.8,129.8H104c-1.9,0-3.4-1.5-3.4-3.4v-15.1c0-1.9,1.5-3.4,3.4-3.4h23.8c1.9,0,3.4,1.5,3.4,3.4v15.1
	C131.3,128.2,129.7,129.8,127.8,129.8z"/>
<path class="st2" d="M127.8,156H104c-1.9,0-3.4-1.5-3.4-3.4v-15.1c0-1.9,1.5-3.4,3.4-3.4h23.8c1.9,0,3.4,1.5,3.4,3.4v15.1
	C131.3,154.5,129.7,156,127.8,156z"/>
</svg>
