<?xml version="1.0" encoding="utf-8"?>
<!-- Generator: Adobe Illustrator 23.0.0, SVG Export Plug-In . SVG Version: 6.00 Build 0)  -->
<svg version="1.1" id="Layer_1" xmlns="http://www.w3.org/2000/svg" xmlns:xlink="http://www.w3.org/1999/xlink" x="0px" y="0px"
	 viewBox="0 0 140 140" style="enable-background:new 0 0 140 140;" xml:space="preserve">
<style type="text/css">
	.st0{fill:#E9EAED;}
	.st1{fill:#A8B6C0;}
	.st2{fill:#FFFFFF;}
	.st3{fill:#e3e6e9;}
</style>
<g>
	<rect x="0.5" y="0.5" class="st0" width="139" height="139"/>
	
</g>
<g>
	<rect x="0" y="0" class="st1" width="140" height="43.43"/>
</g>
<path class="st2" d="M95.25,96.13H14.14c-0.55,0-1-0.45-1-1v-68c0-0.55,0.45-1,1-1h81.11c0.55,0,1,0.45,1,1v68
	C96.25,95.68,95.8,96.13,95.25,96.13z"/>
<path class="st2" d="M95.25,122.5H14.13c-0.55,0-1-0.45-1-1v-19.88c0-0.55,0.45-1,1-1h81.13c0.55,0,1,0.45,1,1v19.88
	C96.25,122.05,95.8,122.5,95.25,122.5z"/>
<path class="st2" d="M95.25,148.75H14.13c-0.55,0-1-0.45-1-1v-19.88c0-0.55,0.45-1,1-1h81.13c0.55,0,1,0.45,1,1v19.88
	C96.25,148.3,95.8,148.75,95.25,148.75z"/>
<path class="st3" d="M89.91,34.88H19.48c-1.2,0-2.19-0.98-2.19-2.19v0c0-1.2,0.98-2.19,2.19-2.19h70.43c1.2,0,2.19,0.98,2.19,2.19v0
	C92.09,33.89,91.11,34.88,89.91,34.88z"/>
<path class="st3" d="M56.66,36.05H19.48c-1.2,0-2.19,0.98-2.19,2.19v0c0,1.2,0.98,2.19,2.19,2.19h37.18c1.2,0,2.19-0.98,2.19-2.19v0
	C58.85,37.03,57.87,36.05,56.66,36.05z"/>
<path class="st3" d="M88.69,78.63h-68c-1.87,0-3.4-1.53-3.4-3.4v-28.2c0-1.87,1.53-3.4,3.4-3.4h68c1.87,0,3.4,1.53,3.4,3.4v28.2
	C92.09,77.09,90.56,78.63,88.69,78.63z"/>
<path class="st3" d="M88.69,83h-68c-1.87,0-3.4,1.53-3.4,3.4v1.95c0,1.87,1.53,3.4,3.4,3.4h68c1.87,0,3.4-1.53,3.4-3.4V86.4
	C92.09,84.53,90.56,83,88.69,83z"/>
<path class="st1" d="M63.84,118.13H45.55c-1.2,0-2.19-0.98-2.19-2.19l0,0c0-1.2,0.98-2.19,2.19-2.19h18.29
	c1.2,0,2.19,0.98,2.19,2.19l0,0C66.03,117.14,65.04,118.13,63.84,118.13z"/>
<path class="st3" d="M90.21,133.31H19.78c-1.2,0-2.19-0.98-2.19-2.19l0,0c0-1.2,0.98-2.19,2.19-2.19h70.44
	c1.2,0,2.19,0.98,2.19,2.19l0,0C92.4,132.33,91.42,133.31,90.21,133.31z"/>
<path class="st3" d="M30.81,134.56h-5.67c-1.87,0-3.4,1.53-3.4,3.4v6.32c0,1.87,1.53,3.4,3.4,3.4h5.67c1.87,0,3.4-1.53,3.4-3.4
	v-6.32C34.21,136.09,32.68,134.56,30.81,134.56z"/>
<path class="st3" d="M47.44,134.56h-5.67c-1.87,0-3.4,1.53-3.4,3.4v6.32c0,1.87,1.53,3.4,3.4,3.4h5.67c1.87,0,3.4-1.53,3.4-3.4
	v-6.32C50.84,136.09,49.31,134.56,47.44,134.56z"/>
<path class="st3" d="M64.06,134.56H58.4c-1.87,0-3.4,1.53-3.4,3.4v6.32c0,1.87,1.53,3.4,3.4,3.4h5.67c1.87,0,3.4-1.53,3.4-3.4v-6.32
	C67.46,136.09,65.93,134.56,64.06,134.56z"/>
<path class="st3" d="M80.69,134.56h-5.67c-1.87,0-3.4,1.53-3.4,3.4v6.32c0,1.87,1.53,3.4,3.4,3.4h5.67c1.87,0,3.4-1.53,3.4-3.4
	v-6.32C84.09,136.09,82.56,134.56,80.69,134.56z"/>
<path class="st2" d="M129.06,51.19h-26.25c-1.2,0-2.19-0.98-2.19-2.19v0c0-1.2,0.98-2.19,2.19-2.19h26.25c1.2,0,2.19,0.98,2.19,2.19
	v0C131.25,50.2,130.27,51.19,129.06,51.19z"/>
<path class="st2" d="M127.85,75.94h-23.82c-1.87,0-3.4-1.53-3.4-3.4V57.46c0-1.87,1.53-3.4,3.4-3.4h23.82c1.87,0,3.4,1.53,3.4,3.4
	v15.07C131.25,74.41,129.72,75.94,127.85,75.94z"/>
<path class="st2" d="M127.85,102.19h-23.82c-1.87,0-3.4-1.53-3.4-3.4V83.71c0-1.87,1.53-3.4,3.4-3.4h23.82c1.87,0,3.4,1.53,3.4,3.4
	v15.07C131.25,100.66,129.72,102.19,127.85,102.19z"/>
<path class="st2" d="M127.85,128.44h-23.82c-1.87,0-3.4-1.53-3.4-3.4v-15.07c0-1.87,1.53-3.4,3.4-3.4h23.82c1.87,0,3.4,1.53,3.4,3.4
	v15.07C131.25,126.91,129.72,128.44,127.85,128.44z"/>
<path class="st2" d="M127.85,154.69h-23.82c-1.87,0-3.4-1.53-3.4-3.4v-15.07c0-1.87,1.53-3.4,3.4-3.4h23.82c1.87,0,3.4,1.53,3.4,3.4
	v15.07C131.25,153.16,129.72,154.69,127.85,154.69z"/>
<circle class="st1" cx="55" cy="107.38" r="4.38"/>
<g>
	<path class="st2" d="M73.55,9.98V8.72c0-0.17-0.2-0.28-0.34-0.18l-1.82,1.27L70.27,8.5c-0.09-0.1-0.24-0.1-0.33,0l-1.11,1.31
		l-1.82-1.27c-0.14-0.1-0.34,0-0.34,0.18v1.24c0,1.9,1.56,3.47,3.46,3.46c0.12,0,0.24-0.01,0.36-0.02v4.1c3.5,0,3.86-3.07,3.88-4.16
		c0-0.17-0.18-0.28-0.33-0.19l-2.82,1.67v-1.58C72.58,12.77,73.55,11.49,73.55,9.98z"/>
	<path class="st2" d="M66.2,13.33c0.02,1.09,0.38,4.17,3.88,4.17v-2.27l-3.55-2.08C66.38,13.06,66.2,13.17,66.2,13.33z"/>
</g>
</svg>
