<?xml version="1.0" encoding="utf-8"?>
<!-- Generator: Adobe Illustrator 23.0.0, SVG Export Plug-In . SVG Version: 6.00 Build 0)  -->
<svg version="1.1" id="Layer_1" xmlns="http://www.w3.org/2000/svg" xmlns:xlink="http://www.w3.org/1999/xlink" x="0px" y="0px"
	 viewBox="0 0 140 140" style="enable-background:new 0 0 140 140;" xml:space="preserve">
<style type="text/css">
	.st0{fill:#E9EAED;}
	.st1{fill:#A8B6C0;}
	.st2{fill:#FFFFFF;}
	.st3{fill:#e3e6e9;}
	.st4{fill:#1C1C1C;}
</style>
<g>
	<rect x="0.5" y="0.5" class="st0" width="139" height="139"/>
	
</g>
<path class="st2" d="M99.4,105H5.5c-0.6,0-1.2-0.2-1.2-0.4V74.6c0-0.2,0.5-0.4,1.2-0.4h93.9c0.6,0,1.2,0.2,1.2,0.4v29.9
	C100.6,104.8,100.1,105,99.4,105z"/>
<path class="st2" d="M99.5,131.3H5.5c-0.6,0-1.2-0.5-1.2-1v-19.9c0-0.6,0.5-1,1.2-1h93.9c0.6,0,1.2,0.4,1.2,1v19.9
	C100.6,130.8,100.1,131.3,99.5,131.3z"/>
<path class="st2" d="M99.4,70H5.5c-0.6,0-1.2-0.1-1.2-0.3v-5.3c0-0.1,0.5-0.3,1.2-0.3h93.9c0.6,0,1.2,0.1,1.2,0.3v5.3
	C100.6,69.9,100.1,70,99.4,70z"/>
<path class="st2" d="M99.5,157.5H5.5c-0.6,0-1.2-0.5-1.2-1v-19.9c0-0.6,0.5-1,1.2-1h93.9c0.6,0,1.2,0.4,1.2,1v19.9
	C100.6,157.1,100.1,157.5,99.5,157.5z"/>
<path class="st3" d="M93.2,81.7H11.6c-1.4,0-2.5-1-2.5-2.2l0,0c0-1.2,1.1-2.2,2.5-2.2h81.5c1.4,0,2.5,1,2.5,2.2l0,0
	C95.7,80.7,94.6,81.7,93.2,81.7z"/>
<path class="st3" d="M54.7,82.9h-43c-1.4,0-2.5,1-2.5,2.2l0,0c0,1.2,1.1,2.2,2.5,2.2h43c1.4,0,2.5-1,2.5-2.2l0,0
	C57.2,83.9,56.1,82.9,54.7,82.9z"/>
<path class="st3" d="M91.4,91.9H12.7c-2.2,0-3.9,1.5-3.9,3.4v1.9c0,1.9,1.8,3.4,3.9,3.4h78.7c2.2,0,3.9-1.5,3.9-3.4v-1.9
	C95.3,93.4,93.6,91.9,91.4,91.9z"/>
<path class="st1" d="M63.1,126.9H41.9c-1.4,0-2.5-1-2.5-2.2l0,0c0-1.2,1.1-2.2,2.5-2.2h21.2c1.4,0,2.5,1,2.5,2.2l0,0
	C65.6,125.9,64.5,126.9,63.1,126.9z"/>
<path class="st3" d="M93.6,142.1H12.1c-1.4,0-2.5-1-2.5-2.2l0,0c0-1.2,1.1-2.2,2.5-2.2h81.6c1.4,0,2.5,1,2.5,2.2l0,0
	C96.2,141.1,95,142.1,93.6,142.1z"/>
<path class="st3" d="M24.9,143.3h-6.6c-2.2,0-3.9,1.5-3.9,3.4v6.3c0,1.9,1.8,3.4,3.9,3.4h6.6c2.2,0,3.9-1.5,3.9-3.4v-6.3
	C28.8,144.8,27,143.3,24.9,143.3z"/>
<path class="st3" d="M44.1,143.3h-6.6c-2.2,0-3.9,1.5-3.9,3.4v6.3c0,1.9,1.8,3.4,3.9,3.4h6.6c2.2,0,3.9-1.5,3.9-3.4v-6.3
	C48,144.8,46.3,143.3,44.1,143.3z"/>
<path class="st3" d="M63.3,143.3h-6.6c-2.2,0-3.9,1.5-3.9,3.4v6.3c0,1.9,1.8,3.4,3.9,3.4h6.6c2.2,0,3.9-1.5,3.9-3.4v-6.3
	C67.3,144.8,65.5,143.3,63.3,143.3z"/>
<path class="st3" d="M82.6,143.3H76c-2.2,0-3.9,1.5-3.9,3.4v6.3c0,1.9,1.8,3.4,3.9,3.4h6.6c2.2,0,3.9-1.5,3.9-3.4v-6.3
	C86.5,144.8,84.8,143.3,82.6,143.3z"/>
<ellipse class="st1" cx="52.8" cy="116.1" rx="4.1" ry="4.4"/>
<path class="st2" d="M133.4,17.5h-26.3c-1.2,0-2.2-1-2.2-2.2l0,0c0-1.2,1-2.2,2.2-2.2h26.3c1.2,0,2.2,1,2.2,2.2l0,0
	C135.6,16.5,134.6,17.5,133.4,17.5z"/>
<path class="st2" d="M132.2,42.3h-23.8c-1.9,0-3.4-1.5-3.4-3.4V23.8c0-1.9,1.5-3.4,3.4-3.4h23.8c1.9,0,3.4,1.5,3.4,3.4v15.1
	C135.6,40.7,134.1,42.3,132.2,42.3z"/>
<path class="st2" d="M132.2,68.5h-23.8c-1.9,0-3.4-1.5-3.4-3.4V50c0-1.9,1.5-3.4,3.4-3.4h23.8c1.9,0,3.4,1.5,3.4,3.4v15.1
	C135.6,67,134.1,68.5,132.2,68.5z"/>
<path class="st2" d="M132.2,94.8h-23.8c-1.9,0-3.4-1.5-3.4-3.4V76.3c0-1.9,1.5-3.4,3.4-3.4h23.8c1.9,0,3.4,1.5,3.4,3.4v15.1
	C135.6,93.2,134.1,94.8,132.2,94.8z"/>
<path class="st2" d="M132.2,121h-23.8c-1.9,0-3.4-1.5-3.4-3.4v-15.1c0-1.9,1.5-3.4,3.4-3.4h23.8c1.9,0,3.4,1.5,3.4,3.4v15.1
	C135.6,119.5,134.1,121,132.2,121z"/>
<path class="st2" d="M132.2,146.7h-23.8c-1.9,0-3.4-1.5-3.4-3.4v-15.1c0-1.9,1.5-3.4,3.4-3.4h23.8c1.9,0,3.4,1.5,3.4,3.4v15.1
	C135.6,145.2,134.1,146.7,132.2,146.7z"/>
<path class="st4" d="M99.1,61.3H5.9c-0.8,0-1.5-0.7-1.5-1.5V14.7c0-0.8,0.7-1.5,1.5-1.5h93.2c0.8,0,1.5,0.7,1.5,1.5v45.1
	C100.6,60.6,99.9,61.3,99.1,61.3z"/>
<path class="st2" d="M54,33.5c-2.4,0-4.4,2-4.4,4.4c0,2.4,2,4.4,4.4,4.4c2.4,0,4.4-2,4.4-4.4C58.4,35.5,56.4,33.5,54,33.5z
	 M56.1,38.3l-2.6,1.8c-0.1,0-0.2,0.1-0.2,0.1c-0.1,0-0.1,0-0.2,0c-0.1-0.1-0.2-0.2-0.2-0.4v-3.6c0-0.2,0.1-0.3,0.2-0.4
	c0.1-0.1,0.3-0.1,0.4,0l2.6,1.8c0.1,0.1,0.2,0.2,0.2,0.4C56.3,38.1,56.2,38.2,56.1,38.3z"/>
</svg>
