<?xml version="1.0" encoding="utf-8"?>
<!-- Generator: Adobe Illustrator 23.0.0, SVG Export Plug-In . SVG Version: 6.00 Build 0)  -->
<svg version="1.1" id="Layer_1" xmlns="http://www.w3.org/2000/svg" xmlns:xlink="http://www.w3.org/1999/xlink" x="0px" y="0px"
	 viewBox="0 0 140 140" style="enable-background:new 0 0 140 140;" xml:space="preserve">
<style type="text/css">
	.st0{fill:#E9EAED;}
	.st1{fill:#A8B6C0;}
	.st2{fill:#FFFFFF;}
	.st3{fill:#e3e6e9;}
	.st4{fill:#1C1C1C;}
</style>
<g>
	<rect x="0.5" y="0.5" class="st0" width="139" height="139"/>
	
</g>
<path class="st2" d="M90.9,96.4H14.1c-0.5,0-0.9-0.2-0.9-0.4V66.1c0-0.2,0.4-0.4,0.9-0.4h76.8c0.5,0,0.9,0.2,0.9,0.4V96
	C91.9,96.2,91.4,96.4,90.9,96.4z"/>
<path class="st2" d="M90.9,122.8H14.1c-0.5,0-0.9-0.4-0.9-1v-19.9c0-0.6,0.4-1,0.9-1h76.9c0.5,0,0.9,0.4,0.9,1v19.9
	C91.9,122.4,91.4,122.8,90.9,122.8z"/>
<path class="st2" d="M90.9,62.7H14.1c-0.5,0-0.9-0.1-0.9-0.3v-5.3c0-0.1,0.4-0.3,0.9-0.3h76.9c0.5,0,0.9,0.1,0.9,0.3v5.3
	C91.9,62.6,91.4,62.7,90.9,62.7z"/>
<path class="st2" d="M90.9,149.1H14.1c-0.5,0-0.9-0.4-0.9-1v-19.9c0-0.6,0.4-1,0.9-1h76.9c0.5,0,0.9,0.4,0.9,1v19.9
	C91.9,148.6,91.4,149.1,90.9,149.1z"/>
<path class="st3" d="M86.1,73.2H19.4c-1.1,0-2.1-1-2.1-2.2l0,0c0-1.2,0.9-2.2,2.1-2.2h66.7c1.1,0,2.1,1,2.1,2.2l0,0
	C88.2,72.2,87.3,73.2,86.1,73.2z"/>
<path class="st3" d="M54.6,74.3H19.4c-1.1,0-2.1,1-2.1,2.2l0,0c0,1.2,0.9,2.2,2.1,2.2h35.2c1.1,0,2.1-1,2.1-2.2l0,0
	C56.7,75.3,55.8,74.3,54.6,74.3z"/>
<path class="st3" d="M84.7,83.3H20.3c-1.8,0-3.2,1.5-3.2,3.4v1.9c0,1.9,1.4,3.4,3.2,3.4h64.4c1.8,0,3.2-1.5,3.2-3.4v-1.9
	C87.9,84.8,86.5,83.3,84.7,83.3z"/>
<path class="st1" d="M61.2,118.4H43.8c-1.1,0-2.1-1-2.1-2.2l0,0c0-1.2,0.9-2.2,2.1-2.2h17.3c1.1,0,2.1,1,2.1,2.2l0,0
	C63.2,117.5,62.3,118.4,61.2,118.4z"/>
<path class="st3" d="M86.1,133.6H19.4c-1.1,0-2.1-1-2.1-2.2l0,0c0-1.2,0.9-2.2,2.1-2.2h66.7c1.1,0,2.1,1,2.1,2.2l0,0
	C88.2,132.6,87.3,133.6,86.1,133.6z"/>
<path class="st3" d="M29.9,134.9h-5.4c-1.8,0-3.2,1.5-3.2,3.4v6.3c0,1.9,1.4,3.4,3.2,3.4h5.4c1.8,0,3.2-1.5,3.2-3.4v-6.3
	C33.1,136.4,31.6,134.9,29.9,134.9z"/>
<path class="st3" d="M45.6,134.9h-5.4c-1.8,0-3.2,1.5-3.2,3.4v6.3c0,1.9,1.4,3.4,3.2,3.4h5.4c1.8,0,3.2-1.5,3.2-3.4v-6.3
	C48.8,136.4,47.4,134.9,45.6,134.9z"/>
<path class="st3" d="M61.4,134.9H56c-1.8,0-3.2,1.5-3.2,3.4v6.3c0,1.9,1.4,3.4,3.2,3.4h5.4c1.8,0,3.2-1.5,3.2-3.4v-6.3
	C64.6,136.4,63.1,134.9,61.4,134.9z"/>
<path class="st3" d="M77.1,134.9h-5.4c-1.8,0-3.2,1.5-3.2,3.4v6.3c0,1.9,1.4,3.4,3.2,3.4h5.4c1.8,0,3.2-1.5,3.2-3.4v-6.3
	C80.3,136.4,78.9,134.9,77.1,134.9z"/>
<ellipse class="st1" cx="52.8" cy="107.7" rx="4.1" ry="4.4"/>
<path class="st2" d="M124.7,17.5H98.4c-1.2,0-2.2-1-2.2-2.2l0,0c0-1.2,1-2.2,2.2-2.2h26.3c1.2,0,2.2,1,2.2,2.2l0,0
	C126.9,16.5,125.9,17.5,124.7,17.5z"/>
<path class="st2" d="M123.5,42.3H99.7c-1.9,0-3.4-1.5-3.4-3.4V23.8c0-1.9,1.5-3.4,3.4-3.4h23.8c1.9,0,3.4,1.5,3.4,3.4v15.1
	C126.9,40.7,125.4,42.3,123.5,42.3z"/>
<path class="st2" d="M123.5,68.5H99.7c-1.9,0-3.4-1.5-3.4-3.4V50c0-1.9,1.5-3.4,3.4-3.4h23.8c1.9,0,3.4,1.5,3.4,3.4v15.1
	C126.9,67,125.4,68.5,123.5,68.5z"/>
<path class="st2" d="M123.5,94.8H99.7c-1.9,0-3.4-1.5-3.4-3.4V76.3c0-1.9,1.5-3.4,3.4-3.4h23.8c1.9,0,3.4,1.5,3.4,3.4v15.1
	C126.9,93.2,125.4,94.8,123.5,94.8z"/>
<path class="st2" d="M123.5,121H99.7c-1.9,0-3.4-1.5-3.4-3.4v-15.1c0-1.9,1.5-3.4,3.4-3.4h23.8c1.9,0,3.4,1.5,3.4,3.4v15.1
	C126.9,119.5,125.4,121,123.5,121z"/>
<path class="st2" d="M123.5,146.7H99.7c-1.9,0-3.4-1.5-3.4-3.4v-15.1c0-1.9,1.5-3.4,3.4-3.4h23.8c1.9,0,3.4,1.5,3.4,3.4v15.1
	C126.9,145.2,125.3,146.7,123.5,146.7z"/>
<path class="st4" d="M90.3,52.5H14.7c-0.8,0-1.5-0.7-1.5-1.5V14.7c0-0.8,0.7-1.5,1.5-1.5h75.7c0.8,0,1.5,0.7,1.5,1.5V51
	C91.9,51.8,91.2,52.5,90.3,52.5z"/>
<path class="st2" d="M53.5,26.9c-2.4,0-4.4,2-4.4,4.4c0,2.4,2,4.4,4.4,4.4c2.4,0,4.4-2,4.4-4.4C57.8,28.9,55.9,26.9,53.5,26.9z
	 M55.6,31.7L53,33.5c-0.1,0-0.2,0.1-0.2,0.1c-0.1,0-0.1,0-0.2,0c-0.1-0.1-0.2-0.2-0.2-0.4v-3.6c0-0.2,0.1-0.3,0.2-0.4
	c0.1-0.1,0.3-0.1,0.4,0l2.6,1.8c0.1,0.1,0.2,0.2,0.2,0.4C55.7,31.5,55.7,31.6,55.6,31.7z"/>
</svg>
