<?xml version="1.0" encoding="utf-8"?>
<!-- Generator: Adobe Illustrator 23.0.0, SVG Export Plug-In . SVG Version: 6.00 Build 0)  -->
<svg version="1.1" id="Layer_1" xmlns="http://www.w3.org/2000/svg" xmlns:xlink="http://www.w3.org/1999/xlink" x="0px" y="0px"
	 viewBox="0 0 140 140" style="enable-background:new 0 0 140 140;" xml:space="preserve">
<style type="text/css">
	.st0{fill:#E9EAED;}
	.st1{fill:#A8B6C0;}
	.st2{fill:#FFFFFF;}
	.st3{fill:#e3e6e9;}
	.st4{fill:#1C1C1C;}
</style>
<g>
	<rect x="0.5" y="0.5" class="st0" width="139" height="139"/>
	
</g>
<path class="st2" d="M95.2,105H9.8c-0.6,0-1.1-0.2-1.1-0.4V74.6c0-0.2,0.5-0.4,1.1-0.4h85.4c0.6,0,1.1,0.2,1.1,0.4v29.9
	C96.2,104.8,95.7,105,95.2,105z"/>
<path class="st2" d="M95.2,131.3H9.8c-0.6,0-1.1-0.5-1.1-1v-19.9c0-0.6,0.5-1,1.1-1h85.4c0.6,0,1.1,0.4,1.1,1v19.9
	C96.2,130.8,95.8,131.3,95.2,131.3z"/>
<path class="st2" d="M95.2,70H9.8c-0.6,0-1.1-0.1-1.1-0.3v-5.3c0-0.1,0.5-0.3,1.1-0.3h85.4c0.6,0,1.1,0.1,1.1,0.3v5.3
	C96.2,69.9,95.8,70,95.2,70z"/>
<path class="st2" d="M95.2,157.5H9.8c-0.6,0-1.1-0.5-1.1-1v-19.9c0-0.6,0.5-1,1.1-1h85.4c0.6,0,1.1,0.4,1.1,1v19.9
	C96.2,157.1,95.8,157.5,95.2,157.5z"/>
<path class="st3" d="M89.5,81.7H15.4c-1.3,0-2.3-1-2.3-2.2l0,0c0-1.2,1-2.2,2.3-2.2h74.1c1.3,0,2.3,1,2.3,2.2l0,0
	C91.8,80.7,90.7,81.7,89.5,81.7z"/>
<path class="st3" d="M54.5,82.9H15.4c-1.3,0-2.3,1-2.3,2.2l0,0c0,1.2,1,2.2,2.3,2.2h39.1c1.3,0,2.3-1,2.3-2.2l0,0
	C56.8,83.9,55.8,82.9,54.5,82.9z"/>
<path class="st3" d="M87.9,91.9H16.3c-2,0-3.6,1.5-3.6,3.4v1.9c0,1.9,1.6,3.4,3.6,3.4h71.6c2,0,3.6-1.5,3.6-3.4v-1.9
	C91.5,93.4,89.8,91.9,87.9,91.9z"/>
<path class="st1" d="M62.1,126.9H42.9c-1.3,0-2.3-1-2.3-2.2l0,0c0-1.2,1-2.2,2.3-2.2h19.3c1.3,0,2.3,1,2.3,2.2l0,0
	C64.4,125.9,63.4,126.9,62.1,126.9z"/>
<path class="st3" d="M89.9,142.1H15.8c-1.3,0-2.3-1-2.3-2.2l0,0c0-1.2,1-2.2,2.3-2.2h74.1c1.3,0,2.3,1,2.3,2.2l0,0
	C92.2,141.1,91.2,142.1,89.9,142.1z"/>
<path class="st3" d="M27.4,143.3h-6c-2,0-3.6,1.5-3.6,3.4v6.3c0,1.9,1.6,3.4,3.6,3.4h6c2,0,3.6-1.5,3.6-3.4v-6.3
	C30.9,144.8,29.3,143.3,27.4,143.3z"/>
<path class="st3" d="M44.9,143.3h-6c-2,0-3.6,1.5-3.6,3.4v6.3c0,1.9,1.6,3.4,3.6,3.4h6c2,0,3.6-1.5,3.6-3.4v-6.3
	C48.4,144.8,46.8,143.3,44.9,143.3z"/>
<path class="st3" d="M62.4,143.3h-6c-2,0-3.6,1.5-3.6,3.4v6.3c0,1.9,1.6,3.4,3.6,3.4h6c2,0,3.6-1.5,3.6-3.4v-6.3
	C65.9,144.8,64.3,143.3,62.4,143.3z"/>
<path class="st3" d="M79.9,143.3h-6c-2,0-3.6,1.5-3.6,3.4v6.3c0,1.9,1.6,3.4,3.6,3.4h6c2,0,3.6-1.5,3.6-3.4v-6.3
	C83.4,144.8,81.8,143.3,79.9,143.3z"/>
<ellipse class="st1" cx="52.1" cy="116.1" rx="4.1" ry="4.4"/>
<path class="st2" d="M129.1,68.5h-26.3c-1.2,0-2.2-1-2.2-2.2l0,0c0-1.2,1-2.2,2.2-2.2h26.3c1.2,0,2.2,1,2.2,2.2l0,0
	C131.3,67.6,130.3,68.5,129.1,68.5z"/>
<path class="st2" d="M127.8,93.3H104c-1.9,0-3.4-1.5-3.4-3.4V74.8c0-1.9,1.5-3.4,3.4-3.4h23.8c1.9,0,3.4,1.5,3.4,3.4v15.1
	C131.3,91.8,129.7,93.3,127.8,93.3z"/>
<path class="st2" d="M127.8,119.5H104c-1.9,0-3.4-1.5-3.4-3.4v-15.1c0-1.9,1.5-3.4,3.4-3.4h23.8c1.9,0,3.4,1.5,3.4,3.4v15.1
	C131.3,118,129.7,119.5,127.8,119.5z"/>
<path class="st2" d="M127.8,145.8H104c-1.9,0-3.4-1.5-3.4-3.4v-15.1c0-1.9,1.5-3.4,3.4-3.4h23.8c1.9,0,3.4,1.5,3.4,3.4v15.1
	C131.3,144.3,129.7,145.8,127.8,145.8z"/>
<path class="st2" d="M127.8,172H104c-1.9,0-3.4-1.5-3.4-3.4v-15.1c0-1.9,1.5-3.4,3.4-3.4h23.8c1.9,0,3.4,1.5,3.4,3.4v15.1
	C131.3,170.5,129.7,172,127.8,172z"/>
<path class="st2" d="M132.2,197.7h-23.8c-1.9,0-3.4-1.5-3.4-3.4v-15.1c0-1.9,1.5-3.4,3.4-3.4h23.8c1.9,0,3.4,1.5,3.4,3.4v15.1
	C135.6,196.2,134.1,197.7,132.2,197.7z"/>
<path class="st4" d="M129.7,61.3H10.3c-0.8,0-1.5-0.7-1.5-1.5V10.3c0-0.8,0.7-1.5,1.5-1.5h119.4c0.8,0,1.5,0.7,1.5,1.5v49.4
	C131.3,60.6,130.6,61.3,129.7,61.3z"/>
<path class="st2" d="M70,30.6c-2.4,0-4.4,2-4.4,4.4c0,2.4,2,4.4,4.4,4.4c2.4,0,4.4-2,4.4-4.4C74.4,32.6,72.4,30.6,70,30.6z
	 M72.1,35.4l-2.6,1.8c-0.1,0-0.2,0.1-0.2,0.1c-0.1,0-0.1,0-0.2,0c-0.1-0.1-0.2-0.2-0.2-0.4v-3.6c0-0.2,0.1-0.3,0.2-0.4
	c0.1-0.1,0.3-0.1,0.4,0l2.6,1.8c0.1,0.1,0.2,0.2,0.2,0.4S72.2,35.3,72.1,35.4z"/>
</svg>
