<?xml version="1.0" encoding="utf-8"?>
<!-- Generator: Adobe Illustrator 23.0.0, SVG Export Plug-In . SVG Version: 6.00 Build 0)  -->
<svg version="1.1" id="Layer_1" xmlns="http://www.w3.org/2000/svg" xmlns:xlink="http://www.w3.org/1999/xlink" x="0px" y="0px"
	 viewBox="0 0 64 64" style="enable-background:new 0 0 64 64;" xml:space="preserve">
<style type="text/css">
	.st0{fill:#FFC71F;}
	.st1{clip-path:url(#XMLID_2_);fill:#FF586F;}
	.st2{fill:#FF586F;}
</style>
<g id="XMLID_85_">
	<g id="XMLID_369_">
		<path id="XMLID_370_" class="st0" d="M62.7,33C62.1,49.9,48,63.2,31,62.7C14.1,62.1,0.8,48,1.3,31C1.9,14.1,16,0.8,33,1.3
			C49.9,1.9,63.2,16,62.7,33z"/>
	</g>
	<g>
		<defs>
			<path id="XMLID_114_" d="M16.3,37.5c-0.7,0-1.1,0.7-0.9,1.3c1.3,3.2,5.7,11.2,16.5,11.2c10.8,0,15.3-8.1,16.7-11.3
				c0.3-0.6-0.2-1.3-0.9-1.3C37.2,39.5,26.8,39.6,16.3,37.5z"/>
		</defs>
		<use xlink:href="#XMLID_114_"  style="overflow:visible;fill:#403108;"/>
		<clipPath id="XMLID_2_">
			<use xlink:href="#XMLID_114_"  style="overflow:visible;"/>
		</clipPath>
		<ellipse id="XMLID_20_" class="st1" cx="32.1" cy="49.9" rx="11.8" ry="6.4"/>
	</g>
	<g>
		<path class="st2" d="M51.8,21.1c-1.4-1.6-3.5-1.6-5.2-0.7c-0.4-1.9-1.8-3.4-3.9-3.5c-2.7-0.1-4.2,2-4.3,4.7
			c-0.1,1.9,1.6,6.3,2.5,8.6c0.3,0.8,1.3,1.3,2.1,1c2.3-0.8,6.7-2.5,8.1-3.8C53,25.6,53.6,23.1,51.8,21.1z"/>
	</g>
	<g>
		<path class="st2" d="M12.3,21.1c1.4-1.6,3.5-1.6,5.2-0.7c0.4-1.9,1.8-3.4,3.9-3.5c2.7-0.1,4.2,2,4.3,4.7c0.1,1.9-1.6,6.3-2.5,8.6
			c-0.3,0.8-1.3,1.3-2.1,1c-2.3-0.8-6.7-2.5-8.1-3.8C11.1,25.6,10.5,23.1,12.3,21.1z"/>
	</g>
</g>
</svg>
