<?xml version="1.0" encoding="utf-8"?>
<!-- Generator: Adobe Illustrator 26.0.0, SVG Export Plug-In . SVG Version: 6.00 Build 0)  -->
<svg version="1.1" id="Layer_1" xmlns="http://www.w3.org/2000/svg" xmlns:xlink="http://www.w3.org/1999/xlink" x="0px" y="0px"
	 viewBox="0 0 250 250" style="enable-background:new 0 0 250 250;" xml:space="preserve">
<style type="text/css">
	.st0{fill:#E9EAED;}
	.st1{fill:#A8B6C0;}
	.st2{opacity:0.73;fill:#FFFFFF;enable-background:new    ;}
	.st3{fill:#FFFFFF;}
	.st4{opacity:0.51;fill:#A8B6C0;enable-background:new    ;}
</style>
<rect class="st0" width="250" height="250"/>
<path class="st1" d="M214.9,121.2H8.6c-1.9,0-3.4-1.2-3.4-2.7V20c0-1.5,1.5-2.7,3.4-2.7h206.3c1.9,0,3.4,1.2,3.4,2.7v98.4
	C218.3,120,216.8,121.2,214.9,121.2z"/>
<circle class="st2" cx="21" cy="33.6" r="5.3"/>
<circle class="st2" cx="34.6" cy="33.6" r="5.3"/>
<path class="st3" d="M66.6,187.9c0,0.2-0.2,0.3-0.4,0.3l-1.4-0.1c-3.6-0.4-7.3-0.6-10.9-0.6h-0.1c-3.7,0-7.3,0.2-10.9,0.6l-1.3,0.1
	c-0.2,0-0.3-0.1-0.3-0.3l-1.4-15.8c0-0.3,0.2-0.4,0.5-0.3l7.7,3.9c0.1,0.1,0.3,0,0.4-0.1l5.2-6.4c0.1-0.2,0.4-0.2,0.5,0l5.2,6.4
	c0.1,0.1,0.3,0.1,0.4,0.1l7.7-3.9c0.2-0.1,0.5,0.1,0.5,0.3L66.6,187.9z M44.5,178l0.6,5.8c0,0.1,0.2,0.3,0.3,0.2
	c2.8-0.2,5.7-0.3,8.5-0.3c0,0,0,0,0.1,0c2.8,0,5.7,0.1,8.5,0.3c0.2,0,0.3-0.1,0.3-0.2l0.5-5.8c0-0.2-0.2-0.3-0.4-0.3l-4.5,2.1
	c-0.1,0.1-0.3,0-0.4-0.1l-3.9-4.4c-0.1-0.1-0.3-0.1-0.4,0l-3.9,4.4c-0.1,0.1-0.2,0.1-0.3,0.1l-4.5-2.1
	C44.7,177.7,44.5,177.8,44.5,178z"/>
<path class="st3" d="M182,187.9c0,0.2-0.2,0.3-0.4,0.3l-1.4-0.1c-3.6-0.4-7.3-0.6-10.9-0.6h-0.1c-3.7,0-7.3,0.2-10.9,0.6l-1.3,0.1
	c-0.2,0-0.3-0.1-0.4-0.3l-1.4-15.8c0-0.3,0.2-0.4,0.5-0.3l7.7,3.9c0.1,0.1,0.3,0,0.4-0.1l5.2-6.4c0.1-0.2,0.4-0.2,0.5,0l5.2,6.4
	c0.1,0.1,0.3,0.1,0.4,0.1l7.7-3.9c0.2-0.1,0.5,0.1,0.5,0.3L182,187.9z M159.9,178l0.6,5.8c0,0.1,0.1,0.3,0.3,0.2
	c2.8-0.2,5.7-0.3,8.5-0.3c0,0,0,0,0.1,0c2.8,0,5.7,0.1,8.5,0.3c0.2,0,0.3-0.1,0.3-0.2l0.5-5.8c0-0.2-0.2-0.3-0.4-0.3l-4.5,2.1
	c-0.1,0.1-0.3,0-0.4-0.1l-3.9-4.4c-0.1-0.1-0.3-0.1-0.4,0l-3.9,4.4c-0.1,0.1-0.2,0.1-0.4,0.1l-4.5-2.1
	C160.1,177.7,159.9,177.8,159.9,178z"/>
<path class="st4" d="M104.6,231.6h-96c-1.9,0-3.4-1.5-3.4-3.4v-96c0-1.9,1.5-3.4,3.4-3.4h96c1.9,0,3.4,1.5,3.4,3.4v96
	C108,230.1,106.4,231.6,104.6,231.6z"/>
<path class="st4" d="M215.9,232.1h-96c-1.9,0-3.4-1.5-3.4-3.4v-96c0-1.9,1.5-3.4,3.4-3.4h96c1.9,0,3.4,1.5,3.4,3.4v96
	C219.3,230.6,217.8,232.1,215.9,232.1z"/>
<path class="st4" d="M324.5,121.2h-96c-1.9,0-3.4-1.5-3.4-3.4v-97c0-1.9,1.5-3.4,3.4-3.4h96c1.9,0,3.4,1.5,3.4,3.4v97
	C327.9,119.6,326.4,121.2,324.5,121.2z"/>
<path class="st4" d="M324.5,232.7h-96c-1.9,0-3.4-1.5-3.4-3.4v-97c0-1.9,1.5-3.4,3.4-3.4h96c1.9,0,3.4,1.5,3.4,3.4v97
	C327.9,231.1,326.4,232.7,324.5,232.7z"/>
<path class="st3" d="M46.5,95H19.6c-1.4,0-2.6-1.1-2.6-2.6l0,0c0-1.4,1.1-2.6,2.6-2.6h26.9c1.4,0,2.6,1.1,2.6,2.6l0,0
	C49.1,93.8,47.9,95,46.5,95z"/>
<path class="st3" d="M164.6,111.3H20.3c-2.5,0-4.6-2.1-4.6-4.6l0,0c0-2.5,2.1-4.6,4.6-4.6h144.3c2.5,0,4.6,2.1,4.6,4.6l0,0
	C169.2,109.2,167.2,111.3,164.6,111.3z"/>
<g>
	<path class="st3" d="M112.1,66.2l1.7,2.1l2,2.7l2.8-1.7l3.7-2.3v7.6h-21.6V67l4.3,2.7l2.7,1.6l2-2.4L112.1,66.2 M126.1,60.3
		l-9.3,5.7l-4.5-5.7l-5.1,6.1l-9.9-6.1v17.9h28.8V60.3L126.1,60.3z"/>
</g>
</svg>
