<?xml version="1.0" encoding="utf-8"?>
<!-- Generator: Adobe Illustrator 26.0.0, SVG Export Plug-In . SVG Version: 6.00 Build 0)  -->
<svg version="1.1" id="Layer_1" xmlns="http://www.w3.org/2000/svg" xmlns:xlink="http://www.w3.org/1999/xlink" x="0px" y="0px"
	 viewBox="0 0 250 250" style="enable-background:new 0 0 250 250;" xml:space="preserve">
<style type="text/css">
	.st0{fill:#E9EAED;}
	.st1{fill:#FFFFFF;}
	.st2{opacity:0.55;fill:#FFFFFF;enable-background:new    ;}
	.st3{fill:#EDF0F3;}
	.st4{fill:#A8B6C0;}
</style>
<rect class="st0" width="250" height="250"/>
<path class="st1" d="M175,214.4H66.7c-5.5,0-10-4.5-10-10V19.1c0-5.5,4.5-10,10-10H175c5.5,0,10,4.5,10,10v185.3
	C185,209.9,180.5,214.4,175,214.4z"/>
<path class="st2" d="M312.6,230.7H204.2c-5.5,0-10-4.5-10-10V19.1c0-5.5,4.5-10,10-10h108.3c5.5,0,10,4.5,10,10v201.6
	C322.6,226.2,318.1,230.7,312.6,230.7z"/>
<path class="st2" d="M175,444.5H66.7c-5.5,0-10-4.5-10-10V232.9c0-5.5,4.5-10,10-10H175c5.5,0,10,4.5,10,10v201.6
	C185,440,180.5,444.5,175,444.5z"/>
<path class="st2" d="M38.2,244H-70.2c-5.5,0-10-4.5-10-10V19.1c0-5.5,4.5-10,10-10H38.2c5.5,0,10,4.5,10,10V234
	C48.2,239.5,43.7,244,38.2,244z"/>
<path class="st3" d="M174.2,206.4H63.9c-1.9,0-3.4-1.5-3.4-3.4v-6.6c0-1.9,1.5-3.4,3.4-3.4h110.3c1.9,0,3.4,1.5,3.4,3.4v6.6
	C177.6,204.8,176.1,206.4,174.2,206.4z"/>
<path class="st4" d="M185,133H56.7V19.1c0-5.5,4.5-10,10-10H175c5.5,0,10,4.5,10,10V133z"/>
<path class="st3" d="M139.6,150.1H65.8c-2.9,0-5.3-2.4-5.3-5.3l0,0c0-2.9,2.4-5.3,5.3-5.3h73.8c2.9,0,5.3,2.4,5.3,5.3l0,0
	C144.9,147.7,142.5,150.1,139.6,150.1z"/>
<path class="st3" d="M111.2,166.1H65.8c-2.9,0-5.3-2.4-5.3-5.3l0,0c0-2.9,2.4-5.3,5.3-5.3h45.5c2.9,0,5.3,2.4,5.3,5.3l0,0
	C116.5,163.7,114.1,166.1,111.2,166.1z"/>
<path class="st3" d="M73.3,182.7h-7.2c-3.1,0-5.6-2.5-5.6-5.6l0,0c0-3.1,2.5-5.6,5.6-5.6h7.2c3.1,0,5.6,2.5,5.6,5.6l0,0
	C78.9,180.2,76.3,182.7,73.3,182.7z"/>
<path class="st3" d="M173.6,28.4h-17.2c-2.5,0-4.6-2.1-4.6-4.6l0,0c0-2.5,2.1-4.6,4.6-4.6h17.2c2.5,0,4.6,2.1,4.6,4.6l0,0
	C178.1,26.3,176.1,28.4,173.6,28.4z"/>
<path class="st3" d="M173.6,40.6h-6.4c-2.5,0-4.6-2.1-4.6-4.6l0,0c0-2.5,2.1-4.6,4.6-4.6h6.4c2.5,0,4.6,2.1,4.6,4.6l0,0
	C178.1,38.5,176.1,40.6,173.6,40.6z"/>
<g>
	<path class="st1" d="M119,66.9l1.7,2.1l2,2.7l2.8-1.7l3.7-2.3v7.6h-21.6v-7.6l4.3,2.7l2.7,1.6l2-2.4L119,66.9 M133,61.1l-9.3,5.7
		l-4.5-5.7l-5.1,6.1l-9.9-6.1v17.9H133V61.1L133,61.1z"/>
</g>
</svg>
