<?xml version="1.0" encoding="utf-8"?>
<!-- Generator: Adobe Illustrator 26.0.0, SVG Export Plug-In . SVG Version: 6.00 Build 0)  -->
<svg version="1.1" id="Layer_1" xmlns="http://www.w3.org/2000/svg" xmlns:xlink="http://www.w3.org/1999/xlink" x="0px" y="0px"
	 viewBox="0 0 250 250" style="enable-background:new 0 0 250 250;" xml:space="preserve">
<style type="text/css">
	.st0{fill:#E9EAED;}
	.st1{fill:#FFFFFF;}
	.st2{opacity:0.65;fill:#FFFFFF;enable-background:new    ;}
	.st3{fill:#A8B6C0;}
	.st4{opacity:0.64;fill:#EDF0F3;enable-background:new    ;}
	.st5{opacity:0.34;fill:#FFFFFF;enable-background:new    ;}
</style>
<rect class="st0" width="250" height="250"/>
<rect x="57.5" y="8.8" class="st1" width="137.1" height="234.2"/>
<rect x="-91.9" y="7.9" class="st2" width="137.1" height="135.4"/>
<rect x="-91.9" y="156" class="st2" width="137.1" height="135.4"/>
<rect x="207" y="204" class="st2" width="137.1" height="135.4"/>
<rect x="207" y="7.9" class="st2" width="137.1" height="183.4"/>
<rect x="57.5" y="7.8" class="st3" width="137.1" height="209"/>
<path class="st4" d="M176.7,235.9H69.6c-2.9,0-5.3-2.4-5.3-5.3l0,0c0-2.9,2.4-5.3,5.3-5.3h107.1c2.9,0,5.3,2.4,5.3,5.3l0,0
	C182,233.5,179.6,235.9,176.7,235.9z"/>
<rect x="57.5" y="202.5" class="st5" width="137.1" height="14.3"/>
<g>
	<path class="st1" d="M127.7,107.1l1.7,2.1l2,2.7l2.8-1.7l3.7-2.3v7.6h-21.6v-7.6l4.3,2.7l2.7,1.6l2-2.4L127.7,107.1 M141.7,101.2
		l-9.3,5.7l-4.5-5.7l-5.1,6.1l-9.9-6.1v17.9h28.8V101.2L141.7,101.2z"/>
</g>
</svg>
