<?xml version="1.0" encoding="utf-8"?>
<!-- Generator: Adobe Illustrator 26.0.0, SVG Export Plug-In . SVG Version: 6.00 Build 0)  -->
<svg version="1.1" id="Layer_1" xmlns="http://www.w3.org/2000/svg" xmlns:xlink="http://www.w3.org/1999/xlink" x="0px" y="0px"
	 viewBox="0 0 250 250" style="enable-background:new 0 0 250 250;" xml:space="preserve">
<style type="text/css">
	.st0{fill:#E9EAED;}
	.st1{fill:#FFFFFF;}
	.st2{opacity:0.18;fill:#FFFFFF;enable-background:new    ;}
	.st3{fill:#A8B6C0;}
	.st4{fill:#EDF0F3;}
	.st5{opacity:0.71;fill:#EDF0F3;enable-background:new    ;}
	.st6{opacity:0.54;fill:#42C67B;enable-background:new    ;}
	.st7{opacity:0.54;fill:#EF2635;enable-background:new    ;}
</style>
<rect class="st0" width="250" height="250"/>
<path class="st1" d="M232.3,162.7H16.1c-5,0-9.2-4.1-9.2-9.2v-56c0-5,4.1-9.2,9.2-9.2h216.2c5,0,9.2,4.1,9.2,9.2v56
	C241.5,158.5,237.3,162.7,232.3,162.7z"/>
<path class="st2" d="M233.1,80.6H16.9c-5,0-9.2-4.1-9.2-9.2v-56c0-5,4.1-9.2,9.2-9.2h216.2c5,0,9.2,4.1,9.2,9.2v56
	C242.3,76.5,238.1,80.6,233.1,80.6z"/>
<path class="st2" d="M233.1,244.7H16.9c-5,0-9.2-4.1-9.2-9.2v-56c0-5,4.1-9.2,9.2-9.2h216.2c5,0,9.2,4.1,9.2,9.2v56
	C242.3,240.6,238.1,244.7,233.1,244.7z"/>
<path class="st1" d="M82.2,156.1c0,0.2-0.2,0.3-0.3,0.3l-1.4-0.1c-3.6-0.4-7.3-0.6-10.9-0.6h-0.1c-3.7,0-7.3,0.2-11,0.6l-1.3,0.1
	c-0.2,0-0.3-0.1-0.3-0.3l-1.4-15.8c0-0.3,0.2-0.4,0.5-0.3l7.7,3.9c0.1,0.1,0.3,0,0.4-0.1l5.2-6.4c0.1-0.2,0.4-0.2,0.5,0l5.2,6.4
	c0.1,0.1,0.3,0.2,0.4,0.1L83,140c0.2-0.1,0.5,0.1,0.5,0.3L82.2,156.1z M60.1,146.1l0.5,5.8c0,0.1,0.2,0.3,0.3,0.2
	c2.8-0.2,5.7-0.3,8.5-0.3c0,0,0,0,0.1,0c2.8,0,5.7,0.1,8.5,0.3c0.2,0,0.3-0.1,0.3-0.2l0.5-5.8c0-0.2-0.2-0.3-0.4-0.3l-4.5,2.1
	c-0.1,0.1-0.3,0-0.3-0.1l-3.9-4.4c-0.1-0.1-0.3-0.1-0.4,0l-3.9,4.4c-0.1,0.1-0.2,0.1-0.3,0.1l-4.5-2.1
	C60.3,145.8,60.1,145.9,60.1,146.1z"/>
<path class="st3" d="M83.9,156.2H19.1c-4.4,0-7.9-3.6-7.9-7.9v-46.1c0-4.4,3.6-7.9,7.9-7.9h64.8c4.4,0,7.9,3.6,7.9,7.9v46.1
	C91.8,152.6,88.2,156.2,83.9,156.2z"/>
<path class="st4" d="M204.9,112.3h-101c-2.4,0-4.4-2-4.4-4.4V107c0-2.4,2-4.4,4.4-4.4h100.9c2.4,0,4.4,2,4.4,4.4v0.9
	C209.3,110.3,207.3,112.3,204.9,112.3z"/>
<path class="st4" d="M124.2,125.5h-19.8c-2.7,0-4.9-2.2-4.9-4.9l0,0c0-2.7,2.2-4.9,4.9-4.9h19.8c2.7,0,4.9,2.2,4.9,4.9l0,0
	C129,123.3,126.8,125.5,124.2,125.5z"/>
<circle class="st4" cx="108.1" cy="150.3" r="6.1"/>
<path class="st5" d="M138.5,151.4h-19.7c-1.1,0-2.1,0.9-2.1,2.1l0,0c0,1.1,0.9,2.1,2.1,2.1h19.7c1.1,0,2.1-0.9,2.1-2.1l0,0
	C140.5,152.3,139.6,151.4,138.5,151.4z"/>
<path class="st5" d="M121.3,94.4h-19.7c-1.1,0-2.1,0.9-2.1,2.1l0,0c0,1.1,0.9,2.1,2.1,2.1h19.7c1.1,0,2.1-0.9,2.1-2.1l0,0
	C123.4,95.3,122.5,94.4,121.3,94.4z"/>
<path class="st4" d="M126.9,149.5h-8.2c-1.2,0-2.1-0.9-2.1-2.1l0,0c0-1.2,0.9-2.1,2.1-2.1h8.2c1.2,0,2.1,0.9,2.1,2.1l0,0
	C129,148.5,128.1,149.5,126.9,149.5z"/>
<path class="st4" d="M233.9,132.6h-7.5c-1.9,0-3.4-1.5-3.4-3.4v-7.5c0-1.9,1.5-3.4,3.4-3.4h7.5c1.9,0,3.4,1.5,3.4,3.4v7.5
	C237.3,131.1,235.8,132.6,233.9,132.6z"/>
<path class="st6" d="M231.1,113.8h-1.9c-1.8,0-3.3-1.5-3.3-3.3l0,0c0-1.8,1.5-3.3,3.3-3.3h1.9c1.8,0,3.3,1.5,3.3,3.3l0,0
	C234.4,112.3,232.9,113.8,231.1,113.8z"/>
<path class="st7" d="M231.1,143.8h-1.9c-1.8,0-3.3-1.5-3.3-3.3l0,0c0-1.8,1.5-3.3,3.3-3.3h1.9c1.8,0,3.3,1.5,3.3,3.3l0,0
	C234.4,142.3,232.9,143.8,231.1,143.8z"/>
<g>
	<path class="st1" d="M51.8,122.9l1.3,1.6l1.5,2l2.1-1.3l2.8-1.7v5.8H43.2v-5.8l3.2,2l2,1.2l1.5-1.8L51.8,122.9 M62.4,118.5
		l-7.1,4.3l-3.4-4.3l-3.8,4.7l-7.5-4.7V132h21.8V118.5L62.4,118.5z"/>
</g>
</svg>
