<?xml version="1.0" encoding="utf-8"?>
<!-- Generator: Adobe Illustrator 26.0.0, SVG Export Plug-In . SVG Version: 6.00 Build 0)  -->
<svg version="1.1" id="Layer_1" xmlns="http://www.w3.org/2000/svg" xmlns:xlink="http://www.w3.org/1999/xlink" x="0px" y="0px"
	 viewBox="0 0 250 250" style="enable-background:new 0 0 250 250;" xml:space="preserve">
<style type="text/css">
	.st0{fill:#E9EAED;}
	.st1{fill:#FFFFFF;}
	.st2{fill:#EDF0F3;}
	.st3{fill:#A8B6C0;}
	.st4{opacity:0.64;fill:#EDF0F3;enable-background:new    ;}
</style>
<rect class="st0" width="250" height="250"/>
<path class="st1" d="M228.2,204.4H21.8c-1.9,0-3.4-1.5-3.4-3.4V49.7c0-1.9,1.5-3.4,3.4-3.4h206.3c1.9,0,3.4,1.5,3.4,3.4V201
	C231.6,202.9,230,204.4,228.2,204.4z"/>
<path class="st2" d="M224.8,202.4H25c-1.9,0-3.4-1.5-3.4-3.4v-15.4c0-1.9,1.5-3.4,3.4-3.4h199.8c1.9,0,3.4,1.5,3.4,3.4V199
	C228.2,200.8,226.7,202.4,224.8,202.4z"/>
<path class="st3" d="M231.6,176.6H18.4V49c0-1.9,1.5-3.4,3.4-3.4h206.3c1.9,0,3.4,1.5,3.4,3.4L231.6,176.6L231.6,176.6z"/>
<path class="st2" d="M218.1,67.9h-22.5c-3.6,0-6.6-3-6.6-6.6l0,0c0-3.7,3-6.6,6.6-6.6h22.5c3.6,0,6.6,3,6.6,6.6l0,0
	C224.7,64.9,221.7,67.9,218.1,67.9z"/>
<path class="st2" d="M218.1,86.8h-15.7c-3.6,0-6.6-3-6.6-6.6l0,0c0-3.7,3-6.6,6.6-6.6h15.7c3.6,0,6.6,3,6.6,6.6l0,0
	C224.7,83.8,221.7,86.8,218.1,86.8z"/>
<circle class="st2" cx="216.6" cy="97.5" r="8.2"/>
<path class="st4" d="M79.3,159.9H26.9c-2.9,0-5.3-2.4-5.3-5.3l0,0c0-2.9,2.4-5.3,5.3-5.3h52.4c2.9,0,5.3,2.4,5.3,5.3l0,0
	C84.6,157.6,82.2,159.9,79.3,159.9z"/>
<path class="st4" d="M34.4,174.6h-7.2c-3.1,0-5.6-2.5-5.6-5.6l0,0c0-3.1,2.5-5.6,5.6-5.6h7.2c3.1,0,5.6,2.5,5.6,5.6l0,0
	C40,172.1,37.5,174.6,34.4,174.6z"/>
<g>
	<path class="st1" d="M127.3,108.4l1.7,2.1l2,2.7l2.8-1.7l3.7-2.3v7.6H116v-7.6l4.3,2.7l2.7,1.6l2-2.4L127.3,108.4 M141.3,102.5
		l-9.3,5.7l-4.5-5.7l-5.1,6.1l-9.9-6.1v17.9h28.8V102.5L141.3,102.5z"/>
</g>
</svg>
