<?xml version="1.0" encoding="utf-8"?>
<!-- Generator: Adobe Illustrator 26.0.0, SVG Export Plug-In . SVG Version: 6.00 Build 0)  -->
<svg version="1.1" id="Layer_1" xmlns="http://www.w3.org/2000/svg" xmlns:xlink="http://www.w3.org/1999/xlink" x="0px" y="0px"
	 viewBox="0 0 250 250" style="enable-background:new 0 0 250 250;" xml:space="preserve">
<style type="text/css">
	.st0{fill:#E9EAED;}
	.st1{fill:#FFFFFF;}
	.st2{opacity:0.18;fill:#FFFFFF;enable-background:new    ;}
	.st3{fill:#A8B6C0;}
	.st4{fill:#EDF0F3;}
	.st5{opacity:0.71;fill:#EDF0F3;enable-background:new    ;}
</style>
<rect class="st0" width="250" height="250"/>
<path class="st1" d="M234.1,183.5H15.9c-4.5,0-8.2-3.7-8.2-8.2V74.7c0-4.5,3.7-8.2,8.2-8.2h218.2c4.5,0,8.2,3.7,8.2,8.2v100.6
	C242.3,179.8,238.6,183.5,234.1,183.5z"/>
<path class="st2" d="M234.1,55.5H15.9c-4.5,0-8.2-3.7-8.2-8.2V-53.3c0-4.5,3.7-8.2,8.2-8.2h218.2c4.5,0,8.2,3.7,8.2,8.2V47.3
	C242.3,51.8,238.6,55.5,234.1,55.5z"/>
<path class="st2" d="M234.1,311.5H15.9c-4.5,0-8.2-3.7-8.2-8.2V202.7c0-4.5,3.7-8.2,8.2-8.2h218.2c4.5,0,8.2,3.7,8.2,8.2v100.6
	C242.3,307.8,238.6,311.5,234.1,311.5z"/>
<path class="st3" d="M120,177.4H20.6c-4.4,0-7.9-3.5-7.9-7.9V80.5c0-4.3,3.5-7.9,7.9-7.9H120c4.3,0,7.9,3.5,7.9,7.9v89.1
	C127.9,173.9,124.4,177.4,120,177.4z"/>
<circle class="st4" cx="146.8" cy="164.2" r="9.6"/>
<path class="st4" d="M229.2,86h-86.8c-2.9,0-5.3-2.4-5.3-5.3l0,0c0-2.9,2.4-5.3,5.3-5.3h86.8c2.9,0,5.3,2.4,5.3,5.3l0,0
	C234.4,83.7,232.1,86,229.2,86z"/>
<path class="st4" d="M174.4,99.4h-32c-2.9,0-5.3-2.4-5.3-5.3l0,0c0-2.9,2.4-5.3,5.3-5.3h32c2.9,0,5.3,2.4,5.3,5.3l0,0
	C179.6,97,177.3,99.4,174.4,99.4z"/>
<path class="st5" d="M227.8,108.3h-87.5c-1.8,0-3.2,1.5-3.2,3.2l0,0c0,1.8,1.5,3.2,3.2,3.2h87.5c1.8,0,3.2-1.5,3.2-3.2l0,0
	C231.1,109.7,229.6,108.3,227.8,108.3z"/>
<path class="st5" d="M227.8,118h-87.5c-1.8,0-3.2,1.5-3.2,3.2l0,0c0,1.8,1.5,3.2,3.2,3.2h87.5c1.8,0,3.2-1.5,3.2-3.2l0,0
	C231.1,119.4,229.6,118,227.8,118z"/>
<path class="st5" d="M227.8,128.5h-87.5c-1.8,0-3.2,1.5-3.2,3.2l0,0c0,1.8,1.5,3.2,3.2,3.2h87.5c1.8,0,3.2-1.5,3.2-3.2l0,0
	C231.1,130,229.6,128.5,227.8,128.5z"/>
<path class="st5" d="M194.4,165.9h-31c-1.8,0-3.2,1.5-3.2,3.2l0,0c0,1.8,1.5,3.2,3.2,3.2h31c1.8,0,3.2-1.5,3.2-3.2l0,0
	C197.7,167.4,196.2,165.9,194.4,165.9z"/>
<path class="st4" d="M176.4,162.9h-12.8c-1.8,0-3.3-1.5-3.3-3.3l0,0c0-1.8,1.5-3.3,3.3-3.3h12.8c1.8,0,3.3,1.5,3.3,3.3l0,0
	C179.6,161.5,178.2,162.9,176.4,162.9z"/>
<g>
	<path class="st1" d="M70.4,121.9l1.7,2.1l2,2.7l2.8-1.7l3.7-2.3v7.6H59v-7.6l4.3,2.7L66,127l2-2.4L70.4,121.9 M84.3,116.1l-9.3,5.7
		l-4.5-5.7l-5.1,6.1l-9.9-6.1v17.9h28.8V116.1L84.3,116.1z"/>
</g>
</svg>
