<?xml version="1.0" encoding="utf-8"?>
<!-- Generator: Adobe Illustrator 26.0.0, SVG Export Plug-In . SVG Version: 6.00 Build 0)  -->
<svg version="1.1" id="Layer_1" xmlns="http://www.w3.org/2000/svg" xmlns:xlink="http://www.w3.org/1999/xlink" x="0px" y="0px"
	 viewBox="0 0 250 250" style="enable-background:new 0 0 250 250;" xml:space="preserve">
<style type="text/css">
	.st0{fill:#E9EAED;}
	.st1{fill:#A8B6C0;}
	.st2{fill:#FFFFFF;}
	.st3{opacity:0.8;fill:#FFFFFF;enable-background:new    ;}
	.st4{opacity:0.6;fill:#FFFFFF;enable-background:new    ;}
</style>
<rect class="st0" width="250" height="250"/>
<path class="st1" d="M228.2,183.5H21.8c-1.9,0-3.4-1.5-3.4-3.4V55.9c0-1.9,1.5-3.4,3.4-3.4h206.3c1.9,0,3.4,1.5,3.4,3.4v124.2
	C231.6,182,230.1,183.5,228.2,183.5z"/>
<circle class="st2" cx="28.4" cy="197.2" r="10"/>
<path class="st2" d="M227,196.1H50.6c-1.9,0-3.4-1.5-3.4-3.4v-1.1c0-1.9,1.5-3.4,3.4-3.4H227c1.9,0,3.4,1.5,3.4,3.4v1.1
	C230.4,194.6,228.9,196.1,227,196.1z"/>
<path class="st3" d="M77.8,205.1H50.6c-1.9,0-3.4-1.5-3.4-3.4l0,0c0-1.9,1.5-3.4,3.4-3.4h27.2c1.9,0,3.4,1.5,3.4,3.4l0,0
	C81.2,203.5,79.7,205.1,77.8,205.1z"/>
<path class="st4" d="M86.1,213.4H49.6c-1.3,0-2.3-1.1-2.3-2.3v-1.5c0-1.3,1.1-2.3,2.3-2.3h36.5c1.3,0,2.3,1.1,2.3,2.3v1.5
	C88.5,212.3,87.4,213.4,86.1,213.4z"/>
<path class="st4" d="M129.3,213.4H92.7c-1.3,0-2.3-1.1-2.3-2.3v-1.5c0-1.3,1.1-2.3,2.3-2.3h36.5c1.3,0,2.3,1.1,2.3,2.3v1.5
	C131.6,212.3,130.6,213.4,129.3,213.4z"/>
<g>
	<path class="st2" d="M125.5,115l1.7,2.1l2,2.7l2.8-1.7l3.7-2.3v7.6h-21.6v-7.6l4.3,2.7l2.7,1.6l2-2.4L125.5,115 M139.5,109.2
		l-9.3,5.7l-4.5-5.7l-5.1,6.1l-9.9-6.1V127h28.8V109.2L139.5,109.2z"/>
</g>
</svg>
