<?xml version="1.0" encoding="utf-8"?>
<!-- Generator: Adobe Illustrator 26.0.0, SVG Export Plug-In . SVG Version: 6.00 Build 0)  -->
<svg version="1.1" id="Layer_1" xmlns="http://www.w3.org/2000/svg" xmlns:xlink="http://www.w3.org/1999/xlink" x="0px" y="0px"
	 viewBox="0 0 250 250" style="enable-background:new 0 0 250 250;" xml:space="preserve">
<style type="text/css">
	.st0{fill:#E9EAED;}
	.st1{fill:#A8B6C0;}
	.st2{opacity:0.5;fill:#A8B6C0;enable-background:new    ;}
	.st3{opacity:0.76;fill:#EDF0F3;enable-background:new    ;}
	.st4{opacity:0.49;fill:#EDF0F3;enable-background:new    ;}
	.st5{fill:#E6E7E8;}
	.st6{fill:#FFFFFF;}
</style>
<rect class="st0" width="250" height="250"/>
<path class="st1" d="M185.8,229.1H60.2c-3.8,0-6.9-3.1-6.9-6.9V20.5c0-5.6,4.6-10.3,10.3-10.3h118.8c5.6,0,10.3,4.6,10.3,10.3v201.7
	C192.7,226.1,189.6,229.1,185.8,229.1z"/>
<path class="st2" d="M185.7,453.9H60c-3.8,0-6.9-3.1-6.9-6.9V245.3c0-5.6,4.6-10.3,10.3-10.3h118.8c5.7,0,10.3,4.6,10.3,10.3V447
	C192.6,450.8,189.5,453.9,185.7,453.9z"/>
<path class="st2" d="M39.5,229.1H-86.1c-3.8,0-6.9-3.1-6.9-6.9V20.5c0-5.6,4.6-10.3,10.3-10.3H36.1c5.7,0,10.3,4.6,10.3,10.3v201.7
	C46.4,226.1,43.3,229.1,39.5,229.1z"/>
<path class="st2" d="M305,182.7h-99c-3,0-5.4-2.4-5.4-5.4V18.4c0-4.5,3.6-8.1,8.1-8.1h93.6c4.5,0,8.1,3.6,8.1,8.1v158.9
	C310.4,180.2,308,182.7,305,182.7z"/>
<path class="st2" d="M305,362.6h-99c-3,0-5.4-2.4-5.4-5.4V198.3c0-4.5,3.6-8.1,8.1-8.1h93.6c4.5,0,8.1,3.6,8.1,8.1v158.9
	C310.4,360.2,308,362.6,305,362.6z"/>
<path class="st3" d="M177.1,29.9h-18.6c-3,0-5.5-2.5-5.5-5.5l0,0c0-3,2.5-5.5,5.5-5.5h18.6c3,0,5.5,2.5,5.5,5.5l0,0
	C182.6,27.4,180.2,29.9,177.1,29.9z"/>
<path class="st4" d="M183.6,227.1H62.1c-3.7,0-6.6-3-6.6-6.6v-44.3c0-3.6,3-6.6,6.6-6.6h121.5c3.6,0,6.6,3,6.6,6.6v44.3
	C190.3,224.1,187.3,227.1,183.6,227.1z"/>
<path class="st3" d="M177.1,45.5h-12.9c-3,0-5.5-2.5-5.5-5.5l0,0c0-3,2.5-5.5,5.5-5.5h12.9c3,0,5.5,2.5,5.5,5.5l0,0
	C182.6,43,180.2,45.5,177.1,45.5z"/>
<circle class="st3" cx="175.9" cy="56.9" r="6.7"/>
<path class="st5" d="M143.5,186.9H65.1c-2.3,0-4.3-1.9-4.3-4.3l0,0c0-2.3,1.9-4.3,4.3-4.3h78.4c2.3,0,4.3,1.9,4.3,4.3l0,0
	C147.7,185,145.8,186.9,143.5,186.9z"/>
<path class="st5" d="M116.2,218.9h-52c-1.9,0-3.4-1.5-3.4-3.4l0,0c0-1.9,1.5-3.4,3.4-3.4h52c1.9,0,3.4,1.5,3.4,3.4l0,0
	C119.6,217.4,118.1,218.9,116.2,218.9z"/>
<path class="st5" d="M180.7,218.9h-32.6c-1.9,0-3.4-1.5-3.4-3.4l0,0c0-1.9,1.5-3.4,3.4-3.4h32.6c1.9,0,3.4,1.5,3.4,3.4l0,0
	C184.1,217.4,182.6,218.9,180.7,218.9z"/>
<path class="st5" d="M79.5,201.2H64.2c-1.9,0-3.4-1.5-3.4-3.4l0,0c0-1.9,1.5-3.4,3.4-3.4h15.3c1.9,0,3.4,1.5,3.4,3.4l0,0
	C82.9,199.7,81.4,201.2,79.5,201.2z"/>
<path class="st5" d="M111.6,201.2H88.7c-1.9,0-3.4-1.5-3.4-3.4l0,0c0-1.9,1.5-3.4,3.4-3.4h22.9c1.9,0,3.4,1.5,3.4,3.4l0,0
	C115.1,199.7,113.5,201.2,111.6,201.2z"/>
<g>
	<path class="st6" d="M119.8,100.7l1.7,2.1l2,2.7l2.8-1.7l3.7-2.3v7.6h-21.6v-7.6l4.3,2.7l2.7,1.6l2-2.4L119.8,100.7 M133.8,94.8
		l-9.3,5.7l-4.5-5.7l-5.1,6.1l-9.9-6.1v17.9h28.8V94.8L133.8,94.8z"/>
</g>
</svg>
