<?xml version="1.0" encoding="utf-8"?>
<!-- Generator: Adobe Illustrator 26.0.0, SVG Export Plug-In . SVG Version: 6.00 Build 0)  -->
<svg version="1.1" id="Layer_1" xmlns="http://www.w3.org/2000/svg" xmlns:xlink="http://www.w3.org/1999/xlink" x="0px" y="0px"
	 viewBox="0 0 250 250" style="enable-background:new 0 0 250 250;" xml:space="preserve">
<style type="text/css">
	.st0{fill:#E9EAED;}
	.st1{fill:#FFFFFF;}
	.st2{fill:#A8B6C0;}
	.st3{opacity:0.38;fill:#EDF0F3;enable-background:new    ;}
	.st4{fill:#EDF0F3;}
	.st5{opacity:0.52;fill:#EDF0F3;enable-background:new    ;}
</style>
<rect class="st0" width="250" height="250"/>
<path class="st1" d="M209.6,231.8H40c-1.9,0-3.4-1.5-3.4-3.4V20.7c0-1.9,1.5-3.4,3.4-3.4h169.6c1.9,0,3.4,1.5,3.4,3.4v207.7
	C213,230.2,211.4,231.8,209.6,231.8z"/>
<rect x="36.6" y="39.1" class="st2" width="176.4" height="168.2"/>
<path class="st3" d="M207.1,60h-31.7c-1.1,0-2-0.9-2-2v-9.3c0-1.1,0.9-2,2-2h31.7c1.1,0,2,0.9,2,2V58C209.1,59.1,208.2,60,207.1,60z
	"/>
<path class="st4" d="M100.3,224.4H47.9c-2.9,0-5.3-2.4-5.3-5.3l0,0c0-2.9,2.4-5.3,5.3-5.3h52.4c2.9,0,5.3,2.4,5.3,5.3l0,0
	C105.6,222,103.2,224.4,100.3,224.4z"/>
<path class="st5" d="M161.7,202.6H47.9c-2.9,0-5.3-2.4-5.3-5.3l0,0c0-2.9,2.4-5.3,5.3-5.3h113.8c2.9,0,5.3,2.4,5.3,5.3l0,0
	C167,200.2,164.6,202.6,161.7,202.6z"/>
<circle class="st4" cx="50" cy="29" r="7.4"/>
<path class="st4" d="M80.5,32.5H63.2c-1.9,0-3.4-1.5-3.4-3.4v-0.4c0-1.9,1.5-3.4,3.4-3.4h17.4c1.9,0,3.4,1.5,3.4,3.4v0.4
	C83.9,31,82.4,32.5,80.5,32.5z"/>
<path class="st4" d="M207.2,32.5h-40.5c-1.9,0-3.4-1.5-3.4-3.4v-0.4c0-1.9,1.5-3.4,3.4-3.4h40.5c1.9,0,3.4,1.5,3.4,3.4v0.4
	C210.6,31,209,32.5,207.2,32.5z"/>
<g>
	<path class="st1" d="M125.2,120.2l1.7,2.1l2,2.7l2.8-1.7l3.7-2.3v7.6h-21.6V121l4.3,2.7l2.7,1.6l2-2.4L125.2,120.2 M139.2,114.3
		l-9.3,5.7l-4.5-5.7l-5.1,6.1l-9.9-6.1v17.9h28.8V114.3L139.2,114.3z"/>
</g>
</svg>
