<?xml version="1.0" encoding="utf-8"?>
<!-- Generator: Adobe Illustrator 26.0.0, SVG Export Plug-In . SVG Version: 6.00 Build 0)  -->
<svg version="1.1" id="Layer_1" xmlns="http://www.w3.org/2000/svg" xmlns:xlink="http://www.w3.org/1999/xlink" x="0px" y="0px"
	 viewBox="0 0 250 250" style="enable-background:new 0 0 250 250;" xml:space="preserve">
<style type="text/css">
	.st0{fill:#E9EAED;}
	.st1{fill:#A8B6C0;}
	.st2{opacity:0.8;fill:#A8B6C0;enable-background:new    ;}
	.st3{opacity:0.4;fill:#A8B6C0;enable-background:new    ;}
	.st4{opacity:0.6;fill:#A8B6C0;enable-background:new    ;}
	.st5{opacity:0.61;fill:#EDF0F3;enable-background:new    ;}
	.st6{fill:#FFFFFF;}
</style>
<rect class="st0" width="250" height="250"/>
<rect x="100" y="50" class="st1" width="150" height="100"/>
<rect y="50" class="st2" width="100" height="50"/>
<rect x="100" y="150" class="st2" width="100" height="50"/>
<rect x="200" y="150" class="st3" width="50" height="50"/>
<rect y="100" class="st4" width="100" height="100"/>
<path class="st5" d="M191.7,106.4H171c-1.3,0-2.4-1.1-2.4-2.4l0,0c0-1.3,1.1-2.4,2.4-2.4h20.7c1.3,0,2.4,1.1,2.4,2.4l0,0
	C194.1,105.4,193,106.4,191.7,106.4z"/>
<path class="st5" d="M202.7,96.5H160c-1.9,0-3.4-1.5-3.4-3.4l0,0c0-1.9,1.5-3.4,3.4-3.4h42.8c1.9,0,3.4,1.5,3.4,3.4l0,0
	C206.1,95,204.6,96.5,202.7,96.5z"/>
<path class="st5" d="M54.7,81.4H34c-1.3,0-2.4-1.1-2.4-2.4l0,0c0-1.3,1.1-2.4,2.4-2.4h20.7c1.3,0,2.4,1.1,2.4,2.4l0,0
	C57.1,80.4,56,81.4,54.7,81.4z"/>
<path class="st5" d="M65.7,71.5H23c-1.9,0-3.4-1.5-3.4-3.4l0,0c0-1.9,1.5-3.4,3.4-3.4h42.8c1.9,0,3.4,1.5,3.4,3.4l0,0
	C69.1,70,67.6,71.5,65.7,71.5z"/>
<path class="st5" d="M59.7,156.4H39c-1.3,0-2.4-1.1-2.4-2.4l0,0c0-1.3,1.1-2.4,2.4-2.4h20.7c1.3,0,2.4,1.1,2.4,2.4l0,0
	C62.1,155.4,61,156.4,59.7,156.4z"/>
<path class="st5" d="M70.7,146.5H28c-1.9,0-3.4-1.5-3.4-3.4l0,0c0-1.9,1.5-3.4,3.4-3.4h42.8c1.9,0,3.4,1.5,3.4,3.4l0,0
	C74.1,145,72.6,146.5,70.7,146.5z"/>
<path class="st5" d="M160.7,185.4H140c-1.3,0-2.4-1.1-2.4-2.4l0,0c0-1.3,1.1-2.4,2.4-2.4h20.7c1.3,0,2.4,1.1,2.4,2.4l0,0
	C163.1,184.4,162,185.4,160.7,185.4z"/>
<path class="st5" d="M235.1,175H216c-1.7,0-3.2-1.4-3.2-3.2l0,0c0-1.7,1.4-3.2,3.2-3.2h19.1c1.7,0,3.2,1.4,3.2,3.2l0,0
	C238.2,173.6,236.8,175,235.1,175z"/>
<path class="st5" d="M232.4,185.4h-13.6c-1.3,0-2.4-1.1-2.4-2.4l0,0c0-1.3,1.1-2.4,2.4-2.4h13.6c1.3,0,2.4,1.1,2.4,2.4l0,0
	C234.8,184.4,233.7,185.4,232.4,185.4z"/>
<path class="st5" d="M171.7,175.5H129c-1.9,0-3.4-1.5-3.4-3.4l0,0c0-1.9,1.5-3.4,3.4-3.4h42.8c1.9,0,3.4,1.5,3.4,3.4l0,0
	C175.1,174,173.6,175.5,171.7,175.5z"/>
<g>
	<path class="st6" d="M113.5,139.6l0.6,0.7l0.7,0.9l0.9-0.6l1.2-0.8v2.5h-7.2v-2.5l1.4,0.9l0.9,0.5l0.7-0.8L113.5,139.6
		 M118.2,137.6l-3.1,1.9l-1.5-1.9l-1.7,2l-3.3-2v6h9.6V137.6L118.2,137.6z"/>
</g>
</svg>
