<?xml version="1.0" encoding="utf-8"?>
<!-- Generator: Adobe Illustrator 26.0.0, SVG Export Plug-In . SVG Version: 6.00 Build 0)  -->
<svg version="1.1" id="Layer_1" xmlns="http://www.w3.org/2000/svg" xmlns:xlink="http://www.w3.org/1999/xlink" x="0px" y="0px"
	 viewBox="0 0 250 250" style="enable-background:new 0 0 250 250;" xml:space="preserve">
<style type="text/css">
	.st0{fill:#E9EAED;}
	.st1{fill:#FFFFFF;}
	.st2{fill:#EDF0F3;}
	.st3{fill:#A8B6C0;}
	.st4{opacity:0.5;fill:#FFFFFF;enable-background:new    ;}
</style>
<rect class="st0" width="250" height="250"/>
<path class="st1" d="M232.7,208.3H17.3c-1.9,0-3.4-1.5-3.4-3.4V27.7c0-1.9,1.5-3.4,3.4-3.4h215.4c1.9,0,3.4,1.5,3.4,3.4v177.2
	C236.1,206.8,234.6,208.3,232.7,208.3z"/>
<path class="st2" d="M228.3,205.3H20.5c-1.9,0-3.4-1.5-3.4-3.4v-17.1c0-1.9,1.5-3.4,3.4-3.4h207.8c1.9,0,3.4,1.5,3.4,3.4v17.1
	C231.7,203.8,230.1,205.3,228.3,205.3z"/>
<path class="st3" d="M236,126.8H14V27.7c0-1.9,1.5-3.4,3.4-3.4h215.3c1.9,0,3.4,1.5,3.4,3.4L236,126.8L236,126.8z"/>
<path class="st4" d="M232.1,401.4H16.7c-1.9,0-3.4-1.5-3.4-3.4V220.7c0-1.9,1.5-3.4,3.4-3.4h215.4c1.9,0,3.4,1.5,3.4,3.4V398
	C235.5,399.8,234,401.4,232.1,401.4z"/>
<path class="st4" d="M232.7,12.9H17.3c-1.9,0-3.4-1.5-3.4-3.4v-177.2c0-1.9,1.5-3.4,3.4-3.4h215.4c1.9,0,3.4,1.5,3.4,3.4V9.5
	C236.1,11.4,234.6,12.9,232.7,12.9z"/>
<path class="st2" d="M222.6,45.2h-22.5c-3.6,0-6.6-3-6.6-6.6l0,0c0-3.7,3-6.6,6.6-6.6h22.5c3.6,0,6.6,3,6.6,6.6l0,0
	C229.3,42.2,226.3,45.2,222.6,45.2z"/>
<path class="st2" d="M222.6,62.5H207c-3.6,0-6.6-3-6.6-6.6l0,0c0-3.7,3-6.6,6.6-6.6h15.7c3.6,0,6.6,3,6.6,6.6l0,0
	C229.3,59.5,226.3,62.5,222.6,62.5z"/>
<circle class="st2" cx="221.1" cy="74.8" r="8.2"/>
<path class="st2" d="M190.3,144H22.6c-2.9,0-5.3-2.4-5.3-5.3l0,0c0-2.9,2.4-5.3,5.3-5.3h167.8c2.9,0,5.3,2.4,5.3,5.3l0,0
	C195.6,141.6,193.2,144,190.3,144z"/>
<path class="st2" d="M130.4,160H22.6c-2.9,0-5.3-2.4-5.3-5.3l0,0c0-2.9,2.4-5.3,5.3-5.3h107.9c2.9,0,5.3,2.4,5.3,5.3l0,0
	C135.7,157.6,133.3,160,130.4,160z"/>
<path class="st2" d="M30.1,177.1h-7.2c-3.1,0-5.6-2.5-5.6-5.6l0,0c0-3.1,2.5-5.6,5.6-5.6h7.2c3.1,0,5.6,2.5,5.6,5.6l0,0
	C35.7,174.6,33.1,177.1,30.1,177.1z"/>
<g>
	<path class="st1" d="M127.2,68.3l1.7,2.1l2,2.7l2.8-1.7l3.7-2.3v7.6h-21.6v-7.6l4.3,2.7l2.7,1.6l2-2.4L127.2,68.3 M141.2,62.5
		l-9.3,5.7l-4.5-5.7l-5.1,6.1l-9.9-6.1v17.9h28.8V62.5L141.2,62.5z"/>
</g>
</svg>
