<?xml version="1.0" encoding="utf-8"?>
<!-- Generator: Adobe Illustrator 26.0.0, SVG Export Plug-In . SVG Version: 6.00 Build 0)  -->
<svg version="1.1" id="Layer_1" xmlns="http://www.w3.org/2000/svg" xmlns:xlink="http://www.w3.org/1999/xlink" x="0px" y="0px"
	 viewBox="0 0 250 250" style="enable-background:new 0 0 250 250;" xml:space="preserve">
<style type="text/css">
	.st0{fill:#E9EAED;}
	.st1{fill:#A8B6C0;}
	.st2{opacity:0.29;fill:#EDF0F3;enable-background:new    ;}
	.st3{fill:#FFFFFF;}
</style>
<rect class="st0" width="250" height="250"/>
<path class="st1" d="M228.2,183.5H21.8c-1.9,0-3.4-1.5-3.4-3.4V55.9c0-1.9,1.5-3.4,3.4-3.4h206.3c1.9,0,3.4,1.5,3.4,3.4v124.2
	C231.6,182,230.1,183.5,228.2,183.5z"/>
<path class="st2" d="M216.9,74h-22.5c-3.6,0-6.6-3-6.6-6.6l0,0c0-3.7,3-6.6,6.6-6.6h22.5c3.6,0,6.6,3,6.6,6.6l0,0
	C223.6,71,220.6,74,216.9,74z"/>
<path class="st2" d="M216.9,92.9h-15.7c-3.6,0-6.6-3-6.6-6.6l0,0c0-3.7,3-6.6,6.6-6.6h15.7c3.6,0,6.6,3,6.6,6.6l0,0
	C223.6,89.9,220.6,92.9,216.9,92.9z"/>
<circle class="st3" cx="23.7" cy="192.6" r="5.3"/>
<path class="st3" d="M60.6,197.8H36.6c-2.9,0-5.3-2.4-5.3-5.3l0,0c0-2.9,2.4-5.3,5.3-5.3h24c2.9,0,5.3,2.4,5.3,5.3l0,0
	C65.9,195.5,63.5,197.8,60.6,197.8z"/>
<path class="st3" d="M226.3,197.8h-52.4c-2.9,0-5.3-2.4-5.3-5.3l0,0c0-2.9,2.4-5.3,5.3-5.3h52.4c2.9,0,5.3,2.4,5.3,5.3l0,0
	C231.6,195.5,229.2,197.8,226.3,197.8z"/>
<g>
	<path class="st3" d="M125.4,114.9l1.7,2.1l2,2.7l2.8-1.7l3.7-2.3v7.6h-21.6v-7.6l4.3,2.7l2.7,1.6l2-2.4L125.4,114.9 M139.4,109.1
		l-9.3,5.7l-4.5-5.7l-5.1,6.1l-9.9-6.1v17.9h28.8V109.1L139.4,109.1z"/>
</g>
</svg>
