<?xml version="1.0" encoding="utf-8"?>
<!-- Generator: Adobe Illustrator 26.0.0, SVG Export Plug-In . SVG Version: 6.00 Build 0)  -->
<svg version="1.1" id="Layer_1" xmlns="http://www.w3.org/2000/svg" xmlns:xlink="http://www.w3.org/1999/xlink" x="0px" y="0px"
	 viewBox="0 0 250 250" style="enable-background:new 0 0 250 250;" xml:space="preserve">
<style type="text/css">
	.st0{fill:#E9EAED;}
	.st1{fill:#FFFFFF;}
	.st2{fill:#A8B6C0;}
	.st3{fill:#EDF0F3;}
</style>
<rect class="st0" width="250" height="250"/>
<path class="st1" d="M204.2,204H42.8c-5.7,0-10.4-4.7-10.4-10.4V52.1c0-5.7,4.7-10.4,10.4-10.4h161.4c5.7,0,10.4,4.7,10.4,10.4
	v141.6C214.6,199.4,209.9,204,204.2,204z"/>
<path class="st2" d="M203.3,158H43.7c-4.1,0-7.4-3.3-7.4-7.4v-98c0-4.1,3.3-7.4,7.4-7.4h159.6c4.1,0,7.4,3.3,7.4,7.4v98
	C210.7,154.6,207.4,158,203.3,158z"/>
<path class="st3" d="M200.4,60.8h-17c-2.7,0-5-2.3-5-5l0,0c0-2.8,2.3-5,5-5h17c2.7,0,5,2.3,5,5l0,0
	C205.4,58.5,203.1,60.8,200.4,60.8z"/>
<path class="st3" d="M200.4,74h-11.9c-2.7,0-5-2.3-5-5l0,0c0-2.8,2.3-5,5-5h11.9c2.7,0,5,2.3,5,5l0,0C205.4,71.7,203.1,74,200.4,74z
	"/>
<circle class="st3" cx="199.3" cy="83.2" r="6.2"/>
<g>
	<path class="st1" d="M122.1,97.4l1.7,2.1l2,2.7l2.8-1.7l3.7-2.3v7.6h-21.6v-7.6l4.3,2.7l2.7,1.6l2-2.4L122.1,97.4 M136.1,91.6
		l-9.3,5.7l-4.5-5.7l-5.1,6.1l-9.9-6.1v17.9h28.8V91.6L136.1,91.6z"/>
</g>
<path class="st3" d="M200.8,177.5H46.3c-3.2,0-5.9-2.6-5.9-5.9v-0.2c0-3.2,2.6-5.9,5.9-5.9h154.5c3.2,0,5.9,2.6,5.9,5.9v0.2
	C206.6,174.9,204,177.5,200.8,177.5z"/>
<path class="st3" d="M108.9,193.4H44.5c-2.2,0-4.1-1.8-4.1-4.1l0,0c0-2.2,1.8-4.1,4.1-4.1h64.4c2.2,0,4.1,1.8,4.1,4.1l0,0
	C113,191.5,111.2,193.4,108.9,193.4z"/>
<path class="st3" d="M201.9,193.4h-30.6c-1.9,0-3.5-1.6-3.5-3.5v-1.1c0-1.9,1.6-3.5,3.5-3.5h30.6c1.9,0,3.5,1.6,3.5,3.5v1.1
	C205.4,191.8,203.8,193.4,201.9,193.4z"/>
</svg>
