<?xml version="1.0" encoding="utf-8"?>
<!-- Generator: Adobe Illustrator 26.0.0, SVG Export Plug-In . SVG Version: 6.00 Build 0)  -->
<svg version="1.1" id="Layer_1" xmlns="http://www.w3.org/2000/svg" xmlns:xlink="http://www.w3.org/1999/xlink" x="0px" y="0px"
	 viewBox="0 0 250 250" style="enable-background:new 0 0 250 250;" xml:space="preserve">
<style type="text/css">
	.st0{fill:#E9EAED;}
	.st1{fill:#FFFFFF;}
	.st2{fill:#EDF0F3;}
	.st3{fill:#A8B6C0;}
</style>
<rect class="st0" width="250" height="250"/>
<path class="st1" d="M213.3,222.7H38c-1.9,0-3.4-1.5-3.4-3.4V30.7c0-1.9,1.5-3.4,3.4-3.4h175.3c1.9,0,3.4,1.5,3.4,3.4v188.6
	C216.7,221.2,215.2,222.7,213.3,222.7z"/>
<path class="st2" d="M209.6,220.3H41.4c-1.9,0-3.4-1.5-3.4-3.4v-20.1c0-1.9,1.5-3.4,3.4-3.4h168.2c1.9,0,3.4,1.5,3.4,3.4v20.1
	C213,218.8,211.4,220.3,209.6,220.3z"/>
<path class="st3" d="M216.7,145.1H34.6V30.7c0-1.9,1.5-3.4,3.4-3.4h175.3c1.9,0,3.4,1.5,3.4,3.4V145.1z"/>
<path class="st2" d="M204.3,46.7h-22.5c-3.6,0-6.6-3-6.6-6.6l0,0c0-3.7,3-6.6,6.6-6.6h22.5c3.6,0,6.6,3,6.6,6.6l0,0
	C210.9,43.7,207.9,46.7,204.3,46.7z"/>
<path class="st2" d="M204.3,64.1h-15.7c-3.6,0-6.6-3-6.6-6.6l0,0c0-3.7,3-6.6,6.6-6.6h15.7c3.6,0,6.6,3,6.6,6.6l0,0
	C210.9,61.1,207.9,64.1,204.3,64.1z"/>
<circle class="st2" cx="202.8" cy="76.3" r="8.2"/>
<path class="st2" d="M95.7,165.9H43.3c-2.9,0-5.3-2.4-5.3-5.3l0,0c0-2.9,2.4-5.3,5.3-5.3h52.4c2.9,0,5.3,2.4,5.3,5.3l0,0
	C101,163.5,98.6,165.9,95.7,165.9z"/>
<path class="st2" d="M50.8,188.7h-7.2c-3.1,0-5.6-2.5-5.6-5.6l0,0c0-3.1,2.5-5.6,5.6-5.6h7.2c3.1,0,5.6,2.5,5.6,5.6l0,0
	C56.4,186.1,53.9,188.7,50.8,188.7z"/>
<g>
	<path class="st1" d="M124.2,83.1l1.7,2.1l2,2.7l2.8-1.7l3.7-2.3v7.6h-21.6v-7.6l4.3,2.7l2.7,1.6l2-2.4L124.2,83.1 M138.2,77.3
		l-9.3,5.7l-4.5-5.7l-5.1,6.1l-9.9-6.1v17.9h28.8V77.3L138.2,77.3z"/>
</g>
</svg>
