<?xml version="1.0" encoding="utf-8"?>
<!-- Generator: Adobe Illustrator 26.0.0, SVG Export Plug-In . SVG Version: 6.00 Build 0)  -->
<svg version="1.1" id="Layer_1" xmlns="http://www.w3.org/2000/svg" xmlns:xlink="http://www.w3.org/1999/xlink" x="0px" y="0px"
	 viewBox="0 0 250 250" style="enable-background:new 0 0 250 250;" xml:space="preserve">
<style type="text/css">
	.st0{fill:#E9EAED;}
	.st1{fill:#A8B6C0;}
	.st2{opacity:0.5;fill:#A8B6C0;enable-background:new    ;}
	.st3{opacity:0.76;fill:#EDF0F3;enable-background:new    ;}
	.st4{opacity:0.76;fill:#A8B6C0;enable-background:new    ;}
	.st5{fill:#FFFFFF;}
</style>
<rect class="st0" width="250" height="250"/>
<path class="st1" d="M173.9,204H60.1c-3.4,0-6.3-2.8-6.3-6.3V13.5c0-5.1,4.2-9.4,9.3-9.4h107.7c5.1,0,9.3,4.2,9.3,9.4v184.2
	C180.2,201.2,177.4,204,173.9,204z"/>
<path class="st2" d="M39.5,242.6H-86.1c-3.8,0-6.9-3.1-6.9-6.9V34c0-5.6,4.6-10.3,10.3-10.3H36.1c5.7,0,10.3,4.6,10.3,10.3v201.7
	C46.4,239.6,43.3,242.6,39.5,242.6z"/>
<path class="st2" d="M293.4,147.6h-99c-3,0-5.4-2.4-5.4-5.4V-16.7c0-4.5,3.6-8.1,8.1-8.1h93.6c4.5,0,8.1,3.6,8.1,8.1v158.9
	C298.8,145.1,296.4,147.6,293.4,147.6z"/>
<path class="st2" d="M293.4,329.6h-99c-3,0-5.4-2.4-5.4-5.4V165.3c0-4.5,3.6-8.1,8.1-8.1h93.6c4.5,0,8.1,3.6,8.1,8.1v158.9
	C298.8,327.2,296.4,329.6,293.4,329.6z"/>
<path class="st3" d="M170.6,23.7h-12.9c-3,0-5.5-2.5-5.5-5.5l0,0c0-3,2.5-5.5,5.5-5.5h12.9c3,0,5.5,2.5,5.5,5.5l0,0
	C176.1,21.2,173.7,23.7,170.6,23.7z"/>
<circle class="st3" cx="169.4" cy="33.9" r="6.7"/>
<circle class="st3" cx="117" cy="106.6" r="8.9"/>
<circle class="st4" cx="67.9" cy="231.8" r="8.9"/>
<path class="st1" d="M164,219.6H64.5c-2.9,0-5.5-1.9-5.5-4.3l0,0c0-2.3,2.4-4.3,5.5-4.3H164c2.9,0,5.5,1.9,5.5,4.3l0,0
	C169.3,217.7,166.9,219.6,164,219.6z"/>
<path class="st1" d="M105.8,235.2H82.9c-1.9,0-3.4-1.5-3.4-3.4l0,0c0-1.9,1.5-3.4,3.4-3.4h22.9c1.9,0,3.4,1.5,3.4,3.4l0,0
	C109.3,233.7,107.7,235.2,105.8,235.2z"/>
<g>
	<path class="st5" d="M117.4,49.4l1.7,2.1l2,2.7l2.8-1.7l3.7-2.3v7.6h-21.6v-7.6l4.3,2.7l2.7,1.6l2-2.4L117.4,49.4 M131.4,43.5
		l-9.3,5.7l-4.5-5.7l-5.1,6.1l-9.9-6.1v17.9h28.8V43.5L131.4,43.5z"/>
</g>
<path class="st3" d="M77.4,198.6H64.6c-3,0-5.5-2.5-5.5-5.5l0,0c0-3,2.5-5.5,5.5-5.5h12.9c3,0,5.5,2.5,5.5,5.5l0,0
	C82.9,196.1,80.5,198.6,77.4,198.6z"/>
<path class="st3" d="M103.7,198.6H90.8c-3,0-5.5-2.5-5.5-5.5l0,0c0-3,2.5-5.5,5.5-5.5h12.9c3,0,5.5,2.5,5.5,5.5l0,0
	C109.2,196.1,106.8,198.6,103.7,198.6z"/>
</svg>
