<?xml version="1.0" encoding="utf-8"?>
<!-- Generator: Adobe Illustrator 26.0.0, SVG Export Plug-In . SVG Version: 6.00 Build 0)  -->
<svg version="1.1" id="Layer_1" xmlns="http://www.w3.org/2000/svg" xmlns:xlink="http://www.w3.org/1999/xlink" x="0px" y="0px"
	 viewBox="0 0 250 250" style="enable-background:new 0 0 250 250;" xml:space="preserve">
<style type="text/css">
	.st0{fill:#E9EAED;}
	.st1{fill:#EDF0F3;}
	.st2{fill:#A8B6C0;}
	.st3{fill:#F7F7F7;}
	.st4{fill:#FFFFFF;}
</style>
<rect class="st0" width="250" height="250"/>
<path class="st1" d="M221.3,148.6H31c-6.3,0-11.4-5.1-11.4-11.4V52.7c0-6.3,5.1-11.4,11.4-11.4h190.4c6.3,0,11.4,5.1,11.4,11.4v84.5
	C232.7,143.4,227.6,148.6,221.3,148.6z"/>
<path class="st2" d="M221.3,136H31c-6.3,0-11.4-5.1-11.4-11.4V40.1c0-6.3,5.1-11.4,11.4-11.4h190.4c6.3,0,11.4,5.1,11.4,11.4v84.5
	C232.7,130.8,227.6,136,221.3,136z"/>
<circle class="st1" cx="27.2" cy="221.4" r="8.2"/>
<path class="st3" d="M214.8,156.8H26.5c-4.1,0-7.5,3.4-7.5,7.5l0,0c0,4.1,3.4,7.5,7.5,7.5h188.2c4.1,0,7.5-3.4,7.5-7.5l0,0
	C222.3,160.1,218.9,156.8,214.8,156.8z"/>
<path class="st3" d="M219.4,182.3h-197c-1.9,0-3.4,1.5-3.4,3.4v2c0,1.9,1.5,3.4,3.4,3.4h197c1.9,0,3.4-1.5,3.4-3.4v-2
	C222.8,183.8,221.3,182.3,219.4,182.3z"/>
<path class="st3" d="M87.9,197.9H23.5c-2.4,0-4.4,2-4.4,4.4l0,0c0,2.4,2,4.4,4.4,4.4h64.4c2.4,0,4.4-2,4.4-4.4l0,0
	C92.3,199.9,90.3,197.9,87.9,197.9z"/>
<path class="st1" d="M65.2,218.6H41.8c-0.9,0-1.6,0.7-1.6,1.6v2.3c0,0.9,0.7,1.6,1.6,1.6h23.4c0.9,0,1.6-0.7,1.6-1.6v-2.3
	C66.8,219.3,66,218.6,65.2,218.6z"/>
<g>
	<path class="st4" d="M126.6,79.3l1.7,2.1l2,2.7l2.8-1.7l3.7-2.3v7.6h-21.6v-7.6l4.3,2.7l2.7,1.6l2-2.4L126.6,79.3 M140.6,73.4
		l-9.3,5.7l-4.5-5.7l-5.1,6.1l-9.9-6.1v17.9h28.8V73.4L140.6,73.4z"/>
</g>
</svg>
