<?xml version="1.0" encoding="utf-8"?>
<!-- Generator: Adobe Illustrator 26.0.0, SVG Export Plug-In . SVG Version: 6.00 Build 0)  -->
<svg version="1.1" id="Layer_1" xmlns="http://www.w3.org/2000/svg" xmlns:xlink="http://www.w3.org/1999/xlink" x="0px" y="0px"
	 viewBox="0 0 250 250" style="enable-background:new 0 0 250 250;" xml:space="preserve">
<style type="text/css">
	.st0{fill:#E9EAED;}
	.st1{fill:#A8B6C0;}
	.st2{opacity:0.76;fill:#EDF0F3;enable-background:new    ;}
	.st3{opacity:0.8;fill:#EDF0F3;enable-background:new    ;}
	.st4{fill:#FFFFFF;}
</style>
<rect x="1.2" class="st0" width="250" height="250"/>
<path class="st1" d="M218,191.6H34.4c-8.3,0-15.1-6.8-15.1-15.1V77.1c0-8.3,6.8-15.1,15.1-15.1H218c8.3,0,15.1,6.8,15.1,15.1v99.4
	C233.1,184.8,226.3,191.6,218,191.6z"/>
<path class="st2" d="M216.6,86.3H198c-3,0-5.5-2.5-5.5-5.5l0,0c0-3,2.5-5.5,5.5-5.5h18.6c3,0,5.5,2.5,5.5,5.5l0,0
	C222.1,83.8,219.6,86.3,216.6,86.3z"/>
<circle class="st2" cx="215.3" cy="95.4" r="6.7"/>
<path class="st3" d="M66.6,148.9H35.7c-0.8,0-1.4-0.6-1.4-1.4v-6.4c0-0.8,0.6-1.4,1.4-1.4h30.9c0.8,0,1.4,0.6,1.4,1.4v6.4
	C68,148.3,67.4,148.9,66.6,148.9z"/>
<rect x="70.7" y="139.7" class="st3" width="33.7" height="9.2"/>
<rect x="34.3" y="152.6" class="st4" width="183.8" height="12.3"/>
<rect x="34.3" y="163" class="st4" width="56.2" height="14.7"/>
<g>
	<path class="st4" d="M124.7,99.2l1.7,2.1l2,2.7l2.8-1.7l3.7-2.3v7.6h-21.6V100l4.3,2.7l2.7,1.6l2-2.4L124.7,99.2 M138.7,93.3
		l-9.3,5.7l-4.5-5.7l-5.1,6.1l-9.9-6.1v17.9h28.8V93.3L138.7,93.3z"/>
</g>
</svg>
