<?xml version="1.0" encoding="utf-8"?>
<!-- Generator: Adobe Illustrator 26.0.0, SVG Export Plug-In . SVG Version: 6.00 Build 0)  -->
<svg version="1.1" id="Layer_1" xmlns="http://www.w3.org/2000/svg" xmlns:xlink="http://www.w3.org/1999/xlink" x="0px" y="0px"
	 viewBox="0 0 250 250" style="enable-background:new 0 0 250 250;" xml:space="preserve">
<style type="text/css">
	.st0{fill:#E9EAED;}
	.st1{fill:#FFFFFF;}
	.st2{fill:#A8B6C0;}
	.st3{fill:#EDF0F3;}
</style>
<rect class="st0" width="250" height="250"/>
<path class="st1" d="M204.2,204H42.8c-5.7,0-10.4-4.5-10.4-10.1V57.1c0-5.5,4.7-10.1,10.4-10.1h161.4c5.7,0,10.4,4.5,10.4,10.1V194
	C214.6,199.6,209.9,204,204.2,204z"/>
<path class="st2" d="M214.4,168.5H32.2V56.2c0-5,4.1-9.1,9.1-9.1h164c5,0,9.1,4.1,9.1,9.1V168.5z"/>
<path class="st3" d="M199.1,190.8h-13.2c-3,0-5.5-2.5-5.5-5.5l0,0c0-3.1,2.5-5.5,5.5-5.5h13.2c3,0,5.5,2.5,5.5,5.5l0,0
	C204.6,188.3,202.1,190.8,199.1,190.8z"/>
<circle class="st3" cx="50.4" cy="185.3" r="10"/>
<g>
	<path class="st1" d="M123.7,104.6l1.7,2.1l2,2.7l2.8-1.7l3.7-2.3v7.6h-21.6v-7.6l4.3,2.7l2.7,1.6l2-2.4L123.7,104.6 M137.7,98.8
		l-9.3,5.7l-4.5-5.7l-5.1,6.1l-9.9-6.1v17.9h28.8V98.8L137.7,98.8z"/>
</g>
<path class="st3" d="M100.5,184.8H69.9c-1.9,0-3.5-1.6-3.5-3.5v-1.1c0-1.9,1.6-3.5,3.5-3.5h30.6c1.9,0,3.5,1.6,3.5,3.5v1.1
	C104,183.2,102.4,184.8,100.5,184.8z"/>
<path class="st3" d="M90.7,193.9H68.9c-1.4,0-2.5-1.1-2.5-2.5v-0.8c0-1.4,1.1-2.5,2.5-2.5h21.8c1.4,0,2.5,1.1,2.5,2.5v0.8
	C93.2,192.8,92.1,193.9,90.7,193.9z"/>
</svg>
