<?xml version="1.0" encoding="utf-8"?>
<!-- Generator: Adobe Illustrator 26.0.0, SVG Export Plug-In . SVG Version: 6.00 Build 0)  -->
<svg version="1.1" id="Layer_1" xmlns="http://www.w3.org/2000/svg" xmlns:xlink="http://www.w3.org/1999/xlink" x="0px" y="0px"
	 viewBox="0 0 250 250" style="enable-background:new 0 0 250 250;" xml:space="preserve">
<style type="text/css">
	.st0{fill:#E9EAED;}
	.st1{fill:#FFFFFF;}
	.st2{fill:#A8B6C0;}
	.st3{fill:#EDF0F3;}
</style>
<rect class="st0" width="250" height="250"/>
<path class="st1" d="M203.3,244.1H52.9c-1.9,0-3.4-1.5-3.4-3.4V9.1c0-1.9,1.5-3.4,3.4-3.4h150.4c1.9,0,3.4,1.5,3.4,3.4v231.6
	C206.7,242.6,205.1,244.1,203.3,244.1z"/>
<path class="st2" d="M49.5,48.6h35.6c2.1,0,3.9,2.4,3.9,5.3V173c0,2.9-1.7,5.3-3.9,5.3H49.5V48.6z"/>
<path class="st2" d="M98.5,49.4h55c3.7,0,6.7,2.4,6.7,5.3v119.2c0,2.9-3,5.3-6.7,5.3h-55c-3.7,0-6.7-2.4-6.7-5.3V54.7
	C91.7,51.7,94.7,49.4,98.5,49.4z"/>
<path class="st3" d="M199.6,24.9h-143c-2.2,0-3.9-1.8-3.9-3.9v-6.8c0-2.1,1.8-3.9,3.9-3.9h143c2.1,0,3.9,1.8,3.9,3.9V21
	C203.5,23.1,201.8,24.9,199.6,24.9z"/>
<path class="st1" d="M134.5,117.5c0,0.1-0.1,0.2-0.2,0.2l-0.9-0.1c-2.4-0.2-4.9-0.4-7.3-0.4h-0.1c-2.4,0-4.9,0.1-7.3,0.4l-0.9,0.1
	c-0.1,0-0.2-0.1-0.2-0.2l-0.9-10.5c0-0.2,0.2-0.3,0.3-0.2l5.1,2.6c0.1,0,0.2,0,0.3-0.1l3.5-4.3c0.1-0.1,0.2-0.1,0.3,0l3.5,4.3
	c0.1,0.1,0.2,0.1,0.3,0.1l5.1-2.6c0.1-0.1,0.3,0,0.3,0.2L134.5,117.5z M119.7,110.9l0.4,3.9c0,0.1,0.1,0.2,0.2,0.2
	c1.9-0.2,3.8-0.2,5.7-0.2c0,0,0,0,0,0c1.9,0,3.8,0.1,5.7,0.2c0.1,0,0.2-0.1,0.2-0.2l0.3-3.9c0-0.1-0.1-0.2-0.3-0.2l-3,1.4
	c-0.1,0-0.2,0-0.2-0.1l-2.6-2.9c-0.1-0.1-0.2-0.1-0.3,0l-2.6,2.9c-0.1,0.1-0.2,0.1-0.2,0.1l-3-1.4
	C119.9,110.6,119.7,110.7,119.7,110.9z"/>
<path class="st3" d="M150.1,37.7H56.7c-2.2,0-4.1-1.8-4.1-4.1l0,0c0-2.2,1.8-4.1,4.1-4.1h93.4c2.2,0,4.1,1.8,4.1,4.1l0,0
	C154.2,35.9,152.4,37.7,150.1,37.7z"/>
<path class="st2" d="M167.5,50.3h39.1v129.8h-39.1c-2.4,0-4.3-2.4-4.3-5.3V55.6C163.3,52.7,165.2,50.3,167.5,50.3z"/>
<path class="st3" d="M203.5,105.7v15.7c0,3.7-3,6.6-6.6,6.6l0,0c-3.6,0-6.6-3-6.6-6.6v-15.7c0-3.7,3-6.6,6.6-6.6l0,0
	C200.5,99.1,203.5,102.1,203.5,105.7z"/>
<path class="st3" d="M139,185.1h-22.1c-3.7,0-6.6-3-6.6-6.6l0,0c0-3.6,3-6.6,6.6-6.6H139c3.6,0,6.6,3,6.6,6.6l0,0
	C145.6,182.1,142.6,185.1,139,185.1z"/>
<circle class="st1" cx="196.9" cy="108.2" r="1.1"/>
<circle class="st1" cx="196.9" cy="114.2" r="1.1"/>
<circle class="st1" cx="196.9" cy="120.2" r="1.1"/>
</svg>
