<?xml version="1.0" encoding="utf-8"?>
<!-- Generator: Adobe Illustrator 23.0.0, SVG Export Plug-In . SVG Version: 6.00 Build 0)  -->
<svg version="1.1" id="Layer_1" xmlns="http://www.w3.org/2000/svg" xmlns:xlink="http://www.w3.org/1999/xlink" x="0px" y="0px"
	 viewBox="0 0 250 250" style="enable-background:new 0 0 250 250;" xml:space="preserve">
<style type="text/css">
	.st0{fill:#E9EAED;}
	.st1{fill:#FFFFFF;}
	.st2{fill:#A8B6C0;}
	.st3{fill:#EDF0F3;}
</style>
<rect class="st0" width="250" height="250"/>
<path class="st1" d="M203.27,244.13H52.92c-1.87,0-3.4-1.53-3.4-3.4V9.12c0-1.87,1.53-3.4,3.4-3.4h150.35c1.87,0,3.4,1.53,3.4,3.4
	v231.6C206.67,242.6,205.14,244.13,203.27,244.13z"/>
<rect x="103.96" y="54.45" class="st2" width="48.28" height="48.28"/>
<rect x="154.77" y="54.45" class="st2" width="48.28" height="48.28"/>
<rect x="53.15" y="54.45" class="st2" width="48.28" height="48.28"/>
<rect x="103.96" y="104.19" class="st2" width="48.28" height="48.28"/>
<rect x="154.77" y="104.19" class="st2" width="48.28" height="48.28"/>
<rect x="53.15" y="104.19" class="st2" width="48.28" height="48.28"/>
<rect x="103.82" y="153.94" class="st2" width="48.28" height="48.28"/>
<rect x="154.63" y="153.94" class="st2" width="48.28" height="48.28"/>
<rect x="53.01" y="153.94" class="st2" width="48.28" height="48.28"/>
<path class="st3" d="M199.62,24.89H56.57c-2.15,0-3.9-1.76-3.9-3.9l0-6.76c0-2.15,1.76-3.9,3.9-3.9h143.05c2.15,0,3.9,1.76,3.9,3.9
	v6.76C203.53,23.14,201.77,24.89,199.62,24.89z"/>
<path class="st1" d="M132.9,132.05c-0.01,0.07-0.06,0.11-0.13,0.11l-0.5-0.05c-1.35-0.14-2.7-0.21-4.05-0.21l-0.05,0
	c-1.35,0-2.71,0.07-4.06,0.21l-0.48,0.05c-0.07,0.01-0.12-0.04-0.13-0.11l-0.51-5.84c-0.01-0.09,0.09-0.16,0.17-0.11l2.86,1.43
	c0.05,0.02,0.11,0.01,0.14-0.03l1.92-2.38c0.05-0.06,0.14-0.06,0.18,0l1.92,2.38c0.03,0.04,0.09,0.06,0.14,0.03l2.85-1.43
	c0.08-0.04,0.18,0.02,0.17,0.11L132.9,132.05z M124.71,128.37l0.2,2.15c0.01,0.05,0.06,0.09,0.11,0.09c1.05-0.08,2.1-0.12,3.15-0.12
	c0.01,0,0.01,0,0.02,0c1.05,0,2.11,0.04,3.16,0.12c0.06,0,0.11-0.04,0.11-0.09l0.18-2.15c0.01-0.07-0.08-0.13-0.15-0.09l-1.66,0.76
	c-0.04,0.02-0.1,0.01-0.13-0.03l-1.45-1.64c-0.04-0.05-0.12-0.05-0.16,0l-1.45,1.64c-0.03,0.04-0.08,0.05-0.13,0.03l-1.65-0.76
	C124.79,128.25,124.7,128.3,124.71,128.37z"/>
<path class="st3" d="M150.15,37.72H56.7c-2.25,0-4.09-1.84-4.09-4.09v0c0-2.25,1.84-4.09,4.09-4.09h93.45
	c2.25,0,4.09,1.84,4.09,4.09v0C154.24,35.89,152.4,37.72,150.15,37.72z"/>
</svg>
