<?xml version="1.0" encoding="utf-8"?>
<!-- Generator: Adobe Illustrator 23.0.0, SVG Export Plug-In . SVG Version: 6.00 Build 0)  -->
<svg version="1.1" id="Layer_1" xmlns="http://www.w3.org/2000/svg" xmlns:xlink="http://www.w3.org/1999/xlink" x="0px" y="0px"
	 viewBox="0 0 250 250" style="enable-background:new 0 0 250 250;" xml:space="preserve">
<style type="text/css">
	.st0{fill:#E9EAED;}
	.st1{fill:#FFFFFF;}
	.st2{fill:#A8B6C0;}
	.st3{fill:#EDF0F3;}
</style>
<rect class="st0" width="250" height="250"/>
<path class="st1" d="M203.27,250.47H52.92c-1.87,0-3.4-1.53-3.4-3.4V9.12c0-1.87,1.53-3.4,3.4-3.4h150.35c1.87,0,3.4,1.53,3.4,3.4
	v237.94C206.67,248.94,205.14,250.47,203.27,250.47z"/>
<rect x="51.52" y="51.56" class="st2" width="152.59" height="96.12"/>
<path class="st3" d="M199.62,24.89H56.57c-2.15,0-3.9-1.76-3.9-3.9l0-6.76c0-2.15,1.76-3.9,3.9-3.9h143.05c2.15,0,3.9,1.76,3.9,3.9
	v6.76C203.53,23.14,201.77,24.89,199.62,24.89z"/>
<path class="st1" d="M136.46,104.34c-0.01,0.12-0.11,0.21-0.23,0.19l-0.91-0.09c-2.42-0.25-4.86-0.37-7.3-0.37l-0.08,0
	c-2.44,0-4.88,0.13-7.3,0.38l-0.86,0.09c-0.12,0.01-0.22-0.07-0.23-0.19l-0.91-10.51c-0.01-0.16,0.16-0.28,0.3-0.21l5.14,2.58
	c0.09,0.04,0.2,0.02,0.26-0.06l3.46-4.28c0.08-0.1,0.24-0.1,0.33,0l3.46,4.28c0.06,0.08,0.17,0.1,0.26,0.06l5.13-2.57
	c0.15-0.07,0.32,0.04,0.3,0.21L136.46,104.34z M121.71,97.72l0.37,3.87c0.01,0.1,0.1,0.17,0.21,0.16c1.88-0.15,3.78-0.22,5.66-0.22
	c0.01,0,0.02,0,0.03,0c1.89,0,3.8,0.07,5.69,0.22c0.11,0.01,0.2-0.06,0.21-0.16l0.33-3.88c0.01-0.13-0.14-0.23-0.27-0.17l-2.99,1.37
	c-0.08,0.04-0.18,0.02-0.23-0.05l-2.61-2.95c-0.08-0.09-0.22-0.09-0.3,0l-2.61,2.95c-0.06,0.06-0.15,0.08-0.23,0.05l-2.97-1.37
	C121.85,97.49,121.7,97.58,121.71,97.72z"/>
<rect x="51.52" y="149.4" class="st2" width="152.59" height="96.12"/>
<path class="st1" d="M136.46,205.11c-0.01,0.12-0.11,0.21-0.23,0.19l-0.91-0.09c-2.42-0.25-4.86-0.37-7.3-0.37l-0.08,0
	c-2.44,0-4.88,0.13-7.3,0.38l-0.86,0.09c-0.12,0.01-0.22-0.07-0.23-0.19l-0.91-10.51c-0.01-0.16,0.16-0.28,0.3-0.21l5.14,2.58
	c0.09,0.04,0.2,0.02,0.26-0.06l3.46-4.28c0.08-0.1,0.24-0.1,0.33,0l3.46,4.28c0.06,0.08,0.17,0.1,0.26,0.06l5.13-2.57
	c0.15-0.07,0.32,0.04,0.3,0.21L136.46,205.11z M121.71,198.49l0.37,3.87c0.01,0.1,0.1,0.17,0.21,0.16c1.88-0.15,3.78-0.22,5.66-0.22
	c0.01,0,0.02,0,0.03,0c1.89,0,3.8,0.07,5.69,0.22c0.11,0.01,0.2-0.06,0.21-0.16l0.33-3.88c0.01-0.13-0.14-0.23-0.27-0.17l-2.99,1.37
	c-0.08,0.04-0.18,0.02-0.23-0.05l-2.61-2.95c-0.08-0.09-0.22-0.09-0.3,0l-2.61,2.95c-0.06,0.06-0.15,0.08-0.23,0.05l-2.97-1.37
	C121.85,198.25,121.7,198.35,121.71,198.49z"/>
<path class="st3" d="M150.15,37.72H56.7c-2.25,0-4.09-1.84-4.09-4.09v0c0-2.25,1.84-4.09,4.09-4.09h93.45
	c2.25,0,4.09,1.84,4.09,4.09v0C154.24,35.89,152.4,37.72,150.15,37.72z"/>
</svg>
