<?xml version="1.0" encoding="utf-8"?>
<!-- Generator: Adobe Illustrator 23.0.0, SVG Export Plug-In . SVG Version: 6.00 Build 0)  -->
<svg version="1.1" id="Layer_1" xmlns="http://www.w3.org/2000/svg" xmlns:xlink="http://www.w3.org/1999/xlink" x="0px" y="0px"
	 viewBox="0 0 250 250" style="enable-background:new 0 0 250 250;" xml:space="preserve">
<style type="text/css">
	.st0{fill:#E9EAED;}
	.st1{fill:#FFFFFF;}
	.st2{fill:#A8B6C0;}
	.st3{opacity:0.89;fill:url(#SVGID_1_);}
	.st4{opacity:0.54;fill:#FFFFFF;enable-background:new    ;}
	.st5{opacity:0.83;fill:#FFFFFF;enable-background:new    ;}
	.st6{opacity:0.54;fill:#FFFFFF;}
</style>
<rect y="0" class="st0" width="250" height="250"/>
<rect y="0" class="st1" width="250" height="47.3"/>
<path class="st2" d="M135.4,31c0,0.1-0.1,0.3-0.3,0.2l-1.1-0.1c-3-0.3-6.1-0.5-9.1-0.5h-0.1c-3.1,0-6.1,0.2-9.1,0.5l-1.1,0.1
	c-0.2,0-0.3-0.1-0.3-0.2l-1.1-13.2c0-0.2,0.2-0.4,0.4-0.3l6.4,3.2c0.1,0.1,0.3,0,0.3-0.1l4.3-5.4c0.1-0.1,0.3-0.1,0.4,0l4.3,5.4
	c0.1,0.1,0.2,0.1,0.3,0.1l6.4-3.2c0.2-0.1,0.4,0,0.4,0.3L135.4,31z M117,22.7l0.5,4.8c0,0.1,0.1,0.2,0.3,0.2
	c2.3-0.2,4.7-0.3,7.1-0.3c0,0,0,0,0,0c2.4,0,4.7,0.1,7.1,0.3c0.1,0,0.3-0.1,0.3-0.2l0.4-4.9c0-0.2-0.2-0.3-0.3-0.2l-3.7,1.7
	c-0.1,0-0.2,0-0.3-0.1l-3.3-3.7c-0.1-0.1-0.3-0.1-0.4,0l-3.3,3.7c-0.1,0.1-0.2,0.1-0.3,0.1l-3.7-1.7C117.1,22.4,116.9,22.5,117,22.7
	z"/>
<path class="st2" d="M243.7,158.4H5.9c-1.9,0-3.4-1.5-3.4-3.4V59.4C2.5,57.6,4,56,5.9,56h237.8c1.9,0,3.4,1.5,3.4,3.4V155
	C247.1,156.9,245.5,158.4,243.7,158.4z"/>
<path class="st1" d="M238.1,122.3L238.1,122.3c-3.2,0-5.8-2.6-5.8-5.8V101c0-3.2,2.6-5.8,5.8-5.8l0,0c3.2,0,5.8,2.6,5.8,5.8v15.5
	C243.9,119.7,241.3,122.3,238.1,122.3z"/>
<path class="st1" d="M238.1,156L238.1,156c-3.2,0-5.8-2.6-5.8-5.8v-8c0-3.2,2.6-5.8,5.8-5.8l0,0c3.2,0,5.8,2.6,5.8,5.8v8
	C243.9,153.4,241.3,156,238.1,156z"/>
<linearGradient id="SVGID_1_" gradientUnits="userSpaceOnUse" x1="120.9281" y1="107.0397" x2="4.5026" y2="107.3801">
	<stop  offset="2.663895e-07" style="stop-color:#A8B6C0"/>
	<stop  offset="0.1703" style="stop-color:#9AA7AF"/>
	<stop  offset="0.4905" style="stop-color:#858F95"/>
	<stop  offset="0.7772" style="stop-color:#788085"/>
	<stop  offset="1" style="stop-color:#747B7F"/>
</linearGradient>
<path class="st3" d="M117.8,158.4H6.1c-1.9,0-3.4-1.5-3.4-3.4V59.4c0-1.9,1.5-3.4,3.4-3.4h111.7c1.9,0,3.4,1.5,3.4,3.4V155
	C121.2,156.9,119.7,158.4,117.8,158.4z"/>
<path class="st4" d="M61.3,112H20.1c-1.8,0-3.2-1.5-3.2-3.2l0,0c0-1.8,1.5-3.2,3.2-3.2h41.2c1.8,0,3.2,1.5,3.2,3.2l0,0
	C64.5,110.5,63.1,112,61.3,112z"/>
<path class="st5" d="M90.9,100.3H20.1c-1.8,0-3.2-1.5-3.2-3.2l0,0c0-1.8,1.5-3.2,3.2-3.2h70.8c1.8,0,3.2,1.5,3.2,3.2l0,0
	C94.1,98.9,92.7,100.3,90.9,100.3z"/>
<path class="st6" d="M31,88.7H20.1c-1.8,0-3.2-1.5-3.2-3.2v0c0-1.8,1.5-3.2,3.2-3.2H31c1.8,0,3.2,1.5,3.2,3.2v0
	C34.2,87.3,32.8,88.7,31,88.7z"/>
</svg>
