<?xml version="1.0" encoding="utf-8"?>
<!-- Generator: Adobe Illustrator 26.0.0, SVG Export Plug-In . SVG Version: 6.00 Build 0)  -->
<svg version="1.1" id="Layer_1" xmlns="http://www.w3.org/2000/svg" xmlns:xlink="http://www.w3.org/1999/xlink" x="0px" y="0px"
	 viewBox="0 0 250 250" style="enable-background:new 0 0 250 250;" xml:space="preserve">
<style type="text/css">
	.st0{fill:#E9EAED;}
	.st1{fill:#FFFFFF;}
	.st2{fill:#A8B6C0;}
	.st3{opacity:0.54;fill:#FFFFFF;enable-background:new    ;}
</style>
<rect class="st0" width="250" height="250"/>
<rect class="st1" width="250" height="47.3"/>
<path class="st2" d="M135.4,31c0,0.1-0.1,0.3-0.3,0.2l-1.1-0.1c-3-0.3-6.1-0.5-9.1-0.5h-0.1c-3.1,0-6.1,0.2-9.1,0.5l-1.1,0.1
	c-0.2,0-0.3-0.1-0.3-0.2l-1.1-13.2c0-0.2,0.2-0.4,0.4-0.3l6.4,3.2c0.1,0.1,0.2,0,0.3-0.1l4.3-5.4c0.1-0.1,0.3-0.1,0.4,0l4.3,5.4
	c0.1,0.1,0.2,0.1,0.3,0.1l6.4-3.2c0.2-0.1,0.4,0,0.4,0.3L135.4,31z M117,22.7l0.5,4.8c0,0.1,0.1,0.2,0.3,0.2
	c2.3-0.2,4.7-0.3,7.1-0.3c0,0,0,0,0,0c2.4,0,4.7,0.1,7.1,0.3c0.1,0,0.2-0.1,0.3-0.2l0.4-4.9c0-0.2-0.2-0.3-0.3-0.2l-3.7,1.7
	c-0.1,0-0.2,0-0.3-0.1l-3.3-3.7c-0.1-0.1-0.3-0.1-0.4,0l-3.3,3.7c-0.1,0.1-0.2,0.1-0.3,0.1l-3.7-1.7C117.1,22.4,116.9,22.5,117,22.7
	z"/>
<path class="st2" d="M171.2,159.7H7.3c-3.3,0-5.9-2.6-5.9-5.9V63.9C1.4,60.7,4,58,7.3,58h163.9c3.3,0,5.9,2.6,5.9,5.9v89.9
	C177.1,157.1,174.4,159.7,171.2,159.7z"/>
<path class="st2" d="M241.3,79.8h-52.9c-3.3,0-5.9-2.6-5.9-5.9V64c0-3.3,2.6-5.9,5.9-5.9h52.9c3.3,0,5.9,2.6,5.9,5.9v9.9
	C247.2,77.1,244.5,79.8,241.3,79.8z"/>
<path class="st2" d="M241.3,106.4h-52.9c-3.3,0-5.9-2.6-5.9-5.9v-9.9c0-3.3,2.6-5.9,5.9-5.9h52.9c3.3,0,5.9,2.6,5.9,5.9v9.9
	C247.2,103.7,244.5,106.4,241.3,106.4z"/>
<path class="st2" d="M241.3,133h-52.9c-3.3,0-5.9-2.6-5.9-5.9v-9.9c0-3.3,2.6-5.9,5.9-5.9h52.9c3.3,0,5.9,2.6,5.9,5.9v9.9
	C247.2,130.4,244.5,133,241.3,133z"/>
<path class="st2" d="M241.3,159.7h-52.9c-3.3,0-5.9-2.6-5.9-5.9v-9.9c0-3.3,2.6-5.9,5.9-5.9h52.9c3.3,0,5.9,2.6,5.9,5.9v9.9
	C247.2,157,244.5,159.7,241.3,159.7z"/>
<path class="st1" d="M167.3,121.7L167.3,121.7c-3.2,0-5.8-2.6-5.8-5.8v-15.5c0-3.2,2.6-5.8,5.8-5.8l0,0c3.2,0,5.8,2.6,5.8,5.8v15.5
	C173.1,119.1,170.5,121.7,167.3,121.7z"/>
<path class="st1" d="M167.3,155.4L167.3,155.4c-3.2,0-5.8-2.6-5.8-5.8v-8c0-3.2,2.6-5.8,5.8-5.8l0,0c3.2,0,5.8,2.6,5.8,5.8v8
	C173.1,152.8,170.5,155.4,167.3,155.4z"/>
<path class="st3" d="M106.7,113.9H65.6c-1.8,0-3.2-1.5-3.2-3.2l0,0c0-1.8,1.5-3.2,3.2-3.2h41.2c1.8,0,3.2,1.5,3.2,3.2l0,0
	C110,112.4,108.5,113.9,106.7,113.9z"/>
<path class="st3" d="M121.5,103.6H50.8c-1.8,0-3.2-1.5-3.2-3.2l0,0c0-1.8,1.5-3.2,3.2-3.2h70.8c1.8,0,3.2,1.5,3.2,3.2l0,0
	C124.8,102.1,123.3,103.6,121.5,103.6z"/>
</svg>
