<?xml version="1.0" encoding="utf-8"?>
<!-- Generator: Adobe Illustrator 23.0.0, SVG Export Plug-In . SVG Version: 6.00 Build 0)  -->
<svg version="1.1" id="Layer_1" xmlns="http://www.w3.org/2000/svg" xmlns:xlink="http://www.w3.org/1999/xlink" x="0px" y="0px"
	 viewBox="0 0 250 250" style="enable-background:new 0 0 250 250;" xml:space="preserve">
<style type="text/css">
	.st0{fill:#E9EAED;}
	.st1{fill:#FFFFFF;}
	.st2{fill:#A8B6C0;}
	.st3{opacity:0.47;fill:#A8B6C0;}
	.st4{opacity:0.54;fill:#FCFCFC;enable-background:new    ;}
</style>
<rect y="0" class="st0" width="250" height="250"/>
<rect y="0" class="st1" width="250" height="47.3"/>
<path class="st2" d="M135.4,31c0,0.1-0.1,0.3-0.3,0.2l-1.1-0.1c-3-0.3-6.1-0.5-9.1-0.5h-0.1c-3.1,0-6.1,0.2-9.1,0.5l-1.1,0.1
	c-0.2,0-0.3-0.1-0.3-0.2l-1.1-13.2c0-0.2,0.2-0.4,0.4-0.3l6.4,3.2c0.1,0.1,0.3,0,0.3-0.1l4.3-5.4c0.1-0.1,0.3-0.1,0.4,0l4.3,5.4
	c0.1,0.1,0.2,0.1,0.3,0.1l6.4-3.2c0.2-0.1,0.4,0,0.4,0.3L135.4,31z M117,22.7l0.5,4.8c0,0.1,0.1,0.2,0.3,0.2
	c2.3-0.2,4.7-0.3,7.1-0.3c0,0,0,0,0,0c2.4,0,4.7,0.1,7.1,0.3c0.1,0,0.3-0.1,0.3-0.2l0.4-4.9c0-0.2-0.2-0.3-0.3-0.2l-3.7,1.7
	c-0.1,0-0.2,0-0.3-0.1l-3.3-3.7c-0.1-0.1-0.3-0.1-0.4,0l-3.3,3.7c-0.1,0.1-0.2,0.1-0.3,0.1l-3.7-1.7C117.1,22.4,116.9,22.5,117,22.7
	z"/>
<path class="st1" d="M238.1,122.3L238.1,122.3c-3.2,0-5.8-2.6-5.8-5.8V101c0-3.2,2.6-5.8,5.8-5.8l0,0c3.2,0,5.8,2.6,5.8,5.8v15.5
	C243.9,119.7,241.3,122.3,238.1,122.3z"/>
<path class="st3" d="M207.2,122.3H166c-1.8,0-3.2-1.5-3.2-3.2l0,0c0-1.8,1.5-3.2,3.2-3.2h41.2c1.8,0,3.2,1.5,3.2,3.2l0,0
	C210.4,120.9,209,122.3,207.2,122.3z"/>
<path class="st4" d="M180.9,101.6h-16.8c-0.7,0-1.3-1.5-1.3-3.2l0,0c0-1.8,0.6-3.2,1.3-3.2h16.8c0.7,0,1.3,1.5,1.3,3.2l0,0
	C182.2,100.2,181.6,101.6,180.9,101.6z"/>
<path class="st2" d="M221.2,112h-55.8c-1.4,0-2.5-1.5-2.5-3.2l0,0c0-1.8,1.2-3.2,2.5-3.2h55.8c1.4,0,2.5,1.5,2.5,3.2l0,0
	C223.7,110.5,222.6,112,221.2,112z"/>
<path class="st2" d="M152.9,157.4H11.2c-1.9,0-3.4-1.5-3.4-3.4V63.5c0-1.9,1.5-3.4,3.4-3.4h141.7c1.9,0,3.4,1.5,3.4,3.4V154
	C156.3,155.9,154.8,157.4,152.9,157.4z"/>
</svg>
