<?xml version="1.0" encoding="utf-8"?>
<!-- Generator: Adobe Illustrator 23.0.0, SVG Export Plug-In . SVG Version: 6.00 Build 0)  -->
<svg version="1.1" id="Layer_1" xmlns="http://www.w3.org/2000/svg" xmlns:xlink="http://www.w3.org/1999/xlink" x="0px" y="0px"
	 viewBox="0 0 250 250" style="enable-background:new 0 0 250 250;" xml:space="preserve">
<style type="text/css">
	.st0{fill:#E9EAED;}
	.st1{fill:#A8B6C0;}
	.st2{fill:#FFFFFF;}
</style>
<rect class="st0" width="250" height="250"/>
<g>
	<path class="st1" d="M7.07,160.09c-1.45,0-2.63-1.18-2.63-2.63V60.01c0-1.45,1.18-2.63,2.63-2.63h114.7c1.45,0,2.63,1.18,2.63,2.63
		v97.46c0,1.45-1.18,2.63-2.63,2.63H7.07z"/>
	<path class="st0" d="M121.77,57.76c1.24,0,2.25,1.01,2.25,2.25v97.46c0,1.24-1.01,2.25-2.25,2.25H7.07c-1.24,0-2.25-1.01-2.25-2.25
		V60.01c0-1.24,1.01-2.25,2.25-2.25H121.77 M121.77,57.01H7.07c-1.66,0-3,1.34-3,3v97.46c0,1.66,1.34,3,3,3h114.7c1.66,0,3-1.34,3-3
		V60.01C124.77,58.35,123.43,57.01,121.77,57.01L121.77,57.01z"/>
</g>
<g>
	<path class="st1" d="M127.77,108.36c-1.45,0-2.63-1.18-2.63-2.63V60.01c0-1.45,1.18-2.63,2.63-2.63h54.35
		c1.45,0,2.63,1.18,2.63,2.63v45.73c0,1.45-1.18,2.63-2.63,2.63H127.77z"/>
	<path class="st0" d="M182.12,57.76c1.24,0,2.25,1.01,2.25,2.25v45.73c0,1.24-1.01,2.25-2.25,2.25h-54.35
		c-1.24,0-2.25-1.01-2.25-2.25V60.01c0-1.24,1.01-2.25,2.25-2.25H182.12 M182.12,57.01h-54.35c-1.66,0-3,1.34-3,3v45.73
		c0,1.66,1.34,3,3,3h54.35c1.66,0,3-1.34,3-3V60.01C185.12,58.35,183.78,57.01,182.12,57.01L182.12,57.01z"/>
</g>
<g>
	<path class="st1" d="M188.12,108.36c-1.45,0-2.63-1.18-2.63-2.63V60.01c0-1.45,1.18-2.63,2.63-2.63h54.35
		c1.45,0,2.63,1.18,2.63,2.63v45.73c0,1.45-1.18,2.63-2.63,2.63H188.12z"/>
	<path class="st0" d="M242.47,57.76c1.24,0,2.25,1.01,2.25,2.25v45.73c0,1.24-1.01,2.25-2.25,2.25h-54.35
		c-1.24,0-2.25-1.01-2.25-2.25V60.01c0-1.24,1.01-2.25,2.25-2.25H242.47 M242.47,57.01h-54.35c-1.66,0-3,1.34-3,3v45.73
		c0,1.66,1.34,3,3,3h54.35c1.66,0,3-1.34,3-3V60.01C245.47,58.35,244.13,57.01,242.47,57.01L242.47,57.01z"/>
</g>
<g>
	<path class="st1" d="M127.77,160.09c-1.45,0-2.63-1.18-2.63-2.63v-45.73c0-1.45,1.18-2.63,2.63-2.63h54.35
		c1.45,0,2.63,1.18,2.63,2.63v45.73c0,1.45-1.18,2.63-2.63,2.63H127.77z"/>
	<path class="st0" d="M182.12,109.48c1.24,0,2.25,1.01,2.25,2.25v45.73c0,1.24-1.01,2.25-2.25,2.25h-54.35
		c-1.24,0-2.25-1.01-2.25-2.25v-45.73c0-1.24,1.01-2.25,2.25-2.25H182.12 M182.12,108.73h-54.35c-1.66,0-3,1.34-3,3v45.73
		c0,1.66,1.34,3,3,3h54.35c1.66,0,3-1.34,3-3v-45.73C185.12,110.08,183.78,108.73,182.12,108.73L182.12,108.73z"/>
</g>
<g>
	<path class="st1" d="M188.12,160.09c-1.45,0-2.63-1.18-2.63-2.63v-45.73c0-1.45,1.18-2.63,2.63-2.63h54.35
		c1.45,0,2.63,1.18,2.63,2.63v45.73c0,1.45-1.18,2.63-2.63,2.63H188.12z"/>
	<path class="st0" d="M242.47,109.48c1.24,0,2.25,1.01,2.25,2.25v45.73c0,1.24-1.01,2.25-2.25,2.25h-54.35
		c-1.24,0-2.25-1.01-2.25-2.25v-45.73c0-1.24,1.01-2.25,2.25-2.25H242.47 M242.47,108.73h-54.35c-1.66,0-3,1.34-3,3v45.73
		c0,1.66,1.34,3,3,3h54.35c1.66,0,3-1.34,3-3v-45.73C245.47,110.08,244.13,108.73,242.47,108.73L242.47,108.73z"/>
</g>
<rect x="0" class="st2" width="250" height="47.26"/>
<path class="st1" d="M135.41,30.98c-0.01,0.15-0.14,0.26-0.29,0.24l-1.14-0.12c-3.03-0.31-6.08-0.47-9.13-0.47l-0.1,0
	c-3.05,0-6.1,0.16-9.14,0.47l-1.08,0.11c-0.15,0.02-0.28-0.09-0.29-0.24l-1.14-13.16c-0.02-0.21,0.2-0.35,0.38-0.26l6.43,3.23
	c0.11,0.06,0.25,0.03,0.32-0.07l4.34-5.36c0.11-0.13,0.3-0.13,0.41,0l4.34,5.36c0.08,0.1,0.21,0.13,0.32,0.07l6.42-3.22
	c0.18-0.09,0.4,0.05,0.38,0.26L135.41,30.98z M116.96,22.69l0.46,4.84c0.01,0.12,0.13,0.21,0.26,0.2c2.35-0.18,4.73-0.28,7.09-0.28
	c0.01,0,0.03,0,0.04,0c2.37,0,4.75,0.09,7.12,0.28c0.13,0.01,0.25-0.08,0.26-0.2l0.42-4.85c0.01-0.17-0.18-0.29-0.34-0.21
	l-3.74,1.72c-0.1,0.05-0.22,0.02-0.29-0.06l-3.26-3.69c-0.1-0.11-0.27-0.11-0.37,0l-3.26,3.69c-0.07,0.08-0.19,0.1-0.29,0.06
	l-3.72-1.71C117.13,22.4,116.94,22.52,116.96,22.69z"/>
</svg>
