<?xml version="1.0" encoding="utf-8"?>
<!-- Generator: Adobe Illustrator 23.0.0, SVG Export Plug-In . SVG Version: 6.00 Build 0)  -->
<svg version="1.1" id="Layer_1" xmlns="http://www.w3.org/2000/svg" xmlns:xlink="http://www.w3.org/1999/xlink" x="0px" y="0px"
	 viewBox="0 0 250 250" style="enable-background:new 0 0 250 250;" xml:space="preserve">
<style type="text/css">
	.st0{fill:#E9EAED;}
	.st1{fill:#A8B6C0;}
	.st2{fill:#FFFFFF;}
	.st3{opacity:0.8;}
	.st4{opacity:0.64;}
	.st5{opacity:0.6;fill:none;stroke:#FFFFFF;stroke-width:2;stroke-miterlimit:10;}
</style>
<rect class="st0" width="250" height="250"/>
<g>
	<rect x="1.05" y="49.33" class="st1" width="247.44" height="134.74"/>
	<path class="st0" d="M248.12,49.71V183.7H1.43V49.71H248.12 M248.87,48.96H0.68v135.49h248.19V48.96L248.87,48.96z"/>
</g>
<rect x="0" class="st2" width="250" height="47.26"/>
<path class="st1" d="M135.41,30.98c-0.01,0.15-0.14,0.26-0.29,0.24l-1.14-0.12c-3.03-0.31-6.08-0.47-9.13-0.47l-0.1,0
	c-3.05,0-6.1,0.16-9.14,0.47l-1.08,0.11c-0.15,0.02-0.28-0.09-0.29-0.24l-1.14-13.16c-0.02-0.21,0.2-0.35,0.38-0.26l6.43,3.23
	c0.11,0.06,0.25,0.03,0.32-0.07l4.34-5.36c0.11-0.13,0.3-0.13,0.41,0l4.34,5.36c0.08,0.1,0.21,0.13,0.32,0.07l6.42-3.22
	c0.18-0.09,0.4,0.05,0.38,0.26L135.41,30.98z M116.96,22.69l0.46,4.84c0.01,0.12,0.13,0.21,0.26,0.2c2.35-0.18,4.73-0.28,7.09-0.28
	c0.01,0,0.03,0,0.04,0c2.37,0,4.75,0.09,7.12,0.28c0.13,0.01,0.25-0.08,0.26-0.2l0.42-4.85c0.01-0.17-0.18-0.29-0.34-0.21
	l-3.74,1.72c-0.1,0.05-0.22,0.02-0.29-0.06l-3.26-3.69c-0.1-0.11-0.27-0.11-0.37,0l-3.26,3.69c-0.07,0.08-0.19,0.1-0.29,0.06
	l-3.72-1.71C117.13,22.4,116.94,22.52,116.96,22.69z"/>
<g class="st3">
	<path class="st2" d="M149,106.69H101c-1.87,0-3.4-1.53-3.4-3.4v-0.69c0-1.87,1.53-3.4,3.4-3.4H149c1.87,0,3.4,1.53,3.4,3.4v0.69
		C152.4,105.16,150.87,106.69,149,106.69z"/>
</g>
<g class="st4">
	<path class="st2" d="M165.55,120.44H84c-1.87,0-3.4-1.53-3.4-3.4v0c0-1.87,1.53-3.4,3.4-3.4h81.55c1.87,0,3.4,1.53,3.4,3.4v0
		C168.95,118.91,167.42,120.44,165.55,120.44z"/>
</g>
<path class="st5" d="M134.47,137.6h-19.4c-2.81,0-5.11-2.3-5.11-5.11v0c0-2.81,2.3-5.11,5.11-5.11h19.4c2.81,0,5.11,2.3,5.11,5.11v0
	C139.58,135.3,137.28,137.6,134.47,137.6z"/>
<g>
	<path class="st2" d="M241.65,66.75c-0.21-6.48-5.44-11.71-11.92-11.92c-3.52-0.11-6.82,1.23-9.26,3.75
		c-2.34,2.42-3.57,5.61-3.47,8.98c0.21,6.48,5.44,11.71,11.92,11.92c0.13,0,0.27,0.01,0.4,0.01c3.37,0,6.51-1.33,8.86-3.75
		C240.53,73.31,241.76,70.12,241.65,66.75z M236.32,73.92c-1.85,1.91-4.33,2.96-6.99,2.96c-0.11,0-0.21,0-0.32-0.01
		c-5.11-0.16-9.24-4.3-9.41-9.41c-0.08-2.66,0.89-5.18,2.74-7.09c1.85-1.91,4.33-2.96,6.99-2.96c0.11,0,0.21,0,0.32,0.01
		c5.11,0.16,9.24,4.3,9.41,9.41C239.14,69.5,238.17,72.01,236.32,73.92z"/>
	<path class="st2" d="M233.37,66.44l-5.47-3.92c-0.58-0.42-1.4,0-1.4,0.72v7.84c0,0.72,0.81,1.13,1.4,0.72l5.47-3.92
		C233.86,67.52,233.86,66.79,233.37,66.44z"/>
</g>
</svg>
