<?xml version="1.0" encoding="utf-8"?>
<!-- Generator: Adobe Illustrator 23.0.0, SVG Export Plug-In . SVG Version: 6.00 Build 0)  -->
<svg version="1.1" id="Layer_1" xmlns="http://www.w3.org/2000/svg" xmlns:xlink="http://www.w3.org/1999/xlink" x="0px" y="0px"
	 viewBox="0 0 250 250" style="enable-background:new 0 0 250 250;" xml:space="preserve">
<style type="text/css">
	.st0{fill:#E9EAED;}
	.st1{fill:#A8B6C0;}
	.st2{fill:#FFFFFF;}
	.st3{opacity:0.54;fill:#FFFFFF;}
</style>
<rect class="st0" width="250" height="250"/>
<g>
	<path class="st1" d="M3.82,160.09c-1.45,0-2.63-1.18-2.63-2.63V60.01c0-1.45,1.18-2.63,2.63-2.63h242.36
		c1.45,0,2.63,1.18,2.63,2.63v97.46c0,1.45-1.18,2.63-2.63,2.63H3.82z"/>
	<path class="st0" d="M246.18,57.76c1.24,0,2.25,1.01,2.25,2.25v97.46c0,1.24-1.01,2.25-2.25,2.25H3.82c-1.24,0-2.25-1.01-2.25-2.25
		V60.01c0-1.24,1.01-2.25,2.25-2.25H246.18 M246.18,57.01H3.82c-1.66,0-3,1.34-3,3v97.46c0,1.66,1.34,3,3,3h242.36
		c1.66,0,3-1.34,3-3V60.01C249.18,58.35,247.84,57.01,246.18,57.01L246.18,57.01z"/>
</g>
<rect x="0" class="st2" width="250" height="47.26"/>
<path class="st1" d="M135.41,30.98c-0.01,0.15-0.14,0.26-0.29,0.24l-1.14-0.12c-3.03-0.31-6.08-0.47-9.13-0.47l-0.1,0
	c-3.05,0-6.1,0.16-9.14,0.47l-1.08,0.11c-0.15,0.02-0.28-0.09-0.29-0.24l-1.14-13.16c-0.02-0.21,0.2-0.35,0.38-0.26l6.43,3.23
	c0.11,0.06,0.25,0.03,0.32-0.07l4.34-5.36c0.11-0.13,0.3-0.13,0.41,0l4.34,5.36c0.08,0.1,0.21,0.13,0.32,0.07l6.42-3.22
	c0.18-0.09,0.4,0.05,0.38,0.26L135.41,30.98z M116.96,22.69l0.46,4.84c0.01,0.12,0.13,0.21,0.26,0.2c2.35-0.18,4.73-0.28,7.09-0.28
	c0.01,0,0.03,0,0.04,0c2.37,0,4.75,0.09,7.12,0.28c0.13,0.01,0.25-0.08,0.26-0.2l0.42-4.85c0.01-0.17-0.18-0.29-0.34-0.21
	l-3.74,1.72c-0.1,0.05-0.22,0.02-0.29-0.06l-3.26-3.69c-0.1-0.11-0.27-0.11-0.37,0l-3.26,3.69c-0.07,0.08-0.19,0.1-0.29,0.06
	l-3.72-1.71C117.13,22.4,116.94,22.52,116.96,22.69z"/>
<path class="st2" d="M238.15,122.28L238.15,122.28c-3.18,0-5.79-2.6-5.79-5.79v-15.52c0-3.18,2.6-5.79,5.79-5.79h0
	c3.18,0,5.79,2.6,5.79,5.79v15.52C243.94,119.68,241.33,122.28,238.15,122.28z"/>
<path class="st2" d="M238.15,156.02L238.15,156.02c-3.18,0-5.79-2.6-5.79-5.79v-7.96c0-3.18,2.6-5.79,5.79-5.79h0
	c3.18,0,5.79,2.6,5.79,5.79v7.96C243.94,153.41,241.33,156.02,238.15,156.02z"/>
<path class="st3" d="M145.37,113.89h-41.19c-1.78,0-3.23-1.46-3.23-3.23v0c0-1.78,1.46-3.23,3.23-3.23h41.19
	c1.78,0,3.23,1.46,3.23,3.23v0C148.6,112.44,147.15,113.89,145.37,113.89z"/>
<path class="st3" d="M160.17,103.58H89.38c-1.78,0-3.23-1.46-3.23-3.23v0c0-1.78,1.46-3.23,3.23-3.23h70.79
	c1.78,0,3.23,1.46,3.23,3.23v0C163.4,102.12,161.95,103.58,160.17,103.58z"/>
</svg>
